%TF.GenerationSoftware,KiCad,Pcbnew,8.0.3*%
%TF.CreationDate,2024-12-05T20:13:47+00:00*%
%TF.ProjectId,Thomas-Henry-VCOv2,54686f6d-6173-42d4-9865-6e72792d5643,rev?*%
%TF.SameCoordinates,Original*%
%TF.FileFunction,Legend,Bot*%
%TF.FilePolarity,Positive*%
%FSLAX46Y46*%
G04 Gerber Fmt 4.6, Leading zero omitted, Abs format (unit mm)*
G04 Created by KiCad (PCBNEW 8.0.3) date 2024-12-05 20:13:47*
%MOMM*%
%LPD*%
G01*
G04 APERTURE LIST*
%ADD10C,0.100000*%
%ADD11C,0.150000*%
%ADD12C,0.300000*%
%ADD13C,0.400000*%
%ADD14C,0.210000*%
%ADD15C,0.120000*%
G04 APERTURE END LIST*
D10*
D11*
X177002200Y-166007200D02*
X285002200Y-166007200D01*
X285002200Y-198007200D01*
X177002200Y-198007200D01*
X177002200Y-166007200D01*
D10*
D11*
X10000000Y-10000000D02*
X287002200Y-10000000D01*
X287002200Y-200007200D01*
X10000000Y-200007200D01*
X10000000Y-10000000D01*
D10*
D11*
X12000000Y-12000000D02*
X285002200Y-12000000D01*
X285002200Y-198007200D01*
X12000000Y-198007200D01*
X12000000Y-12000000D01*
D10*
D11*
X60000000Y-12000000D02*
X60000000Y-10000000D01*
D10*
D11*
X110000000Y-12000000D02*
X110000000Y-10000000D01*
D10*
D11*
X160000000Y-12000000D02*
X160000000Y-10000000D01*
D10*
D11*
X210000000Y-12000000D02*
X210000000Y-10000000D01*
D10*
D11*
X260000000Y-12000000D02*
X260000000Y-10000000D01*
D10*
D11*
X36089160Y-11593604D02*
X35346303Y-11593604D01*
X35717731Y-11593604D02*
X35717731Y-10293604D01*
X35717731Y-10293604D02*
X35593922Y-10479319D01*
X35593922Y-10479319D02*
X35470112Y-10603128D01*
X35470112Y-10603128D02*
X35346303Y-10665033D01*
D10*
D11*
X85346303Y-10417414D02*
X85408207Y-10355509D01*
X85408207Y-10355509D02*
X85532017Y-10293604D01*
X85532017Y-10293604D02*
X85841541Y-10293604D01*
X85841541Y-10293604D02*
X85965350Y-10355509D01*
X85965350Y-10355509D02*
X86027255Y-10417414D01*
X86027255Y-10417414D02*
X86089160Y-10541223D01*
X86089160Y-10541223D02*
X86089160Y-10665033D01*
X86089160Y-10665033D02*
X86027255Y-10850747D01*
X86027255Y-10850747D02*
X85284398Y-11593604D01*
X85284398Y-11593604D02*
X86089160Y-11593604D01*
D10*
D11*
X135284398Y-10293604D02*
X136089160Y-10293604D01*
X136089160Y-10293604D02*
X135655826Y-10788842D01*
X135655826Y-10788842D02*
X135841541Y-10788842D01*
X135841541Y-10788842D02*
X135965350Y-10850747D01*
X135965350Y-10850747D02*
X136027255Y-10912652D01*
X136027255Y-10912652D02*
X136089160Y-11036461D01*
X136089160Y-11036461D02*
X136089160Y-11345985D01*
X136089160Y-11345985D02*
X136027255Y-11469795D01*
X136027255Y-11469795D02*
X135965350Y-11531700D01*
X135965350Y-11531700D02*
X135841541Y-11593604D01*
X135841541Y-11593604D02*
X135470112Y-11593604D01*
X135470112Y-11593604D02*
X135346303Y-11531700D01*
X135346303Y-11531700D02*
X135284398Y-11469795D01*
D10*
D11*
X185965350Y-10726938D02*
X185965350Y-11593604D01*
X185655826Y-10231700D02*
X185346303Y-11160271D01*
X185346303Y-11160271D02*
X186151064Y-11160271D01*
D10*
D11*
X236027255Y-10293604D02*
X235408207Y-10293604D01*
X235408207Y-10293604D02*
X235346303Y-10912652D01*
X235346303Y-10912652D02*
X235408207Y-10850747D01*
X235408207Y-10850747D02*
X235532017Y-10788842D01*
X235532017Y-10788842D02*
X235841541Y-10788842D01*
X235841541Y-10788842D02*
X235965350Y-10850747D01*
X235965350Y-10850747D02*
X236027255Y-10912652D01*
X236027255Y-10912652D02*
X236089160Y-11036461D01*
X236089160Y-11036461D02*
X236089160Y-11345985D01*
X236089160Y-11345985D02*
X236027255Y-11469795D01*
X236027255Y-11469795D02*
X235965350Y-11531700D01*
X235965350Y-11531700D02*
X235841541Y-11593604D01*
X235841541Y-11593604D02*
X235532017Y-11593604D01*
X235532017Y-11593604D02*
X235408207Y-11531700D01*
X235408207Y-11531700D02*
X235346303Y-11469795D01*
D10*
D11*
X285965350Y-10293604D02*
X285717731Y-10293604D01*
X285717731Y-10293604D02*
X285593922Y-10355509D01*
X285593922Y-10355509D02*
X285532017Y-10417414D01*
X285532017Y-10417414D02*
X285408207Y-10603128D01*
X285408207Y-10603128D02*
X285346303Y-10850747D01*
X285346303Y-10850747D02*
X285346303Y-11345985D01*
X285346303Y-11345985D02*
X285408207Y-11469795D01*
X285408207Y-11469795D02*
X285470112Y-11531700D01*
X285470112Y-11531700D02*
X285593922Y-11593604D01*
X285593922Y-11593604D02*
X285841541Y-11593604D01*
X285841541Y-11593604D02*
X285965350Y-11531700D01*
X285965350Y-11531700D02*
X286027255Y-11469795D01*
X286027255Y-11469795D02*
X286089160Y-11345985D01*
X286089160Y-11345985D02*
X286089160Y-11036461D01*
X286089160Y-11036461D02*
X286027255Y-10912652D01*
X286027255Y-10912652D02*
X285965350Y-10850747D01*
X285965350Y-10850747D02*
X285841541Y-10788842D01*
X285841541Y-10788842D02*
X285593922Y-10788842D01*
X285593922Y-10788842D02*
X285470112Y-10850747D01*
X285470112Y-10850747D02*
X285408207Y-10912652D01*
X285408207Y-10912652D02*
X285346303Y-11036461D01*
D10*
D11*
X60000000Y-198007200D02*
X60000000Y-200007200D01*
D10*
D11*
X110000000Y-198007200D02*
X110000000Y-200007200D01*
D10*
D11*
X160000000Y-198007200D02*
X160000000Y-200007200D01*
D10*
D11*
X210000000Y-198007200D02*
X210000000Y-200007200D01*
D10*
D11*
X260000000Y-198007200D02*
X260000000Y-200007200D01*
D10*
D11*
X36089160Y-199600804D02*
X35346303Y-199600804D01*
X35717731Y-199600804D02*
X35717731Y-198300804D01*
X35717731Y-198300804D02*
X35593922Y-198486519D01*
X35593922Y-198486519D02*
X35470112Y-198610328D01*
X35470112Y-198610328D02*
X35346303Y-198672233D01*
D10*
D11*
X85346303Y-198424614D02*
X85408207Y-198362709D01*
X85408207Y-198362709D02*
X85532017Y-198300804D01*
X85532017Y-198300804D02*
X85841541Y-198300804D01*
X85841541Y-198300804D02*
X85965350Y-198362709D01*
X85965350Y-198362709D02*
X86027255Y-198424614D01*
X86027255Y-198424614D02*
X86089160Y-198548423D01*
X86089160Y-198548423D02*
X86089160Y-198672233D01*
X86089160Y-198672233D02*
X86027255Y-198857947D01*
X86027255Y-198857947D02*
X85284398Y-199600804D01*
X85284398Y-199600804D02*
X86089160Y-199600804D01*
D10*
D11*
X135284398Y-198300804D02*
X136089160Y-198300804D01*
X136089160Y-198300804D02*
X135655826Y-198796042D01*
X135655826Y-198796042D02*
X135841541Y-198796042D01*
X135841541Y-198796042D02*
X135965350Y-198857947D01*
X135965350Y-198857947D02*
X136027255Y-198919852D01*
X136027255Y-198919852D02*
X136089160Y-199043661D01*
X136089160Y-199043661D02*
X136089160Y-199353185D01*
X136089160Y-199353185D02*
X136027255Y-199476995D01*
X136027255Y-199476995D02*
X135965350Y-199538900D01*
X135965350Y-199538900D02*
X135841541Y-199600804D01*
X135841541Y-199600804D02*
X135470112Y-199600804D01*
X135470112Y-199600804D02*
X135346303Y-199538900D01*
X135346303Y-199538900D02*
X135284398Y-199476995D01*
D10*
D11*
X185965350Y-198734138D02*
X185965350Y-199600804D01*
X185655826Y-198238900D02*
X185346303Y-199167471D01*
X185346303Y-199167471D02*
X186151064Y-199167471D01*
D10*
D11*
X236027255Y-198300804D02*
X235408207Y-198300804D01*
X235408207Y-198300804D02*
X235346303Y-198919852D01*
X235346303Y-198919852D02*
X235408207Y-198857947D01*
X235408207Y-198857947D02*
X235532017Y-198796042D01*
X235532017Y-198796042D02*
X235841541Y-198796042D01*
X235841541Y-198796042D02*
X235965350Y-198857947D01*
X235965350Y-198857947D02*
X236027255Y-198919852D01*
X236027255Y-198919852D02*
X236089160Y-199043661D01*
X236089160Y-199043661D02*
X236089160Y-199353185D01*
X236089160Y-199353185D02*
X236027255Y-199476995D01*
X236027255Y-199476995D02*
X235965350Y-199538900D01*
X235965350Y-199538900D02*
X235841541Y-199600804D01*
X235841541Y-199600804D02*
X235532017Y-199600804D01*
X235532017Y-199600804D02*
X235408207Y-199538900D01*
X235408207Y-199538900D02*
X235346303Y-199476995D01*
D10*
D11*
X285965350Y-198300804D02*
X285717731Y-198300804D01*
X285717731Y-198300804D02*
X285593922Y-198362709D01*
X285593922Y-198362709D02*
X285532017Y-198424614D01*
X285532017Y-198424614D02*
X285408207Y-198610328D01*
X285408207Y-198610328D02*
X285346303Y-198857947D01*
X285346303Y-198857947D02*
X285346303Y-199353185D01*
X285346303Y-199353185D02*
X285408207Y-199476995D01*
X285408207Y-199476995D02*
X285470112Y-199538900D01*
X285470112Y-199538900D02*
X285593922Y-199600804D01*
X285593922Y-199600804D02*
X285841541Y-199600804D01*
X285841541Y-199600804D02*
X285965350Y-199538900D01*
X285965350Y-199538900D02*
X286027255Y-199476995D01*
X286027255Y-199476995D02*
X286089160Y-199353185D01*
X286089160Y-199353185D02*
X286089160Y-199043661D01*
X286089160Y-199043661D02*
X286027255Y-198919852D01*
X286027255Y-198919852D02*
X285965350Y-198857947D01*
X285965350Y-198857947D02*
X285841541Y-198796042D01*
X285841541Y-198796042D02*
X285593922Y-198796042D01*
X285593922Y-198796042D02*
X285470112Y-198857947D01*
X285470112Y-198857947D02*
X285408207Y-198919852D01*
X285408207Y-198919852D02*
X285346303Y-199043661D01*
D10*
D11*
X10000000Y-60000000D02*
X12000000Y-60000000D01*
D10*
D11*
X10000000Y-110000000D02*
X12000000Y-110000000D01*
D10*
D11*
X10000000Y-160000000D02*
X12000000Y-160000000D01*
D10*
D11*
X10690476Y-35222176D02*
X11309523Y-35222176D01*
X10566666Y-35593604D02*
X10999999Y-34293604D01*
X10999999Y-34293604D02*
X11433333Y-35593604D01*
D10*
D11*
X11092857Y-84912652D02*
X11278571Y-84974557D01*
X11278571Y-84974557D02*
X11340476Y-85036461D01*
X11340476Y-85036461D02*
X11402380Y-85160271D01*
X11402380Y-85160271D02*
X11402380Y-85345985D01*
X11402380Y-85345985D02*
X11340476Y-85469795D01*
X11340476Y-85469795D02*
X11278571Y-85531700D01*
X11278571Y-85531700D02*
X11154761Y-85593604D01*
X11154761Y-85593604D02*
X10659523Y-85593604D01*
X10659523Y-85593604D02*
X10659523Y-84293604D01*
X10659523Y-84293604D02*
X11092857Y-84293604D01*
X11092857Y-84293604D02*
X11216666Y-84355509D01*
X11216666Y-84355509D02*
X11278571Y-84417414D01*
X11278571Y-84417414D02*
X11340476Y-84541223D01*
X11340476Y-84541223D02*
X11340476Y-84665033D01*
X11340476Y-84665033D02*
X11278571Y-84788842D01*
X11278571Y-84788842D02*
X11216666Y-84850747D01*
X11216666Y-84850747D02*
X11092857Y-84912652D01*
X11092857Y-84912652D02*
X10659523Y-84912652D01*
D10*
D11*
X11402380Y-135469795D02*
X11340476Y-135531700D01*
X11340476Y-135531700D02*
X11154761Y-135593604D01*
X11154761Y-135593604D02*
X11030952Y-135593604D01*
X11030952Y-135593604D02*
X10845238Y-135531700D01*
X10845238Y-135531700D02*
X10721428Y-135407890D01*
X10721428Y-135407890D02*
X10659523Y-135284080D01*
X10659523Y-135284080D02*
X10597619Y-135036461D01*
X10597619Y-135036461D02*
X10597619Y-134850747D01*
X10597619Y-134850747D02*
X10659523Y-134603128D01*
X10659523Y-134603128D02*
X10721428Y-134479319D01*
X10721428Y-134479319D02*
X10845238Y-134355509D01*
X10845238Y-134355509D02*
X11030952Y-134293604D01*
X11030952Y-134293604D02*
X11154761Y-134293604D01*
X11154761Y-134293604D02*
X11340476Y-134355509D01*
X11340476Y-134355509D02*
X11402380Y-134417414D01*
D10*
D11*
X10659523Y-185593604D02*
X10659523Y-184293604D01*
X10659523Y-184293604D02*
X10969047Y-184293604D01*
X10969047Y-184293604D02*
X11154761Y-184355509D01*
X11154761Y-184355509D02*
X11278571Y-184479319D01*
X11278571Y-184479319D02*
X11340476Y-184603128D01*
X11340476Y-184603128D02*
X11402380Y-184850747D01*
X11402380Y-184850747D02*
X11402380Y-185036461D01*
X11402380Y-185036461D02*
X11340476Y-185284080D01*
X11340476Y-185284080D02*
X11278571Y-185407890D01*
X11278571Y-185407890D02*
X11154761Y-185531700D01*
X11154761Y-185531700D02*
X10969047Y-185593604D01*
X10969047Y-185593604D02*
X10659523Y-185593604D01*
D10*
D11*
X287002200Y-60000000D02*
X285002200Y-60000000D01*
D10*
D11*
X287002200Y-110000000D02*
X285002200Y-110000000D01*
D10*
D11*
X287002200Y-160000000D02*
X285002200Y-160000000D01*
D10*
D11*
X285692676Y-35222176D02*
X286311723Y-35222176D01*
X285568866Y-35593604D02*
X286002199Y-34293604D01*
X286002199Y-34293604D02*
X286435533Y-35593604D01*
D10*
D11*
X286095057Y-84912652D02*
X286280771Y-84974557D01*
X286280771Y-84974557D02*
X286342676Y-85036461D01*
X286342676Y-85036461D02*
X286404580Y-85160271D01*
X286404580Y-85160271D02*
X286404580Y-85345985D01*
X286404580Y-85345985D02*
X286342676Y-85469795D01*
X286342676Y-85469795D02*
X286280771Y-85531700D01*
X286280771Y-85531700D02*
X286156961Y-85593604D01*
X286156961Y-85593604D02*
X285661723Y-85593604D01*
X285661723Y-85593604D02*
X285661723Y-84293604D01*
X285661723Y-84293604D02*
X286095057Y-84293604D01*
X286095057Y-84293604D02*
X286218866Y-84355509D01*
X286218866Y-84355509D02*
X286280771Y-84417414D01*
X286280771Y-84417414D02*
X286342676Y-84541223D01*
X286342676Y-84541223D02*
X286342676Y-84665033D01*
X286342676Y-84665033D02*
X286280771Y-84788842D01*
X286280771Y-84788842D02*
X286218866Y-84850747D01*
X286218866Y-84850747D02*
X286095057Y-84912652D01*
X286095057Y-84912652D02*
X285661723Y-84912652D01*
D10*
D11*
X286404580Y-135469795D02*
X286342676Y-135531700D01*
X286342676Y-135531700D02*
X286156961Y-135593604D01*
X286156961Y-135593604D02*
X286033152Y-135593604D01*
X286033152Y-135593604D02*
X285847438Y-135531700D01*
X285847438Y-135531700D02*
X285723628Y-135407890D01*
X285723628Y-135407890D02*
X285661723Y-135284080D01*
X285661723Y-135284080D02*
X285599819Y-135036461D01*
X285599819Y-135036461D02*
X285599819Y-134850747D01*
X285599819Y-134850747D02*
X285661723Y-134603128D01*
X285661723Y-134603128D02*
X285723628Y-134479319D01*
X285723628Y-134479319D02*
X285847438Y-134355509D01*
X285847438Y-134355509D02*
X286033152Y-134293604D01*
X286033152Y-134293604D02*
X286156961Y-134293604D01*
X286156961Y-134293604D02*
X286342676Y-134355509D01*
X286342676Y-134355509D02*
X286404580Y-134417414D01*
D10*
D11*
X285661723Y-185593604D02*
X285661723Y-184293604D01*
X285661723Y-184293604D02*
X285971247Y-184293604D01*
X285971247Y-184293604D02*
X286156961Y-184355509D01*
X286156961Y-184355509D02*
X286280771Y-184479319D01*
X286280771Y-184479319D02*
X286342676Y-184603128D01*
X286342676Y-184603128D02*
X286404580Y-184850747D01*
X286404580Y-184850747D02*
X286404580Y-185036461D01*
X286404580Y-185036461D02*
X286342676Y-185284080D01*
X286342676Y-185284080D02*
X286280771Y-185407890D01*
X286280771Y-185407890D02*
X286156961Y-185531700D01*
X286156961Y-185531700D02*
X285971247Y-185593604D01*
X285971247Y-185593604D02*
X285661723Y-185593604D01*
D10*
D11*
X200458026Y-193793328D02*
X200458026Y-192293328D01*
X200458026Y-192293328D02*
X200815169Y-192293328D01*
X200815169Y-192293328D02*
X201029455Y-192364757D01*
X201029455Y-192364757D02*
X201172312Y-192507614D01*
X201172312Y-192507614D02*
X201243741Y-192650471D01*
X201243741Y-192650471D02*
X201315169Y-192936185D01*
X201315169Y-192936185D02*
X201315169Y-193150471D01*
X201315169Y-193150471D02*
X201243741Y-193436185D01*
X201243741Y-193436185D02*
X201172312Y-193579042D01*
X201172312Y-193579042D02*
X201029455Y-193721900D01*
X201029455Y-193721900D02*
X200815169Y-193793328D01*
X200815169Y-193793328D02*
X200458026Y-193793328D01*
X202600884Y-193793328D02*
X202600884Y-193007614D01*
X202600884Y-193007614D02*
X202529455Y-192864757D01*
X202529455Y-192864757D02*
X202386598Y-192793328D01*
X202386598Y-192793328D02*
X202100884Y-192793328D01*
X202100884Y-192793328D02*
X201958026Y-192864757D01*
X202600884Y-193721900D02*
X202458026Y-193793328D01*
X202458026Y-193793328D02*
X202100884Y-193793328D01*
X202100884Y-193793328D02*
X201958026Y-193721900D01*
X201958026Y-193721900D02*
X201886598Y-193579042D01*
X201886598Y-193579042D02*
X201886598Y-193436185D01*
X201886598Y-193436185D02*
X201958026Y-193293328D01*
X201958026Y-193293328D02*
X202100884Y-193221900D01*
X202100884Y-193221900D02*
X202458026Y-193221900D01*
X202458026Y-193221900D02*
X202600884Y-193150471D01*
X203100884Y-192793328D02*
X203672312Y-192793328D01*
X203315169Y-192293328D02*
X203315169Y-193579042D01*
X203315169Y-193579042D02*
X203386598Y-193721900D01*
X203386598Y-193721900D02*
X203529455Y-193793328D01*
X203529455Y-193793328D02*
X203672312Y-193793328D01*
X204743741Y-193721900D02*
X204600884Y-193793328D01*
X204600884Y-193793328D02*
X204315170Y-193793328D01*
X204315170Y-193793328D02*
X204172312Y-193721900D01*
X204172312Y-193721900D02*
X204100884Y-193579042D01*
X204100884Y-193579042D02*
X204100884Y-193007614D01*
X204100884Y-193007614D02*
X204172312Y-192864757D01*
X204172312Y-192864757D02*
X204315170Y-192793328D01*
X204315170Y-192793328D02*
X204600884Y-192793328D01*
X204600884Y-192793328D02*
X204743741Y-192864757D01*
X204743741Y-192864757D02*
X204815170Y-193007614D01*
X204815170Y-193007614D02*
X204815170Y-193150471D01*
X204815170Y-193150471D02*
X204100884Y-193293328D01*
X205458026Y-193650471D02*
X205529455Y-193721900D01*
X205529455Y-193721900D02*
X205458026Y-193793328D01*
X205458026Y-193793328D02*
X205386598Y-193721900D01*
X205386598Y-193721900D02*
X205458026Y-193650471D01*
X205458026Y-193650471D02*
X205458026Y-193793328D01*
X205458026Y-192864757D02*
X205529455Y-192936185D01*
X205529455Y-192936185D02*
X205458026Y-193007614D01*
X205458026Y-193007614D02*
X205386598Y-192936185D01*
X205386598Y-192936185D02*
X205458026Y-192864757D01*
X205458026Y-192864757D02*
X205458026Y-193007614D01*
D10*
D11*
X177002200Y-194507200D02*
X285002200Y-194507200D01*
D10*
D11*
X178458026Y-196593328D02*
X178458026Y-195093328D01*
X179315169Y-196593328D02*
X178672312Y-195736185D01*
X179315169Y-195093328D02*
X178458026Y-195950471D01*
X179958026Y-196593328D02*
X179958026Y-195593328D01*
X179958026Y-195093328D02*
X179886598Y-195164757D01*
X179886598Y-195164757D02*
X179958026Y-195236185D01*
X179958026Y-195236185D02*
X180029455Y-195164757D01*
X180029455Y-195164757D02*
X179958026Y-195093328D01*
X179958026Y-195093328D02*
X179958026Y-195236185D01*
X181529455Y-196450471D02*
X181458027Y-196521900D01*
X181458027Y-196521900D02*
X181243741Y-196593328D01*
X181243741Y-196593328D02*
X181100884Y-196593328D01*
X181100884Y-196593328D02*
X180886598Y-196521900D01*
X180886598Y-196521900D02*
X180743741Y-196379042D01*
X180743741Y-196379042D02*
X180672312Y-196236185D01*
X180672312Y-196236185D02*
X180600884Y-195950471D01*
X180600884Y-195950471D02*
X180600884Y-195736185D01*
X180600884Y-195736185D02*
X180672312Y-195450471D01*
X180672312Y-195450471D02*
X180743741Y-195307614D01*
X180743741Y-195307614D02*
X180886598Y-195164757D01*
X180886598Y-195164757D02*
X181100884Y-195093328D01*
X181100884Y-195093328D02*
X181243741Y-195093328D01*
X181243741Y-195093328D02*
X181458027Y-195164757D01*
X181458027Y-195164757D02*
X181529455Y-195236185D01*
X182815170Y-196593328D02*
X182815170Y-195807614D01*
X182815170Y-195807614D02*
X182743741Y-195664757D01*
X182743741Y-195664757D02*
X182600884Y-195593328D01*
X182600884Y-195593328D02*
X182315170Y-195593328D01*
X182315170Y-195593328D02*
X182172312Y-195664757D01*
X182815170Y-196521900D02*
X182672312Y-196593328D01*
X182672312Y-196593328D02*
X182315170Y-196593328D01*
X182315170Y-196593328D02*
X182172312Y-196521900D01*
X182172312Y-196521900D02*
X182100884Y-196379042D01*
X182100884Y-196379042D02*
X182100884Y-196236185D01*
X182100884Y-196236185D02*
X182172312Y-196093328D01*
X182172312Y-196093328D02*
X182315170Y-196021900D01*
X182315170Y-196021900D02*
X182672312Y-196021900D01*
X182672312Y-196021900D02*
X182815170Y-195950471D01*
X184172313Y-196593328D02*
X184172313Y-195093328D01*
X184172313Y-196521900D02*
X184029455Y-196593328D01*
X184029455Y-196593328D02*
X183743741Y-196593328D01*
X183743741Y-196593328D02*
X183600884Y-196521900D01*
X183600884Y-196521900D02*
X183529455Y-196450471D01*
X183529455Y-196450471D02*
X183458027Y-196307614D01*
X183458027Y-196307614D02*
X183458027Y-195879042D01*
X183458027Y-195879042D02*
X183529455Y-195736185D01*
X183529455Y-195736185D02*
X183600884Y-195664757D01*
X183600884Y-195664757D02*
X183743741Y-195593328D01*
X183743741Y-195593328D02*
X184029455Y-195593328D01*
X184029455Y-195593328D02*
X184172313Y-195664757D01*
X186029455Y-195807614D02*
X186529455Y-195807614D01*
X186743741Y-196593328D02*
X186029455Y-196593328D01*
X186029455Y-196593328D02*
X186029455Y-195093328D01*
X186029455Y-195093328D02*
X186743741Y-195093328D01*
X187386598Y-196450471D02*
X187458027Y-196521900D01*
X187458027Y-196521900D02*
X187386598Y-196593328D01*
X187386598Y-196593328D02*
X187315170Y-196521900D01*
X187315170Y-196521900D02*
X187386598Y-196450471D01*
X187386598Y-196450471D02*
X187386598Y-196593328D01*
X188100884Y-196593328D02*
X188100884Y-195093328D01*
X188100884Y-195093328D02*
X188458027Y-195093328D01*
X188458027Y-195093328D02*
X188672313Y-195164757D01*
X188672313Y-195164757D02*
X188815170Y-195307614D01*
X188815170Y-195307614D02*
X188886599Y-195450471D01*
X188886599Y-195450471D02*
X188958027Y-195736185D01*
X188958027Y-195736185D02*
X188958027Y-195950471D01*
X188958027Y-195950471D02*
X188886599Y-196236185D01*
X188886599Y-196236185D02*
X188815170Y-196379042D01*
X188815170Y-196379042D02*
X188672313Y-196521900D01*
X188672313Y-196521900D02*
X188458027Y-196593328D01*
X188458027Y-196593328D02*
X188100884Y-196593328D01*
X189600884Y-196450471D02*
X189672313Y-196521900D01*
X189672313Y-196521900D02*
X189600884Y-196593328D01*
X189600884Y-196593328D02*
X189529456Y-196521900D01*
X189529456Y-196521900D02*
X189600884Y-196450471D01*
X189600884Y-196450471D02*
X189600884Y-196593328D01*
X190243742Y-196164757D02*
X190958028Y-196164757D01*
X190100885Y-196593328D02*
X190600885Y-195093328D01*
X190600885Y-195093328D02*
X191100885Y-196593328D01*
X191600884Y-196450471D02*
X191672313Y-196521900D01*
X191672313Y-196521900D02*
X191600884Y-196593328D01*
X191600884Y-196593328D02*
X191529456Y-196521900D01*
X191529456Y-196521900D02*
X191600884Y-196450471D01*
X191600884Y-196450471D02*
X191600884Y-196593328D01*
X193672313Y-195736185D02*
X193529456Y-195664757D01*
X193529456Y-195664757D02*
X193458027Y-195593328D01*
X193458027Y-195593328D02*
X193386599Y-195450471D01*
X193386599Y-195450471D02*
X193386599Y-195379042D01*
X193386599Y-195379042D02*
X193458027Y-195236185D01*
X193458027Y-195236185D02*
X193529456Y-195164757D01*
X193529456Y-195164757D02*
X193672313Y-195093328D01*
X193672313Y-195093328D02*
X193958027Y-195093328D01*
X193958027Y-195093328D02*
X194100885Y-195164757D01*
X194100885Y-195164757D02*
X194172313Y-195236185D01*
X194172313Y-195236185D02*
X194243742Y-195379042D01*
X194243742Y-195379042D02*
X194243742Y-195450471D01*
X194243742Y-195450471D02*
X194172313Y-195593328D01*
X194172313Y-195593328D02*
X194100885Y-195664757D01*
X194100885Y-195664757D02*
X193958027Y-195736185D01*
X193958027Y-195736185D02*
X193672313Y-195736185D01*
X193672313Y-195736185D02*
X193529456Y-195807614D01*
X193529456Y-195807614D02*
X193458027Y-195879042D01*
X193458027Y-195879042D02*
X193386599Y-196021900D01*
X193386599Y-196021900D02*
X193386599Y-196307614D01*
X193386599Y-196307614D02*
X193458027Y-196450471D01*
X193458027Y-196450471D02*
X193529456Y-196521900D01*
X193529456Y-196521900D02*
X193672313Y-196593328D01*
X193672313Y-196593328D02*
X193958027Y-196593328D01*
X193958027Y-196593328D02*
X194100885Y-196521900D01*
X194100885Y-196521900D02*
X194172313Y-196450471D01*
X194172313Y-196450471D02*
X194243742Y-196307614D01*
X194243742Y-196307614D02*
X194243742Y-196021900D01*
X194243742Y-196021900D02*
X194172313Y-195879042D01*
X194172313Y-195879042D02*
X194100885Y-195807614D01*
X194100885Y-195807614D02*
X193958027Y-195736185D01*
X194886598Y-196450471D02*
X194958027Y-196521900D01*
X194958027Y-196521900D02*
X194886598Y-196593328D01*
X194886598Y-196593328D02*
X194815170Y-196521900D01*
X194815170Y-196521900D02*
X194886598Y-196450471D01*
X194886598Y-196450471D02*
X194886598Y-196593328D01*
X195886599Y-195093328D02*
X196029456Y-195093328D01*
X196029456Y-195093328D02*
X196172313Y-195164757D01*
X196172313Y-195164757D02*
X196243742Y-195236185D01*
X196243742Y-195236185D02*
X196315170Y-195379042D01*
X196315170Y-195379042D02*
X196386599Y-195664757D01*
X196386599Y-195664757D02*
X196386599Y-196021900D01*
X196386599Y-196021900D02*
X196315170Y-196307614D01*
X196315170Y-196307614D02*
X196243742Y-196450471D01*
X196243742Y-196450471D02*
X196172313Y-196521900D01*
X196172313Y-196521900D02*
X196029456Y-196593328D01*
X196029456Y-196593328D02*
X195886599Y-196593328D01*
X195886599Y-196593328D02*
X195743742Y-196521900D01*
X195743742Y-196521900D02*
X195672313Y-196450471D01*
X195672313Y-196450471D02*
X195600884Y-196307614D01*
X195600884Y-196307614D02*
X195529456Y-196021900D01*
X195529456Y-196021900D02*
X195529456Y-195664757D01*
X195529456Y-195664757D02*
X195600884Y-195379042D01*
X195600884Y-195379042D02*
X195672313Y-195236185D01*
X195672313Y-195236185D02*
X195743742Y-195164757D01*
X195743742Y-195164757D02*
X195886599Y-195093328D01*
X197029455Y-196450471D02*
X197100884Y-196521900D01*
X197100884Y-196521900D02*
X197029455Y-196593328D01*
X197029455Y-196593328D02*
X196958027Y-196521900D01*
X196958027Y-196521900D02*
X197029455Y-196450471D01*
X197029455Y-196450471D02*
X197029455Y-196593328D01*
X197600884Y-195093328D02*
X198529456Y-195093328D01*
X198529456Y-195093328D02*
X198029456Y-195664757D01*
X198029456Y-195664757D02*
X198243741Y-195664757D01*
X198243741Y-195664757D02*
X198386599Y-195736185D01*
X198386599Y-195736185D02*
X198458027Y-195807614D01*
X198458027Y-195807614D02*
X198529456Y-195950471D01*
X198529456Y-195950471D02*
X198529456Y-196307614D01*
X198529456Y-196307614D02*
X198458027Y-196450471D01*
X198458027Y-196450471D02*
X198386599Y-196521900D01*
X198386599Y-196521900D02*
X198243741Y-196593328D01*
X198243741Y-196593328D02*
X197815170Y-196593328D01*
X197815170Y-196593328D02*
X197672313Y-196521900D01*
X197672313Y-196521900D02*
X197600884Y-196450471D01*
D10*
D11*
X177002200Y-191507200D02*
X285002200Y-191507200D01*
D10*
D12*
X264413853Y-193785528D02*
X263913853Y-193071242D01*
X263556710Y-193785528D02*
X263556710Y-192285528D01*
X263556710Y-192285528D02*
X264128139Y-192285528D01*
X264128139Y-192285528D02*
X264270996Y-192356957D01*
X264270996Y-192356957D02*
X264342425Y-192428385D01*
X264342425Y-192428385D02*
X264413853Y-192571242D01*
X264413853Y-192571242D02*
X264413853Y-192785528D01*
X264413853Y-192785528D02*
X264342425Y-192928385D01*
X264342425Y-192928385D02*
X264270996Y-192999814D01*
X264270996Y-192999814D02*
X264128139Y-193071242D01*
X264128139Y-193071242D02*
X263556710Y-193071242D01*
X265628139Y-193714100D02*
X265485282Y-193785528D01*
X265485282Y-193785528D02*
X265199568Y-193785528D01*
X265199568Y-193785528D02*
X265056710Y-193714100D01*
X265056710Y-193714100D02*
X264985282Y-193571242D01*
X264985282Y-193571242D02*
X264985282Y-192999814D01*
X264985282Y-192999814D02*
X265056710Y-192856957D01*
X265056710Y-192856957D02*
X265199568Y-192785528D01*
X265199568Y-192785528D02*
X265485282Y-192785528D01*
X265485282Y-192785528D02*
X265628139Y-192856957D01*
X265628139Y-192856957D02*
X265699568Y-192999814D01*
X265699568Y-192999814D02*
X265699568Y-193142671D01*
X265699568Y-193142671D02*
X264985282Y-193285528D01*
X266199567Y-192785528D02*
X266556710Y-193785528D01*
X266556710Y-193785528D02*
X266913853Y-192785528D01*
X267485281Y-193642671D02*
X267556710Y-193714100D01*
X267556710Y-193714100D02*
X267485281Y-193785528D01*
X267485281Y-193785528D02*
X267413853Y-193714100D01*
X267413853Y-193714100D02*
X267485281Y-193642671D01*
X267485281Y-193642671D02*
X267485281Y-193785528D01*
X267485281Y-192856957D02*
X267556710Y-192928385D01*
X267556710Y-192928385D02*
X267485281Y-192999814D01*
X267485281Y-192999814D02*
X267413853Y-192928385D01*
X267413853Y-192928385D02*
X267485281Y-192856957D01*
X267485281Y-192856957D02*
X267485281Y-192999814D01*
D10*
D11*
X178386598Y-193721900D02*
X178600884Y-193793328D01*
X178600884Y-193793328D02*
X178958026Y-193793328D01*
X178958026Y-193793328D02*
X179100884Y-193721900D01*
X179100884Y-193721900D02*
X179172312Y-193650471D01*
X179172312Y-193650471D02*
X179243741Y-193507614D01*
X179243741Y-193507614D02*
X179243741Y-193364757D01*
X179243741Y-193364757D02*
X179172312Y-193221900D01*
X179172312Y-193221900D02*
X179100884Y-193150471D01*
X179100884Y-193150471D02*
X178958026Y-193079042D01*
X178958026Y-193079042D02*
X178672312Y-193007614D01*
X178672312Y-193007614D02*
X178529455Y-192936185D01*
X178529455Y-192936185D02*
X178458026Y-192864757D01*
X178458026Y-192864757D02*
X178386598Y-192721900D01*
X178386598Y-192721900D02*
X178386598Y-192579042D01*
X178386598Y-192579042D02*
X178458026Y-192436185D01*
X178458026Y-192436185D02*
X178529455Y-192364757D01*
X178529455Y-192364757D02*
X178672312Y-192293328D01*
X178672312Y-192293328D02*
X179029455Y-192293328D01*
X179029455Y-192293328D02*
X179243741Y-192364757D01*
X179886597Y-193793328D02*
X179886597Y-192793328D01*
X179886597Y-192293328D02*
X179815169Y-192364757D01*
X179815169Y-192364757D02*
X179886597Y-192436185D01*
X179886597Y-192436185D02*
X179958026Y-192364757D01*
X179958026Y-192364757D02*
X179886597Y-192293328D01*
X179886597Y-192293328D02*
X179886597Y-192436185D01*
X180458026Y-192793328D02*
X181243741Y-192793328D01*
X181243741Y-192793328D02*
X180458026Y-193793328D01*
X180458026Y-193793328D02*
X181243741Y-193793328D01*
X182386598Y-193721900D02*
X182243741Y-193793328D01*
X182243741Y-193793328D02*
X181958027Y-193793328D01*
X181958027Y-193793328D02*
X181815169Y-193721900D01*
X181815169Y-193721900D02*
X181743741Y-193579042D01*
X181743741Y-193579042D02*
X181743741Y-193007614D01*
X181743741Y-193007614D02*
X181815169Y-192864757D01*
X181815169Y-192864757D02*
X181958027Y-192793328D01*
X181958027Y-192793328D02*
X182243741Y-192793328D01*
X182243741Y-192793328D02*
X182386598Y-192864757D01*
X182386598Y-192864757D02*
X182458027Y-193007614D01*
X182458027Y-193007614D02*
X182458027Y-193150471D01*
X182458027Y-193150471D02*
X181743741Y-193293328D01*
X183100883Y-193650471D02*
X183172312Y-193721900D01*
X183172312Y-193721900D02*
X183100883Y-193793328D01*
X183100883Y-193793328D02*
X183029455Y-193721900D01*
X183029455Y-193721900D02*
X183100883Y-193650471D01*
X183100883Y-193650471D02*
X183100883Y-193793328D01*
X183100883Y-192864757D02*
X183172312Y-192936185D01*
X183172312Y-192936185D02*
X183100883Y-193007614D01*
X183100883Y-193007614D02*
X183029455Y-192936185D01*
X183029455Y-192936185D02*
X183100883Y-192864757D01*
X183100883Y-192864757D02*
X183100883Y-193007614D01*
X184886598Y-193364757D02*
X185600884Y-193364757D01*
X184743741Y-193793328D02*
X185243741Y-192293328D01*
X185243741Y-192293328D02*
X185743741Y-193793328D01*
X186886598Y-192793328D02*
X186886598Y-193793328D01*
X186529455Y-192221900D02*
X186172312Y-193293328D01*
X186172312Y-193293328D02*
X187100883Y-193293328D01*
D10*
D11*
X263458026Y-196593328D02*
X263458026Y-195093328D01*
X264815170Y-196593328D02*
X264815170Y-195093328D01*
X264815170Y-196521900D02*
X264672312Y-196593328D01*
X264672312Y-196593328D02*
X264386598Y-196593328D01*
X264386598Y-196593328D02*
X264243741Y-196521900D01*
X264243741Y-196521900D02*
X264172312Y-196450471D01*
X264172312Y-196450471D02*
X264100884Y-196307614D01*
X264100884Y-196307614D02*
X264100884Y-195879042D01*
X264100884Y-195879042D02*
X264172312Y-195736185D01*
X264172312Y-195736185D02*
X264243741Y-195664757D01*
X264243741Y-195664757D02*
X264386598Y-195593328D01*
X264386598Y-195593328D02*
X264672312Y-195593328D01*
X264672312Y-195593328D02*
X264815170Y-195664757D01*
X265529455Y-196450471D02*
X265600884Y-196521900D01*
X265600884Y-196521900D02*
X265529455Y-196593328D01*
X265529455Y-196593328D02*
X265458027Y-196521900D01*
X265458027Y-196521900D02*
X265529455Y-196450471D01*
X265529455Y-196450471D02*
X265529455Y-196593328D01*
X265529455Y-195664757D02*
X265600884Y-195736185D01*
X265600884Y-195736185D02*
X265529455Y-195807614D01*
X265529455Y-195807614D02*
X265458027Y-195736185D01*
X265458027Y-195736185D02*
X265529455Y-195664757D01*
X265529455Y-195664757D02*
X265529455Y-195807614D01*
X268172313Y-196593328D02*
X267315170Y-196593328D01*
X267743741Y-196593328D02*
X267743741Y-195093328D01*
X267743741Y-195093328D02*
X267600884Y-195307614D01*
X267600884Y-195307614D02*
X267458027Y-195450471D01*
X267458027Y-195450471D02*
X267315170Y-195521900D01*
X269886598Y-195021900D02*
X268600884Y-196950471D01*
X271172313Y-196593328D02*
X270315170Y-196593328D01*
X270743741Y-196593328D02*
X270743741Y-195093328D01*
X270743741Y-195093328D02*
X270600884Y-195307614D01*
X270600884Y-195307614D02*
X270458027Y-195450471D01*
X270458027Y-195450471D02*
X270315170Y-195521900D01*
D10*
D11*
X177002200Y-187507200D02*
X285002200Y-187507200D01*
D10*
D13*
X178693928Y-188211638D02*
X179836785Y-188211638D01*
X179015357Y-190211638D02*
X179265357Y-188211638D01*
X180253452Y-190211638D02*
X180420119Y-188878304D01*
X180503452Y-188211638D02*
X180396309Y-188306876D01*
X180396309Y-188306876D02*
X180479643Y-188402114D01*
X180479643Y-188402114D02*
X180586786Y-188306876D01*
X180586786Y-188306876D02*
X180503452Y-188211638D01*
X180503452Y-188211638D02*
X180479643Y-188402114D01*
X181086786Y-188878304D02*
X181848690Y-188878304D01*
X181455833Y-188211638D02*
X181241548Y-189925923D01*
X181241548Y-189925923D02*
X181312976Y-190116400D01*
X181312976Y-190116400D02*
X181491548Y-190211638D01*
X181491548Y-190211638D02*
X181682024Y-190211638D01*
X182634405Y-190211638D02*
X182455833Y-190116400D01*
X182455833Y-190116400D02*
X182384405Y-189925923D01*
X182384405Y-189925923D02*
X182598690Y-188211638D01*
X184170119Y-190116400D02*
X183967738Y-190211638D01*
X183967738Y-190211638D02*
X183586785Y-190211638D01*
X183586785Y-190211638D02*
X183408214Y-190116400D01*
X183408214Y-190116400D02*
X183336785Y-189925923D01*
X183336785Y-189925923D02*
X183432024Y-189164019D01*
X183432024Y-189164019D02*
X183551071Y-188973542D01*
X183551071Y-188973542D02*
X183753452Y-188878304D01*
X183753452Y-188878304D02*
X184134404Y-188878304D01*
X184134404Y-188878304D02*
X184312976Y-188973542D01*
X184312976Y-188973542D02*
X184384404Y-189164019D01*
X184384404Y-189164019D02*
X184360595Y-189354495D01*
X184360595Y-189354495D02*
X183384404Y-189544971D01*
X185134405Y-190021161D02*
X185217738Y-190116400D01*
X185217738Y-190116400D02*
X185110595Y-190211638D01*
X185110595Y-190211638D02*
X185027262Y-190116400D01*
X185027262Y-190116400D02*
X185134405Y-190021161D01*
X185134405Y-190021161D02*
X185110595Y-190211638D01*
X185265357Y-188973542D02*
X185348690Y-189068780D01*
X185348690Y-189068780D02*
X185241548Y-189164019D01*
X185241548Y-189164019D02*
X185158214Y-189068780D01*
X185158214Y-189068780D02*
X185265357Y-188973542D01*
X185265357Y-188973542D02*
X185241548Y-189164019D01*
D10*
D11*
X178958026Y-185607614D02*
X178458026Y-185607614D01*
X178458026Y-186393328D02*
X178458026Y-184893328D01*
X178458026Y-184893328D02*
X179172312Y-184893328D01*
X179743740Y-186393328D02*
X179743740Y-185393328D01*
X179743740Y-184893328D02*
X179672312Y-184964757D01*
X179672312Y-184964757D02*
X179743740Y-185036185D01*
X179743740Y-185036185D02*
X179815169Y-184964757D01*
X179815169Y-184964757D02*
X179743740Y-184893328D01*
X179743740Y-184893328D02*
X179743740Y-185036185D01*
X180672312Y-186393328D02*
X180529455Y-186321900D01*
X180529455Y-186321900D02*
X180458026Y-186179042D01*
X180458026Y-186179042D02*
X180458026Y-184893328D01*
X181815169Y-186321900D02*
X181672312Y-186393328D01*
X181672312Y-186393328D02*
X181386598Y-186393328D01*
X181386598Y-186393328D02*
X181243740Y-186321900D01*
X181243740Y-186321900D02*
X181172312Y-186179042D01*
X181172312Y-186179042D02*
X181172312Y-185607614D01*
X181172312Y-185607614D02*
X181243740Y-185464757D01*
X181243740Y-185464757D02*
X181386598Y-185393328D01*
X181386598Y-185393328D02*
X181672312Y-185393328D01*
X181672312Y-185393328D02*
X181815169Y-185464757D01*
X181815169Y-185464757D02*
X181886598Y-185607614D01*
X181886598Y-185607614D02*
X181886598Y-185750471D01*
X181886598Y-185750471D02*
X181172312Y-185893328D01*
X182529454Y-186250471D02*
X182600883Y-186321900D01*
X182600883Y-186321900D02*
X182529454Y-186393328D01*
X182529454Y-186393328D02*
X182458026Y-186321900D01*
X182458026Y-186321900D02*
X182529454Y-186250471D01*
X182529454Y-186250471D02*
X182529454Y-186393328D01*
X182529454Y-185464757D02*
X182600883Y-185536185D01*
X182600883Y-185536185D02*
X182529454Y-185607614D01*
X182529454Y-185607614D02*
X182458026Y-185536185D01*
X182458026Y-185536185D02*
X182529454Y-185464757D01*
X182529454Y-185464757D02*
X182529454Y-185607614D01*
X184172312Y-184893328D02*
X185029455Y-184893328D01*
X184600883Y-186393328D02*
X184600883Y-184893328D01*
X185529454Y-186393328D02*
X185529454Y-184893328D01*
X186172312Y-186393328D02*
X186172312Y-185607614D01*
X186172312Y-185607614D02*
X186100883Y-185464757D01*
X186100883Y-185464757D02*
X185958026Y-185393328D01*
X185958026Y-185393328D02*
X185743740Y-185393328D01*
X185743740Y-185393328D02*
X185600883Y-185464757D01*
X185600883Y-185464757D02*
X185529454Y-185536185D01*
X187100883Y-186393328D02*
X186958026Y-186321900D01*
X186958026Y-186321900D02*
X186886597Y-186250471D01*
X186886597Y-186250471D02*
X186815169Y-186107614D01*
X186815169Y-186107614D02*
X186815169Y-185679042D01*
X186815169Y-185679042D02*
X186886597Y-185536185D01*
X186886597Y-185536185D02*
X186958026Y-185464757D01*
X186958026Y-185464757D02*
X187100883Y-185393328D01*
X187100883Y-185393328D02*
X187315169Y-185393328D01*
X187315169Y-185393328D02*
X187458026Y-185464757D01*
X187458026Y-185464757D02*
X187529455Y-185536185D01*
X187529455Y-185536185D02*
X187600883Y-185679042D01*
X187600883Y-185679042D02*
X187600883Y-186107614D01*
X187600883Y-186107614D02*
X187529455Y-186250471D01*
X187529455Y-186250471D02*
X187458026Y-186321900D01*
X187458026Y-186321900D02*
X187315169Y-186393328D01*
X187315169Y-186393328D02*
X187100883Y-186393328D01*
X188243740Y-186393328D02*
X188243740Y-185393328D01*
X188243740Y-185536185D02*
X188315169Y-185464757D01*
X188315169Y-185464757D02*
X188458026Y-185393328D01*
X188458026Y-185393328D02*
X188672312Y-185393328D01*
X188672312Y-185393328D02*
X188815169Y-185464757D01*
X188815169Y-185464757D02*
X188886598Y-185607614D01*
X188886598Y-185607614D02*
X188886598Y-186393328D01*
X188886598Y-185607614D02*
X188958026Y-185464757D01*
X188958026Y-185464757D02*
X189100883Y-185393328D01*
X189100883Y-185393328D02*
X189315169Y-185393328D01*
X189315169Y-185393328D02*
X189458026Y-185464757D01*
X189458026Y-185464757D02*
X189529455Y-185607614D01*
X189529455Y-185607614D02*
X189529455Y-186393328D01*
X190886598Y-186393328D02*
X190886598Y-185607614D01*
X190886598Y-185607614D02*
X190815169Y-185464757D01*
X190815169Y-185464757D02*
X190672312Y-185393328D01*
X190672312Y-185393328D02*
X190386598Y-185393328D01*
X190386598Y-185393328D02*
X190243740Y-185464757D01*
X190886598Y-186321900D02*
X190743740Y-186393328D01*
X190743740Y-186393328D02*
X190386598Y-186393328D01*
X190386598Y-186393328D02*
X190243740Y-186321900D01*
X190243740Y-186321900D02*
X190172312Y-186179042D01*
X190172312Y-186179042D02*
X190172312Y-186036185D01*
X190172312Y-186036185D02*
X190243740Y-185893328D01*
X190243740Y-185893328D02*
X190386598Y-185821900D01*
X190386598Y-185821900D02*
X190743740Y-185821900D01*
X190743740Y-185821900D02*
X190886598Y-185750471D01*
X191529455Y-186321900D02*
X191672312Y-186393328D01*
X191672312Y-186393328D02*
X191958026Y-186393328D01*
X191958026Y-186393328D02*
X192100883Y-186321900D01*
X192100883Y-186321900D02*
X192172312Y-186179042D01*
X192172312Y-186179042D02*
X192172312Y-186107614D01*
X192172312Y-186107614D02*
X192100883Y-185964757D01*
X192100883Y-185964757D02*
X191958026Y-185893328D01*
X191958026Y-185893328D02*
X191743741Y-185893328D01*
X191743741Y-185893328D02*
X191600883Y-185821900D01*
X191600883Y-185821900D02*
X191529455Y-185679042D01*
X191529455Y-185679042D02*
X191529455Y-185607614D01*
X191529455Y-185607614D02*
X191600883Y-185464757D01*
X191600883Y-185464757D02*
X191743741Y-185393328D01*
X191743741Y-185393328D02*
X191958026Y-185393328D01*
X191958026Y-185393328D02*
X192100883Y-185464757D01*
X192815169Y-185821900D02*
X193958027Y-185821900D01*
X194672312Y-186393328D02*
X194672312Y-184893328D01*
X194672312Y-185607614D02*
X195529455Y-185607614D01*
X195529455Y-186393328D02*
X195529455Y-184893328D01*
X196815170Y-186321900D02*
X196672313Y-186393328D01*
X196672313Y-186393328D02*
X196386599Y-186393328D01*
X196386599Y-186393328D02*
X196243741Y-186321900D01*
X196243741Y-186321900D02*
X196172313Y-186179042D01*
X196172313Y-186179042D02*
X196172313Y-185607614D01*
X196172313Y-185607614D02*
X196243741Y-185464757D01*
X196243741Y-185464757D02*
X196386599Y-185393328D01*
X196386599Y-185393328D02*
X196672313Y-185393328D01*
X196672313Y-185393328D02*
X196815170Y-185464757D01*
X196815170Y-185464757D02*
X196886599Y-185607614D01*
X196886599Y-185607614D02*
X196886599Y-185750471D01*
X196886599Y-185750471D02*
X196172313Y-185893328D01*
X197529455Y-185393328D02*
X197529455Y-186393328D01*
X197529455Y-185536185D02*
X197600884Y-185464757D01*
X197600884Y-185464757D02*
X197743741Y-185393328D01*
X197743741Y-185393328D02*
X197958027Y-185393328D01*
X197958027Y-185393328D02*
X198100884Y-185464757D01*
X198100884Y-185464757D02*
X198172313Y-185607614D01*
X198172313Y-185607614D02*
X198172313Y-186393328D01*
X198886598Y-186393328D02*
X198886598Y-185393328D01*
X198886598Y-185679042D02*
X198958027Y-185536185D01*
X198958027Y-185536185D02*
X199029456Y-185464757D01*
X199029456Y-185464757D02*
X199172313Y-185393328D01*
X199172313Y-185393328D02*
X199315170Y-185393328D01*
X199672312Y-185393328D02*
X200029455Y-186393328D01*
X200386598Y-185393328D02*
X200029455Y-186393328D01*
X200029455Y-186393328D02*
X199886598Y-186750471D01*
X199886598Y-186750471D02*
X199815169Y-186821900D01*
X199815169Y-186821900D02*
X199672312Y-186893328D01*
X200958026Y-185821900D02*
X202100884Y-185821900D01*
X202600884Y-184893328D02*
X203100884Y-186393328D01*
X203100884Y-186393328D02*
X203600884Y-184893328D01*
X204958026Y-186250471D02*
X204886598Y-186321900D01*
X204886598Y-186321900D02*
X204672312Y-186393328D01*
X204672312Y-186393328D02*
X204529455Y-186393328D01*
X204529455Y-186393328D02*
X204315169Y-186321900D01*
X204315169Y-186321900D02*
X204172312Y-186179042D01*
X204172312Y-186179042D02*
X204100883Y-186036185D01*
X204100883Y-186036185D02*
X204029455Y-185750471D01*
X204029455Y-185750471D02*
X204029455Y-185536185D01*
X204029455Y-185536185D02*
X204100883Y-185250471D01*
X204100883Y-185250471D02*
X204172312Y-185107614D01*
X204172312Y-185107614D02*
X204315169Y-184964757D01*
X204315169Y-184964757D02*
X204529455Y-184893328D01*
X204529455Y-184893328D02*
X204672312Y-184893328D01*
X204672312Y-184893328D02*
X204886598Y-184964757D01*
X204886598Y-184964757D02*
X204958026Y-185036185D01*
X205886598Y-184893328D02*
X206172312Y-184893328D01*
X206172312Y-184893328D02*
X206315169Y-184964757D01*
X206315169Y-184964757D02*
X206458026Y-185107614D01*
X206458026Y-185107614D02*
X206529455Y-185393328D01*
X206529455Y-185393328D02*
X206529455Y-185893328D01*
X206529455Y-185893328D02*
X206458026Y-186179042D01*
X206458026Y-186179042D02*
X206315169Y-186321900D01*
X206315169Y-186321900D02*
X206172312Y-186393328D01*
X206172312Y-186393328D02*
X205886598Y-186393328D01*
X205886598Y-186393328D02*
X205743741Y-186321900D01*
X205743741Y-186321900D02*
X205600883Y-186179042D01*
X205600883Y-186179042D02*
X205529455Y-185893328D01*
X205529455Y-185893328D02*
X205529455Y-185393328D01*
X205529455Y-185393328D02*
X205600883Y-185107614D01*
X205600883Y-185107614D02*
X205743741Y-184964757D01*
X205743741Y-184964757D02*
X205886598Y-184893328D01*
X207029455Y-185393328D02*
X207386598Y-186393328D01*
X207386598Y-186393328D02*
X207743741Y-185393328D01*
X208243741Y-185036185D02*
X208315169Y-184964757D01*
X208315169Y-184964757D02*
X208458027Y-184893328D01*
X208458027Y-184893328D02*
X208815169Y-184893328D01*
X208815169Y-184893328D02*
X208958027Y-184964757D01*
X208958027Y-184964757D02*
X209029455Y-185036185D01*
X209029455Y-185036185D02*
X209100884Y-185179042D01*
X209100884Y-185179042D02*
X209100884Y-185321900D01*
X209100884Y-185321900D02*
X209029455Y-185536185D01*
X209029455Y-185536185D02*
X208172312Y-186393328D01*
X208172312Y-186393328D02*
X209100884Y-186393328D01*
X209743740Y-186250471D02*
X209815169Y-186321900D01*
X209815169Y-186321900D02*
X209743740Y-186393328D01*
X209743740Y-186393328D02*
X209672312Y-186321900D01*
X209672312Y-186321900D02*
X209743740Y-186250471D01*
X209743740Y-186250471D02*
X209743740Y-186393328D01*
X210458026Y-186393328D02*
X210458026Y-184893328D01*
X210600884Y-185821900D02*
X211029455Y-186393328D01*
X211029455Y-185393328D02*
X210458026Y-185964757D01*
X211672312Y-186393328D02*
X211672312Y-185393328D01*
X211672312Y-184893328D02*
X211600884Y-184964757D01*
X211600884Y-184964757D02*
X211672312Y-185036185D01*
X211672312Y-185036185D02*
X211743741Y-184964757D01*
X211743741Y-184964757D02*
X211672312Y-184893328D01*
X211672312Y-184893328D02*
X211672312Y-185036185D01*
X213029456Y-186321900D02*
X212886598Y-186393328D01*
X212886598Y-186393328D02*
X212600884Y-186393328D01*
X212600884Y-186393328D02*
X212458027Y-186321900D01*
X212458027Y-186321900D02*
X212386598Y-186250471D01*
X212386598Y-186250471D02*
X212315170Y-186107614D01*
X212315170Y-186107614D02*
X212315170Y-185679042D01*
X212315170Y-185679042D02*
X212386598Y-185536185D01*
X212386598Y-185536185D02*
X212458027Y-185464757D01*
X212458027Y-185464757D02*
X212600884Y-185393328D01*
X212600884Y-185393328D02*
X212886598Y-185393328D01*
X212886598Y-185393328D02*
X213029456Y-185464757D01*
X214315170Y-186393328D02*
X214315170Y-185607614D01*
X214315170Y-185607614D02*
X214243741Y-185464757D01*
X214243741Y-185464757D02*
X214100884Y-185393328D01*
X214100884Y-185393328D02*
X213815170Y-185393328D01*
X213815170Y-185393328D02*
X213672312Y-185464757D01*
X214315170Y-186321900D02*
X214172312Y-186393328D01*
X214172312Y-186393328D02*
X213815170Y-186393328D01*
X213815170Y-186393328D02*
X213672312Y-186321900D01*
X213672312Y-186321900D02*
X213600884Y-186179042D01*
X213600884Y-186179042D02*
X213600884Y-186036185D01*
X213600884Y-186036185D02*
X213672312Y-185893328D01*
X213672312Y-185893328D02*
X213815170Y-185821900D01*
X213815170Y-185821900D02*
X214172312Y-185821900D01*
X214172312Y-185821900D02*
X214315170Y-185750471D01*
X215672313Y-186393328D02*
X215672313Y-184893328D01*
X215672313Y-186321900D02*
X215529455Y-186393328D01*
X215529455Y-186393328D02*
X215243741Y-186393328D01*
X215243741Y-186393328D02*
X215100884Y-186321900D01*
X215100884Y-186321900D02*
X215029455Y-186250471D01*
X215029455Y-186250471D02*
X214958027Y-186107614D01*
X214958027Y-186107614D02*
X214958027Y-185679042D01*
X214958027Y-185679042D02*
X215029455Y-185536185D01*
X215029455Y-185536185D02*
X215100884Y-185464757D01*
X215100884Y-185464757D02*
X215243741Y-185393328D01*
X215243741Y-185393328D02*
X215529455Y-185393328D01*
X215529455Y-185393328D02*
X215672313Y-185464757D01*
X216029456Y-186536185D02*
X217172313Y-186536185D01*
X217529455Y-185393328D02*
X217529455Y-186893328D01*
X217529455Y-185464757D02*
X217672313Y-185393328D01*
X217672313Y-185393328D02*
X217958027Y-185393328D01*
X217958027Y-185393328D02*
X218100884Y-185464757D01*
X218100884Y-185464757D02*
X218172313Y-185536185D01*
X218172313Y-185536185D02*
X218243741Y-185679042D01*
X218243741Y-185679042D02*
X218243741Y-186107614D01*
X218243741Y-186107614D02*
X218172313Y-186250471D01*
X218172313Y-186250471D02*
X218100884Y-186321900D01*
X218100884Y-186321900D02*
X217958027Y-186393328D01*
X217958027Y-186393328D02*
X217672313Y-186393328D01*
X217672313Y-186393328D02*
X217529455Y-186321900D01*
X219529456Y-186321900D02*
X219386598Y-186393328D01*
X219386598Y-186393328D02*
X219100884Y-186393328D01*
X219100884Y-186393328D02*
X218958027Y-186321900D01*
X218958027Y-186321900D02*
X218886598Y-186250471D01*
X218886598Y-186250471D02*
X218815170Y-186107614D01*
X218815170Y-186107614D02*
X218815170Y-185679042D01*
X218815170Y-185679042D02*
X218886598Y-185536185D01*
X218886598Y-185536185D02*
X218958027Y-185464757D01*
X218958027Y-185464757D02*
X219100884Y-185393328D01*
X219100884Y-185393328D02*
X219386598Y-185393328D01*
X219386598Y-185393328D02*
X219529456Y-185464757D01*
X220172312Y-186393328D02*
X220172312Y-184893328D01*
X220172312Y-185464757D02*
X220315170Y-185393328D01*
X220315170Y-185393328D02*
X220600884Y-185393328D01*
X220600884Y-185393328D02*
X220743741Y-185464757D01*
X220743741Y-185464757D02*
X220815170Y-185536185D01*
X220815170Y-185536185D02*
X220886598Y-185679042D01*
X220886598Y-185679042D02*
X220886598Y-186107614D01*
X220886598Y-186107614D02*
X220815170Y-186250471D01*
X220815170Y-186250471D02*
X220743741Y-186321900D01*
X220743741Y-186321900D02*
X220600884Y-186393328D01*
X220600884Y-186393328D02*
X220315170Y-186393328D01*
X220315170Y-186393328D02*
X220172312Y-186321900D01*
D10*
D11*
X177002200Y-181507200D02*
X285002200Y-181507200D01*
D10*
D11*
X178386598Y-183621900D02*
X178600884Y-183693328D01*
X178600884Y-183693328D02*
X178958026Y-183693328D01*
X178958026Y-183693328D02*
X179100884Y-183621900D01*
X179100884Y-183621900D02*
X179172312Y-183550471D01*
X179172312Y-183550471D02*
X179243741Y-183407614D01*
X179243741Y-183407614D02*
X179243741Y-183264757D01*
X179243741Y-183264757D02*
X179172312Y-183121900D01*
X179172312Y-183121900D02*
X179100884Y-183050471D01*
X179100884Y-183050471D02*
X178958026Y-182979042D01*
X178958026Y-182979042D02*
X178672312Y-182907614D01*
X178672312Y-182907614D02*
X178529455Y-182836185D01*
X178529455Y-182836185D02*
X178458026Y-182764757D01*
X178458026Y-182764757D02*
X178386598Y-182621900D01*
X178386598Y-182621900D02*
X178386598Y-182479042D01*
X178386598Y-182479042D02*
X178458026Y-182336185D01*
X178458026Y-182336185D02*
X178529455Y-182264757D01*
X178529455Y-182264757D02*
X178672312Y-182193328D01*
X178672312Y-182193328D02*
X179029455Y-182193328D01*
X179029455Y-182193328D02*
X179243741Y-182264757D01*
X179886597Y-183693328D02*
X179886597Y-182193328D01*
X180529455Y-183693328D02*
X180529455Y-182907614D01*
X180529455Y-182907614D02*
X180458026Y-182764757D01*
X180458026Y-182764757D02*
X180315169Y-182693328D01*
X180315169Y-182693328D02*
X180100883Y-182693328D01*
X180100883Y-182693328D02*
X179958026Y-182764757D01*
X179958026Y-182764757D02*
X179886597Y-182836185D01*
X181815169Y-183621900D02*
X181672312Y-183693328D01*
X181672312Y-183693328D02*
X181386598Y-183693328D01*
X181386598Y-183693328D02*
X181243740Y-183621900D01*
X181243740Y-183621900D02*
X181172312Y-183479042D01*
X181172312Y-183479042D02*
X181172312Y-182907614D01*
X181172312Y-182907614D02*
X181243740Y-182764757D01*
X181243740Y-182764757D02*
X181386598Y-182693328D01*
X181386598Y-182693328D02*
X181672312Y-182693328D01*
X181672312Y-182693328D02*
X181815169Y-182764757D01*
X181815169Y-182764757D02*
X181886598Y-182907614D01*
X181886598Y-182907614D02*
X181886598Y-183050471D01*
X181886598Y-183050471D02*
X181172312Y-183193328D01*
X183100883Y-183621900D02*
X182958026Y-183693328D01*
X182958026Y-183693328D02*
X182672312Y-183693328D01*
X182672312Y-183693328D02*
X182529454Y-183621900D01*
X182529454Y-183621900D02*
X182458026Y-183479042D01*
X182458026Y-183479042D02*
X182458026Y-182907614D01*
X182458026Y-182907614D02*
X182529454Y-182764757D01*
X182529454Y-182764757D02*
X182672312Y-182693328D01*
X182672312Y-182693328D02*
X182958026Y-182693328D01*
X182958026Y-182693328D02*
X183100883Y-182764757D01*
X183100883Y-182764757D02*
X183172312Y-182907614D01*
X183172312Y-182907614D02*
X183172312Y-183050471D01*
X183172312Y-183050471D02*
X182458026Y-183193328D01*
X183600883Y-182693328D02*
X184172311Y-182693328D01*
X183815168Y-182193328D02*
X183815168Y-183479042D01*
X183815168Y-183479042D02*
X183886597Y-183621900D01*
X183886597Y-183621900D02*
X184029454Y-183693328D01*
X184029454Y-183693328D02*
X184172311Y-183693328D01*
X184672311Y-183550471D02*
X184743740Y-183621900D01*
X184743740Y-183621900D02*
X184672311Y-183693328D01*
X184672311Y-183693328D02*
X184600883Y-183621900D01*
X184600883Y-183621900D02*
X184672311Y-183550471D01*
X184672311Y-183550471D02*
X184672311Y-183693328D01*
X184672311Y-182764757D02*
X184743740Y-182836185D01*
X184743740Y-182836185D02*
X184672311Y-182907614D01*
X184672311Y-182907614D02*
X184600883Y-182836185D01*
X184600883Y-182836185D02*
X184672311Y-182764757D01*
X184672311Y-182764757D02*
X184672311Y-182907614D01*
D10*
D11*
X197002200Y-191507200D02*
X197002200Y-194507200D01*
D10*
D11*
X261002200Y-191507200D02*
X261002200Y-198007200D01*
D14*
X171670977Y-50940013D02*
X173480098Y-51200155D01*
X143554347Y-99275381D02*
X142972752Y-98127978D01*
X135326600Y-65748358D02*
X136379292Y-64325523D01*
X145491648Y-106011754D02*
X144591239Y-104955137D01*
X138304440Y-83651886D02*
X138508295Y-82210443D01*
X164826462Y-57738422D02*
X166311508Y-57638456D01*
X146180732Y-99241457D02*
X145600372Y-98223569D01*
X163061967Y-55627104D02*
X164642715Y-55439755D01*
X142838322Y-89169527D02*
X142752886Y-87947731D01*
X145485214Y-112400139D02*
X144281571Y-111332104D01*
X147673035Y-62410493D02*
X148882518Y-61475720D01*
X141728631Y-78742144D02*
X142169187Y-77501617D01*
X140877076Y-99079291D02*
X140305577Y-97798787D01*
X189598977Y-61208964D02*
X190843948Y-62314212D01*
X153730984Y-63763189D02*
X154871084Y-63114931D01*
X134589987Y-101933255D02*
X133884110Y-100343469D01*
X144721251Y-77168303D02*
X145219243Y-76073142D01*
X150282192Y-57787980D02*
X151715606Y-56976768D01*
X186409921Y-95864705D02*
X185974434Y-96798393D01*
X196927224Y-100523049D02*
X196248886Y-101960484D01*
X136126577Y-91272650D02*
X135942330Y-89720768D01*
X141009209Y-103962169D02*
X140205569Y-102690226D01*
X157946225Y-66712236D02*
X158943227Y-66263921D01*
X147222443Y-104501438D02*
X146393497Y-103530149D01*
X143740735Y-103856484D02*
X142942101Y-102717686D01*
X137874755Y-75844691D02*
X138461850Y-74424303D01*
X198303817Y-102992916D02*
X197505002Y-104491683D01*
X167992446Y-115690497D02*
X167992446Y-115690497D01*
X183101810Y-107565364D02*
X182113987Y-108331600D01*
X174402123Y-65626120D02*
X175458007Y-65998855D01*
X180745270Y-63409831D02*
X181892313Y-64090445D01*
X160089117Y-112505608D02*
X158850788Y-112134300D01*
X140001357Y-106529157D02*
X139076307Y-105206657D01*
X156030142Y-67746590D02*
X156974704Y-67206969D01*
X188423609Y-73558235D02*
X189091076Y-74603898D01*
X192736994Y-86500406D02*
X192736994Y-86500406D01*
X148154314Y-117194647D02*
X146718490Y-116243372D01*
X129689972Y-78895602D02*
X130108969Y-77102637D01*
X189329782Y-94654950D02*
X188947358Y-95737211D01*
X139834838Y-71685676D02*
X140616580Y-70371764D01*
X137134729Y-95782429D02*
X136724901Y-94305518D01*
X130108969Y-77102637D02*
X130612738Y-75347690D01*
X153372968Y-69619500D02*
X154227798Y-68954384D01*
X204286710Y-88068741D02*
X204212175Y-89951814D01*
X182330732Y-113705914D02*
X181043976Y-114435650D01*
X128922160Y-88348211D02*
X128922160Y-88348211D01*
X199652362Y-86300166D02*
X199652362Y-86300166D01*
X159473824Y-114725189D02*
X158127840Y-114320260D01*
X143779414Y-93877799D02*
X143457534Y-92730744D01*
X180907550Y-122130689D02*
X179200600Y-122789709D01*
X138412837Y-90973439D02*
X138240996Y-89537020D01*
X188146483Y-109211009D02*
X187072405Y-110215873D01*
X195700848Y-107361347D02*
X194700109Y-108727440D01*
X148020085Y-65131040D02*
X149098035Y-64212765D01*
X131868237Y-71961277D02*
X132616790Y-70334524D01*
X199990244Y-70472906D02*
X200795195Y-72072594D01*
X150523024Y-66015026D02*
X151555178Y-65215083D01*
X191092713Y-59464138D02*
X192420340Y-60643812D01*
X155516804Y-113318214D02*
X154255683Y-112724874D01*
X184973440Y-98593203D02*
X184410736Y-99451426D01*
X172023388Y-124570076D02*
X170153981Y-124788435D01*
X192361670Y-71141585D02*
X193135888Y-72366085D01*
X145857950Y-109661714D02*
X144784543Y-108616621D01*
X192884797Y-107319779D02*
X191891842Y-108550775D01*
X201912424Y-89785394D02*
X201753281Y-91532274D01*
X156043614Y-62520926D02*
X157246798Y-61983022D01*
X169671697Y-53071930D02*
X171389916Y-53228178D01*
X169235242Y-113295096D02*
X167925697Y-113385376D01*
X197582572Y-108679689D02*
X196515426Y-110135106D01*
X188278011Y-57297279D02*
X189711096Y-58347823D01*
X157736169Y-59322800D02*
X159103151Y-58868001D01*
X168059190Y-117995618D02*
X168059190Y-117995618D01*
X192512808Y-111310140D02*
X191330847Y-112521943D01*
X201506127Y-93256546D02*
X201173265Y-94955809D01*
X169838117Y-50772180D02*
X171670977Y-50940013D01*
X200524969Y-77746763D02*
X200978767Y-79388603D01*
X189090926Y-79850656D02*
X189450479Y-80921148D01*
X185570052Y-58258814D02*
X186959667Y-59179003D01*
X149010683Y-106320964D02*
X148095441Y-105432289D01*
X148432372Y-71038823D02*
X149208929Y-70132747D01*
X189738663Y-110866474D02*
X188582740Y-111946690D01*
X146209834Y-57736321D02*
X147647148Y-56732261D01*
X145788039Y-81237968D02*
X146100508Y-80188032D01*
X163660388Y-60199620D02*
X165010209Y-60037087D01*
X157404888Y-116506232D02*
X155979714Y-115997858D01*
X146807497Y-69665030D02*
X147670864Y-68688686D01*
X148095441Y-105432289D02*
X147222443Y-104501438D01*
X146100508Y-80188032D02*
X146463554Y-79158526D01*
X166681091Y-108797049D02*
X165580938Y-108761037D01*
X173325275Y-65305245D02*
X174402123Y-65626120D01*
X134230313Y-106139042D02*
X133324045Y-104534525D01*
X183808428Y-100281595D02*
X183167919Y-101082261D01*
X135727523Y-75016225D02*
X136358354Y-73492625D01*
X135006042Y-70972380D02*
X135831484Y-69424547D01*
X174757301Y-53798140D02*
X176401742Y-54207328D01*
X187751698Y-84795577D02*
X188006882Y-85650200D01*
X129046318Y-90272010D02*
X128922160Y-88348211D01*
X179441386Y-104592314D02*
X178601091Y-105185523D01*
X164748842Y-120259710D02*
X163087942Y-120109255D01*
X172213254Y-115186207D02*
X170826545Y-115425020D01*
X147546178Y-59606025D02*
X148891641Y-58665173D01*
X166428936Y-120324267D02*
X164748842Y-120259710D01*
X198537386Y-96012364D02*
X198073624Y-97546745D01*
X187160752Y-75814841D02*
X187713953Y-76783845D01*
X169172437Y-59971159D02*
X170546739Y-60092643D01*
X188402227Y-105563336D02*
X187501648Y-106581006D01*
X184629940Y-117689410D02*
X183147639Y-118527781D01*
X150960674Y-107964833D02*
X149966363Y-107165725D01*
X136222072Y-104989433D02*
X135370122Y-103482689D01*
X194508092Y-74926562D02*
X195101987Y-76258612D01*
X154255683Y-112724874D02*
X153026780Y-112072506D01*
X197370359Y-87917445D02*
X197312932Y-89452553D01*
X192139054Y-99895630D02*
X191500000Y-101100000D01*
X145320736Y-83393011D02*
X145527622Y-82306804D01*
X144999420Y-61669414D02*
X146248030Y-60608212D01*
X169051500Y-110996435D02*
X167858956Y-111080256D01*
X151715606Y-56976768D02*
X153189659Y-56233859D01*
X157833391Y-54438179D02*
X159447743Y-53991709D01*
X194246097Y-80963382D02*
X194547098Y-82299412D01*
X140305577Y-97798787D02*
X139795775Y-96487577D01*
X146000493Y-67112322D02*
X146986929Y-66098227D01*
X167832746Y-57615419D02*
X169338857Y-57671420D01*
X204041446Y-91813334D02*
X203776975Y-93650738D01*
X140592588Y-83932945D02*
X140779120Y-82604633D01*
X160338509Y-117311466D02*
X158858528Y-116944780D01*
X138969121Y-93780591D02*
X138656200Y-92388592D01*
X182081398Y-53801065D02*
X183695149Y-54564399D01*
X152238334Y-54138152D02*
X153853894Y-53421077D01*
X201957482Y-86233420D02*
X201981258Y-88018309D01*
X159927681Y-51127286D02*
X161942760Y-50897191D01*
X141213333Y-93255667D02*
X140924251Y-91975606D01*
X197811963Y-76879891D02*
X198310053Y-78381643D01*
X152953739Y-103676195D02*
X152163363Y-102980279D01*
X131439962Y-82808708D02*
X131695775Y-81027870D01*
X204212175Y-89951814D02*
X204041446Y-91813334D01*
X190147028Y-107057049D02*
X189172024Y-108157373D01*
X203223002Y-78863674D02*
X203619349Y-80647463D01*
X195381489Y-111538240D02*
X194183209Y-112886531D01*
X174281859Y-112291170D02*
X173052341Y-112635038D01*
X165838251Y-54123022D02*
X165725885Y-57237989D01*
X159447743Y-53991709D02*
X161091606Y-53625155D01*
X182662713Y-56619336D02*
X184136947Y-57404838D01*
X185623663Y-101689210D02*
X184912666Y-102575939D01*
X143760842Y-107522081D02*
X142788970Y-106380135D01*
X182515867Y-67267345D02*
X183479434Y-68043498D01*
X191441891Y-66204265D02*
X192449495Y-67388877D01*
X166178015Y-53028215D02*
X167933609Y-53004522D01*
X184323000Y-62942424D02*
X185488118Y-63793749D01*
X168059190Y-117995618D02*
X166479363Y-118018817D01*
X193401121Y-68620526D02*
X194294567Y-69897100D01*
X186141872Y-70627609D02*
X186947183Y-71568330D01*
X198310053Y-78381643D02*
X198734537Y-79913530D01*
X185641330Y-61060718D02*
X186895770Y-61978450D01*
X151555178Y-65215083D02*
X152625090Y-64463855D01*
X161007774Y-65512658D02*
X162072366Y-65212768D01*
X187881201Y-90891405D02*
X187685769Y-91921882D01*
X188303429Y-60163140D02*
X189598977Y-61208964D01*
X166244761Y-55333335D02*
X167883177Y-55309972D01*
X138461850Y-74424303D02*
X139115903Y-73037244D01*
X198073624Y-97546745D02*
X197536186Y-99051055D01*
X190208868Y-84256096D02*
X190349679Y-85403857D01*
X136388142Y-92801579D02*
X136126577Y-91272650D01*
X187312428Y-118715712D02*
X185779546Y-119681169D01*
X176972504Y-116248848D02*
X175551614Y-116720964D01*
X169418992Y-115593759D02*
X167992446Y-115690497D01*
X155287877Y-108069232D02*
X154283862Y-107475298D01*
X164582422Y-122559459D02*
X162806883Y-122397418D01*
X198580475Y-107174551D02*
X197582572Y-108679689D01*
X169602736Y-117892425D02*
X168059190Y-117995618D01*
X137695619Y-66460996D02*
X138729561Y-65050241D01*
X199652362Y-86300166D02*
X199675808Y-87967877D01*
X203776975Y-93650738D02*
X203421212Y-95461467D01*
X147480063Y-101183848D02*
X146807845Y-100228746D01*
X197347241Y-86366913D02*
X197370359Y-87917445D01*
X200259612Y-98269699D02*
X199683422Y-99879522D01*
X146875702Y-78150978D02*
X147335474Y-77166916D01*
X151158398Y-118889646D02*
X149635097Y-118077517D01*
X129267778Y-92170283D02*
X129046318Y-90272010D01*
X142874186Y-84207463D02*
X143038566Y-82987454D01*
X133966620Y-81422062D02*
X134288033Y-79778532D01*
X147841395Y-76207870D02*
X148391988Y-75275368D01*
X199675808Y-87967877D02*
X199612677Y-89618975D01*
X173052341Y-112635038D02*
X171800265Y-112918160D01*
X183147639Y-118527781D02*
X181623333Y-119295507D01*
X168259432Y-124910981D02*
X168259432Y-124910981D01*
X195101987Y-76258612D02*
X195631686Y-77622587D01*
X167858956Y-111080256D02*
X166630664Y-111102485D01*
X137060976Y-72004814D02*
X137833165Y-70555114D01*
X155958984Y-120878206D02*
X154322783Y-120292328D01*
X192422793Y-91679784D02*
X192181544Y-92933187D01*
X192713453Y-89119714D02*
X192600663Y-90408037D01*
X174744434Y-109708076D02*
X173646989Y-110076288D01*
X138672695Y-69145847D02*
X139577340Y-67779337D01*
X142659718Y-63959567D02*
X143802574Y-62787306D01*
X167858956Y-111080256D02*
X167858956Y-111080256D01*
X171903333Y-60283506D02*
X173240334Y-60541935D01*
X144281571Y-111332104D02*
X143129081Y-110208801D01*
X190349679Y-85403857D02*
X190431884Y-86567152D01*
X189711096Y-58347823D02*
X191092713Y-59464138D01*
X173865203Y-124258463D02*
X172023388Y-124570076D01*
X142770761Y-85442036D02*
X142874186Y-84207463D01*
X163697985Y-62224259D02*
X164930132Y-62071925D01*
X169505277Y-55371677D02*
X171108857Y-55516339D01*
X133532402Y-88214718D02*
X133508792Y-86488418D01*
X138240996Y-89537020D02*
X138142644Y-88081225D01*
X194183209Y-112886531D02*
X192923037Y-114177418D01*
X165377702Y-64634407D02*
X166511747Y-64553818D01*
X161942760Y-50897191D02*
X164004485Y-50761675D01*
X172487457Y-62542623D02*
X173700396Y-62845522D01*
X166529797Y-115713371D02*
X165081680Y-115660223D01*
X131227281Y-88281464D02*
X131227281Y-88281464D01*
X147164052Y-96225371D02*
X146726936Y-95254141D01*
X163025280Y-110791784D02*
X161855475Y-110567715D01*
X201523468Y-73713928D02*
X202172540Y-75394494D01*
X190431884Y-86567152D02*
X190431884Y-86567152D01*
X153057965Y-109419139D02*
X151991811Y-108716551D01*
X185575226Y-82391828D02*
X186272973Y-82868157D01*
X177500606Y-66893852D02*
X178484184Y-67413086D01*
X138699278Y-61652824D02*
X139963394Y-60407673D01*
X141294808Y-59226463D02*
X142691931Y-58111551D01*
X142788970Y-106380135D02*
X141871051Y-105192818D01*
X151790089Y-121732204D02*
X150125961Y-120944585D01*
X177017042Y-51987717D02*
X178739823Y-52510311D01*
X141031822Y-81295499D02*
X141348917Y-80007387D01*
X149621286Y-73496110D02*
X150297039Y-72652413D01*
X151832061Y-111362998D02*
X150673490Y-110598238D01*
X174395808Y-78080558D02*
X175496726Y-78655186D01*
X189659063Y-93551188D02*
X189329782Y-94654950D01*
X196317787Y-95397064D02*
X195887644Y-96823790D01*
X194294567Y-69897100D02*
X195127628Y-71216486D01*
X179720686Y-115104107D02*
X178362862Y-115709201D01*
X190788603Y-77922610D02*
X191246741Y-79083553D01*
X164416000Y-124859209D02*
X162525821Y-124685584D01*
X167468058Y-61962484D02*
X168744405Y-62009280D01*
X186800199Y-94908760D02*
X186409921Y-95864705D01*
X193451418Y-78365281D02*
X193880241Y-79651401D01*
X165010209Y-60037087D02*
X166378254Y-59943577D01*
X145460325Y-91149638D02*
X145271581Y-90075811D01*
X183931662Y-81605580D02*
X185575226Y-82391828D01*
X135435221Y-97972970D02*
X134919816Y-96417309D01*
X149966363Y-107165725D02*
X149010683Y-106320964D01*
X156771680Y-64393349D02*
X157862875Y-63891341D01*
X173012118Y-107861424D02*
X172002500Y-108146654D01*
X141976037Y-95744885D02*
X141564530Y-94512672D01*
X181043976Y-114435650D02*
X179720686Y-115104107D01*
X164258806Y-64772113D02*
X165377702Y-64634407D01*
X192759464Y-87816582D02*
X192713453Y-89119714D01*
X178940333Y-110343568D02*
X177818056Y-110912755D01*
X154140980Y-58329558D02*
X155550351Y-57702068D01*
X144153174Y-57065293D02*
X145676950Y-56090047D01*
X155092300Y-60425248D02*
X156398577Y-59842550D01*
X189661753Y-71293190D02*
X190428783Y-72386064D01*
X171424968Y-119997541D02*
X169786489Y-120191093D01*
X141871051Y-105192818D02*
X141009209Y-103962169D01*
X142691931Y-58111551D02*
X144153174Y-57065293D01*
X179992154Y-112389601D02*
X178769371Y-113008423D01*
X166511747Y-64553818D02*
X167681450Y-64531747D01*
X154322783Y-120292328D02*
X152721773Y-119628695D01*
X166180418Y-61984115D02*
X167468058Y-61962484D01*
X148905743Y-54362016D02*
X150607583Y-53613944D01*
X145068412Y-97176671D02*
X144586501Y-96102351D01*
X170228127Y-110852520D02*
X169051500Y-110996435D01*
X174555856Y-60866115D02*
X175848012Y-61254233D01*
X152365601Y-52946309D02*
X154178209Y-52361470D01*
X186611529Y-64698592D02*
X187691190Y-65654989D01*
X150297039Y-72652413D02*
X151011560Y-71841374D01*
X193636662Y-110044505D02*
X192512808Y-111310140D01*
X196964446Y-92468162D02*
X196677388Y-93944494D01*
X160678618Y-51357087D02*
X162463545Y-51054573D01*
X144156285Y-95002197D02*
X143779414Y-93877799D01*
X190428783Y-72386064D02*
X191144159Y-73515679D01*
X193691455Y-61884431D02*
X194903539Y-63183583D01*
X152581393Y-61771463D02*
X153819263Y-61068887D01*
X191515716Y-95377895D02*
X191094537Y-96565667D01*
X189450479Y-80921148D02*
X189757700Y-82013227D01*
X180428782Y-53115565D02*
X182081398Y-53801065D01*
X184406174Y-68863433D02*
X185294261Y-69725390D01*
X177888525Y-108297546D02*
X176866753Y-108817097D01*
X199382967Y-74562158D02*
X199992249Y-76137194D01*
X167872935Y-70716448D02*
X168608909Y-72223113D01*
X162806883Y-122397418D02*
X161054328Y-122145935D01*
X133643661Y-89904515D02*
X133532402Y-88214718D01*
X164212178Y-110956661D02*
X163025280Y-110791784D01*
X181265214Y-69239568D02*
X182130428Y-69932943D01*
X147698420Y-71980875D02*
X148432372Y-71038823D01*
X129357334Y-80724228D02*
X129689972Y-78895602D01*
X153310122Y-106834881D02*
X152368305Y-106149569D01*
X131852012Y-93627554D02*
X131554047Y-91871071D01*
X167925697Y-113385376D02*
X167925697Y-113385376D01*
X169786489Y-120191093D02*
X168125942Y-120300739D01*
X199992249Y-76137194D02*
X200524969Y-77746763D01*
X158922815Y-51747476D02*
X160678618Y-51357087D01*
X160660134Y-124416784D02*
X158821539Y-124055294D01*
X162485509Y-62439333D02*
X163697985Y-62224259D01*
X141348917Y-80007387D02*
X141728631Y-78742144D01*
X173085905Y-53471002D02*
X174757301Y-53798140D01*
X140447765Y-88014478D02*
X140425134Y-86639713D01*
X181149714Y-55904571D02*
X182662713Y-56619336D01*
X149380235Y-115250755D02*
X148036829Y-114361652D01*
X142729817Y-86689386D02*
X142770761Y-85442036D01*
X196095143Y-79016523D02*
X196490313Y-80438457D01*
X140299204Y-110542757D02*
X139184405Y-109230149D01*
X189708947Y-75681022D02*
X190275397Y-76787846D01*
X142942101Y-102717686D02*
X142197303Y-101540628D01*
X142985340Y-90375019D02*
X142838322Y-89169527D01*
X176401742Y-54207328D02*
X178016866Y-54696304D01*
X170527332Y-113138768D02*
X169235242Y-113295096D01*
X150663773Y-54930695D02*
X152238334Y-54138152D01*
X145073455Y-85611427D02*
X145168855Y-84495062D01*
X181777899Y-102589286D02*
X181031191Y-103292746D01*
X177209448Y-64104926D02*
X178329796Y-64635763D01*
X136728801Y-67919925D02*
X137695619Y-66460996D01*
X154702124Y-55561576D02*
X156250776Y-54962242D01*
X198160389Y-67408115D02*
X199111135Y-68917275D01*
X161504594Y-55893219D02*
X163061967Y-55627104D01*
X146509756Y-63400231D02*
X147673035Y-62410493D01*
X145394755Y-64442771D02*
X146509756Y-63400231D01*
X173452217Y-121990392D02*
X171724179Y-122283807D01*
X139349634Y-95147549D02*
X138969121Y-93780591D01*
X180251886Y-103960905D02*
X179441386Y-104592314D01*
X139828253Y-63690142D02*
X140989320Y-62383179D01*
X190151992Y-91285594D02*
X189933650Y-92427533D01*
X138781389Y-100030610D02*
X138165097Y-98647013D01*
X178329796Y-64635763D02*
X179422436Y-65219183D01*
X181676839Y-105763124D02*
X180777679Y-106461946D01*
X194903539Y-63183583D02*
X196054070Y-64538857D01*
X131743607Y-101191701D02*
X131074639Y-99458369D01*
X158981384Y-63443151D02*
X160125679Y-63050563D01*
X199544329Y-84668870D02*
X199652362Y-86300166D01*
X135831484Y-69424547D02*
X136728801Y-67919925D01*
X161091606Y-53625155D02*
X162762756Y-53340840D01*
X138174263Y-85112167D02*
X138304440Y-83651886D01*
X150683986Y-101480850D02*
X149997961Y-100680214D01*
X136909740Y-78776797D02*
X137356693Y-77296244D01*
X139795775Y-96487577D02*
X139349634Y-95147549D01*
X143192294Y-91562621D02*
X142985340Y-90375019D01*
X150765663Y-116075838D02*
X149380235Y-115250755D01*
X192923037Y-114177418D02*
X191603423Y-115408340D01*
X163419465Y-108520988D02*
X162361123Y-108319829D01*
X171108857Y-55516339D02*
X172691714Y-55741844D01*
X198699486Y-73023920D02*
X199382967Y-74562158D01*
X140989320Y-62383179D02*
X142210387Y-61131835D01*
X192412410Y-75877877D02*
X192961512Y-77106835D01*
X164275220Y-50842414D02*
X166111268Y-50723093D01*
X138508295Y-82210443D02*
X138783901Y-80789844D01*
X146364447Y-73965765D02*
X147008602Y-72957117D01*
X152767436Y-59022832D02*
X154140980Y-58329558D01*
X133532402Y-88214718D02*
X133532402Y-88214718D01*
X199083214Y-81473439D02*
X199353879Y-83059256D01*
X178601091Y-105185523D02*
X177732404Y-105739083D01*
X148145383Y-111595411D02*
X146978938Y-110655323D01*
X178362862Y-115709201D02*
X176972504Y-116248848D01*
X177514640Y-113568724D02*
X176229812Y-114068579D01*
X183480336Y-115697659D02*
X182095808Y-116481712D01*
X197312932Y-89452553D02*
X197176961Y-90970154D01*
X195388958Y-98222586D02*
X194823731Y-99591368D01*
X188795668Y-117680048D02*
X187312428Y-118715712D01*
X154283862Y-107475298D02*
X153310122Y-106834881D01*
X179600311Y-55262806D02*
X181149714Y-55904571D01*
X135170709Y-76573291D02*
X135727523Y-75016225D01*
X160125679Y-63050563D02*
X161294230Y-62715363D01*
X182130428Y-69932943D02*
X182962129Y-70666069D01*
X167883177Y-55309972D02*
X169505277Y-55371677D01*
X186947183Y-71568330D02*
X187708370Y-72545792D01*
X177456260Y-123365719D02*
X175676977Y-123856157D01*
X169928915Y-108566281D02*
X168867749Y-108697779D01*
X157198509Y-52223258D02*
X158922815Y-51747476D01*
X187980279Y-69224916D02*
X188844957Y-70238870D01*
X197242473Y-75410387D02*
X197811963Y-76879891D01*
X189757700Y-82013227D02*
X190011019Y-83125381D01*
X185922445Y-73965815D02*
X186563060Y-74874993D01*
X198925323Y-94450152D02*
X198537386Y-96012364D01*
X136024607Y-99495240D02*
X135435221Y-97972970D01*
X150218853Y-63345407D02*
X151380614Y-62530972D01*
X184080472Y-65609038D02*
X185117816Y-66443391D01*
X167792204Y-108775135D02*
X166681091Y-108797049D01*
X135874521Y-84945747D02*
X136016286Y-83370827D01*
X143922399Y-117041351D02*
X142497748Y-115889790D01*
X185779546Y-119681169D02*
X184199473Y-120573858D01*
X133728126Y-83089767D02*
X133966620Y-81422062D01*
X179211092Y-117849690D02*
X177715205Y-118429128D01*
X161448519Y-119875090D02*
X159832855Y-119559404D01*
X173039230Y-119722325D02*
X171424968Y-119997541D01*
X138131655Y-107865501D02*
X137143397Y-106451149D01*
X166479363Y-118018817D02*
X164915258Y-117959964D01*
X148891641Y-58665173D02*
X150282192Y-57787980D01*
X192600663Y-90408037D02*
X192422793Y-91679784D01*
X155151250Y-118145090D02*
X153653453Y-117525193D01*
X148882518Y-61475720D02*
X150136130Y-60598077D01*
X167933609Y-53004522D02*
X169671697Y-53071930D01*
X196227474Y-68652610D02*
X197119377Y-70066883D01*
X144874981Y-101473211D02*
X144189026Y-100391038D01*
X144275039Y-78288733D02*
X144721251Y-77168303D01*
X172002500Y-108146654D02*
X170974299Y-108382089D01*
X183167919Y-101082261D02*
X182490608Y-101851975D01*
X133884110Y-100343469D02*
X133254933Y-98715668D01*
X144504317Y-72823583D02*
X145222448Y-71734324D01*
X152551001Y-70323389D02*
X153372968Y-69619500D01*
X190647221Y-68813877D02*
X191531432Y-69956861D01*
X184136947Y-57404838D02*
X185570052Y-58258814D01*
X161855475Y-110567715D02*
X160704410Y-110286044D01*
X200756993Y-96627661D02*
X200259612Y-98269699D01*
X145168855Y-84495062D02*
X145320736Y-83393011D01*
X157012637Y-123603604D02*
X155236028Y-123064201D01*
X178457903Y-120609416D02*
X176821380Y-121150795D01*
X145610407Y-102520161D02*
X144874981Y-101473211D01*
X183004675Y-64824119D02*
X184080472Y-65609038D01*
X155509745Y-105531482D02*
X154628419Y-104953235D01*
X157380142Y-109111293D02*
X156320519Y-108615093D01*
X158243234Y-119164383D02*
X156681938Y-118692216D01*
X197505002Y-104491683D02*
X196636579Y-105948627D01*
X153026780Y-112072506D02*
X151832061Y-111362998D01*
X139129334Y-79392093D02*
X139542668Y-78019195D01*
X199683422Y-99879522D02*
X199030724Y-101454729D01*
X166111268Y-50723093D02*
X166111268Y-50723093D01*
X170316182Y-74726589D02*
X171267751Y-75751002D01*
X195127628Y-71216486D02*
X195898102Y-72576571D01*
X188725055Y-66660978D02*
X189711080Y-67714595D01*
X165580938Y-108761037D02*
X164493233Y-108668537D01*
X180218035Y-58008069D02*
X181630282Y-58674264D01*
X155979714Y-115997858D02*
X154585129Y-115421697D01*
X191647987Y-80268915D02*
X191990517Y-81476937D01*
X188513341Y-96796363D02*
X188029283Y-97830799D01*
X159832855Y-119559404D02*
X158243234Y-119164383D01*
X138783901Y-80789844D02*
X139129334Y-79392093D01*
X189267565Y-63984605D02*
X190380514Y-65068803D01*
X160704410Y-110286044D02*
X159573735Y-109948357D01*
X142030026Y-109032417D02*
X140986691Y-107805140D01*
X153775921Y-104334326D02*
X152953739Y-103676195D01*
X178016866Y-54696304D02*
X179600311Y-55262806D01*
X201134231Y-102386411D02*
X200358755Y-104025351D01*
X194823731Y-99591368D02*
X194193964Y-100928052D01*
X145036014Y-86740578D02*
X145073455Y-85611427D01*
X144591239Y-104955137D02*
X143740735Y-103856484D01*
X186795977Y-56314919D02*
X188278011Y-57297279D01*
X188114017Y-88786874D02*
X188024417Y-89845919D01*
X204262603Y-86166673D02*
X204286710Y-88068741D01*
X146439997Y-107024449D02*
X145491648Y-106011754D01*
X171724179Y-122283807D02*
X169970236Y-122489764D01*
X199030724Y-101454729D02*
X198303817Y-102992916D01*
X185117816Y-66443391D02*
X186114823Y-67325364D01*
X184051767Y-106754283D02*
X183101810Y-107565364D01*
X133254933Y-98715668D02*
X132704896Y-97052190D01*
X148036829Y-114361652D02*
X146737728Y-113410718D01*
X184823444Y-114849887D02*
X183480336Y-115697659D01*
X159293545Y-107409078D02*
X158311799Y-107007865D01*
X197536186Y-99051055D02*
X196927224Y-100523049D01*
X173240334Y-60541935D02*
X174555856Y-60866115D01*
X180597856Y-60729183D02*
X181875824Y-61408178D01*
X204262603Y-86166673D02*
X204262603Y-86166673D01*
X195013192Y-89286134D02*
X194888810Y-90689096D01*
X192420340Y-60643812D02*
X193691455Y-61884431D01*
X153819263Y-61068887D02*
X155092300Y-60425248D01*
X149635097Y-118077517D02*
X148154314Y-117194647D01*
X191990517Y-81476937D02*
X192272507Y-82705857D01*
X165764307Y-60081794D02*
X165943650Y-62668239D01*
X180059321Y-119990186D02*
X178457903Y-120609416D01*
X144823019Y-58805924D02*
X146209834Y-57736321D01*
X144189026Y-100391038D02*
X143554347Y-99275381D01*
X163931116Y-113244797D02*
X162631087Y-113062595D01*
X148472655Y-108910518D02*
X147434321Y-107991333D01*
X151011560Y-71841374D02*
X151763373Y-71064524D01*
X171387285Y-110650119D02*
X170228127Y-110852520D01*
X146463554Y-79158526D02*
X146875702Y-78150978D01*
X189172024Y-108157373D02*
X188146483Y-109211009D01*
X140924251Y-91975606D02*
X140699092Y-90674229D01*
X189711080Y-67714595D02*
X190647221Y-68813877D01*
X187376796Y-112972159D02*
X186122980Y-113940639D01*
X192181544Y-92933187D02*
X191878618Y-94166480D01*
X166580227Y-113407926D02*
X165248098Y-113360487D01*
X194781360Y-83657677D02*
X194946996Y-85036364D01*
X168192688Y-122605860D02*
X168192688Y-122605860D01*
X168867749Y-108697779D02*
X167792204Y-108775135D01*
X200978767Y-79388603D02*
X201351279Y-81060451D01*
X148985777Y-74370938D02*
X149621286Y-73496110D01*
X171267751Y-75751002D02*
X172271456Y-76642267D01*
X136237461Y-81816253D02*
X136535971Y-80284188D01*
X159738028Y-61082899D02*
X161022521Y-60724373D01*
X132704896Y-97052190D02*
X132236442Y-95355373D01*
X167792204Y-108775135D02*
X167792204Y-108775135D01*
X180485543Y-65853427D02*
X181517295Y-66536735D01*
X133508792Y-86488418D02*
X133574775Y-84779327D01*
X196515426Y-110135106D02*
X195381489Y-111538240D01*
X152368305Y-106149569D02*
X151460059Y-105420949D01*
X135942330Y-89720768D02*
X135837523Y-88147971D01*
X150125961Y-120944585D02*
X148504528Y-120079203D01*
X152721773Y-119628695D02*
X151158398Y-118889646D01*
X174001751Y-107527849D02*
X173012118Y-107861424D01*
X145990766Y-70680858D02*
X146807497Y-69665030D01*
X194547098Y-82299412D02*
X194781360Y-83657677D01*
X166111268Y-50723093D02*
X165838251Y-54123022D01*
X131275026Y-84612907D02*
X131439962Y-82808708D01*
X154178209Y-52361470D02*
X156043817Y-51861782D01*
X143340757Y-70416002D02*
X144175481Y-69273214D01*
X150026562Y-69264429D02*
X150883742Y-68435656D01*
X131554047Y-91871071D02*
X131344990Y-90088262D01*
X143838150Y-73946787D02*
X144504317Y-72823583D01*
X172271456Y-76642267D02*
X173317430Y-77414185D01*
X187069606Y-68253143D02*
X187980279Y-69224916D01*
X133324045Y-104534525D02*
X132494276Y-102884582D01*
X163361178Y-57913364D02*
X164826462Y-57738422D01*
X132984718Y-75850336D02*
X133580284Y-74187756D01*
X177114918Y-61704478D02*
X178354687Y-62215034D01*
X194888810Y-90689096D02*
X194693617Y-92073973D01*
X166378505Y-122629718D02*
X164582422Y-122559459D01*
X163368997Y-117821095D02*
X161842706Y-117604250D01*
X163650058Y-115532943D02*
X162236898Y-115333419D01*
X184410736Y-99451426D02*
X183808428Y-100281595D01*
X140447765Y-88014478D02*
X140447765Y-88014478D01*
X176063216Y-63628434D02*
X177209448Y-64104926D01*
X137504048Y-62959559D02*
X138699278Y-61652824D01*
X197140527Y-65947838D02*
X198160389Y-67408115D01*
X171125753Y-117711278D02*
X169602736Y-117892425D01*
X184160934Y-103428304D02*
X183370018Y-104244695D01*
X204141671Y-84301375D02*
X204262603Y-86166673D01*
X188844957Y-70238870D02*
X189661753Y-71293190D01*
X140986691Y-107805140D02*
X140001357Y-106529157D01*
X138142644Y-88081225D02*
X138119689Y-86589281D01*
X142752886Y-87947731D02*
X142752886Y-87947731D01*
X185267516Y-55403155D02*
X186795977Y-56314919D01*
X151406283Y-102248018D02*
X150683986Y-101480850D01*
X143457534Y-92730744D02*
X143192294Y-91562621D01*
X187685769Y-91921882D02*
X187439524Y-92935899D01*
X190055723Y-103406348D02*
X189254202Y-104504475D01*
X195631686Y-77622587D02*
X196095143Y-79016523D01*
X158468271Y-56653093D02*
X159972670Y-56235937D01*
X158821539Y-124055294D02*
X157012637Y-123603604D01*
X166178015Y-53028215D02*
X166178015Y-53028215D01*
X191500000Y-101100000D02*
X190804939Y-102270881D01*
X196603785Y-73975242D02*
X197242473Y-75410387D01*
X133840314Y-91571860D02*
X133643661Y-89904515D01*
X179422436Y-65219183D02*
X180485543Y-65853427D01*
X149750871Y-103840144D02*
X148953224Y-102991136D01*
X140205569Y-102690226D02*
X139462254Y-101379027D01*
X164458967Y-53141086D02*
X166178015Y-53028215D01*
X176229812Y-114068579D02*
X174916738Y-114506061D01*
X162631087Y-113062595D02*
X161349819Y-112815620D01*
X197944169Y-71524740D02*
X198699486Y-73023920D01*
X167992446Y-115690497D02*
X166529797Y-115713371D01*
X135370122Y-103482689D02*
X134589987Y-101933255D01*
X159327198Y-121807347D02*
X157627937Y-121383991D01*
X142752886Y-87947731D02*
X142729817Y-86689386D01*
X150606150Y-113306870D02*
X149355162Y-112479939D01*
X170974299Y-108382089D02*
X169928915Y-108566281D01*
X162463545Y-51054573D02*
X164275220Y-50842414D01*
X149098035Y-64212765D02*
X150218853Y-63345407D01*
X191069493Y-105912120D02*
X190147028Y-107057049D01*
X145222448Y-71734324D02*
X145990766Y-70680858D01*
X196054070Y-64538857D02*
X197140527Y-65947838D01*
X192449495Y-67388877D02*
X193401121Y-68620526D01*
X132494276Y-102884582D02*
X131743607Y-101191701D01*
X139963394Y-60407673D02*
X141294808Y-59226463D01*
X156993473Y-57142525D02*
X158468271Y-56653093D01*
X164493233Y-108668537D02*
X163419465Y-108520988D01*
X137615502Y-97230273D02*
X137134729Y-95782429D01*
X201640144Y-82760045D02*
X201842999Y-84485123D01*
X185488118Y-63793749D02*
X186611529Y-64698592D01*
X175848012Y-61254233D02*
X177114918Y-61704478D01*
X178881970Y-107730765D02*
X177888525Y-108297546D01*
X155288104Y-110669974D02*
X154157332Y-110070859D01*
X195270820Y-67284185D02*
X196227474Y-68652610D01*
X171800265Y-112918160D02*
X170527332Y-113138768D01*
X135837523Y-88147971D02*
X135837523Y-88147971D01*
X190275397Y-76787846D02*
X190788603Y-77922610D01*
X201830665Y-100707992D02*
X201134231Y-102386411D01*
X173646989Y-110076288D02*
X172527422Y-110390839D01*
X141128793Y-114672904D02*
X139818135Y-113393179D01*
X181031191Y-103292746D02*
X180251886Y-103960905D01*
X182574657Y-121391218D02*
X180907550Y-122130689D01*
X188947358Y-95737211D02*
X188513341Y-96796363D01*
X179565432Y-62784090D02*
X180745270Y-63409831D01*
X192720252Y-98659696D02*
X192139054Y-99895630D01*
X154677350Y-65551682D02*
X155709328Y-64947391D01*
X160497597Y-58480159D02*
X161917581Y-58161278D01*
X145527622Y-82306804D02*
X145788039Y-81237968D01*
X176821380Y-121150795D02*
X175152051Y-121611921D01*
X142972752Y-98127978D02*
X142446046Y-96950566D01*
X166254049Y-65011126D02*
X166685640Y-67124255D01*
X196636579Y-105948627D02*
X195700848Y-107361347D01*
X151991811Y-108716551D02*
X150960674Y-107964833D01*
X191805997Y-74680221D02*
X192412410Y-75877877D01*
X143802574Y-62787306D02*
X144999420Y-61669414D01*
X139184405Y-109230149D02*
X138131655Y-107865501D01*
X172229029Y-65037743D02*
X173325275Y-65305245D01*
X173317430Y-77414185D02*
X174395808Y-78080558D01*
X201753281Y-91532274D02*
X201506127Y-93256546D01*
X168744405Y-62009280D02*
X170007637Y-62122742D01*
X157862875Y-63891341D02*
X158981384Y-63443151D01*
X149530403Y-66861838D02*
X150523024Y-66015026D01*
X143882136Y-79432647D02*
X144275039Y-78288733D01*
X145058007Y-87880985D02*
X145058007Y-87880985D01*
X168125942Y-120300739D02*
X168125942Y-120300739D01*
X152710626Y-66903876D02*
X153677273Y-66204438D01*
X169338857Y-57671420D02*
X170827798Y-57804494D01*
X188801804Y-114774445D02*
X187459323Y-115810340D01*
X197245661Y-84852617D02*
X197347241Y-86366913D01*
X145767484Y-75005035D02*
X146364447Y-73965765D01*
X181892313Y-64090445D02*
X183004675Y-64824119D01*
X146718490Y-116243372D02*
X145330066Y-115226031D01*
X170826545Y-115425020D02*
X169418992Y-115593759D01*
X172626238Y-117454263D02*
X171125753Y-117711278D01*
X156043817Y-51861782D02*
X157960837Y-51449601D01*
X131203340Y-86437986D02*
X131275026Y-84612907D01*
X162330567Y-60429331D02*
X163660388Y-60199620D01*
X185495140Y-97708376D02*
X184973440Y-98593203D01*
X189933650Y-92427533D02*
X189659063Y-93551188D01*
X142169187Y-77501617D02*
X142668809Y-76287651D01*
X183450311Y-110201265D02*
X182334475Y-110984097D01*
X201173265Y-94955809D02*
X200756993Y-96627661D01*
X195503325Y-103361118D02*
X194692689Y-104722707D01*
X154227798Y-68954384D02*
X155114015Y-68329572D01*
X201957482Y-86233420D02*
X201957482Y-86233420D01*
X199235284Y-92862355D02*
X198925323Y-94450152D01*
X201351279Y-81060451D02*
X201640144Y-82760045D01*
X175818205Y-109287809D02*
X174744434Y-109708076D01*
X142668809Y-76287651D02*
X143225722Y-75102092D01*
X134288033Y-79778532D02*
X134690137Y-78161501D01*
X136685692Y-100981931D02*
X136024607Y-99495240D01*
X165943650Y-62668239D02*
X166254049Y-65011126D01*
X128957496Y-84479037D02*
X129112646Y-82586159D01*
X147434321Y-107991333D02*
X146439997Y-107024449D01*
X193241743Y-97394125D02*
X192720252Y-98659696D01*
X138729561Y-65050241D02*
X139828253Y-63690142D01*
X195898102Y-72576571D02*
X196603785Y-73975242D01*
X148195739Y-102105174D02*
X147480063Y-101183848D01*
X155550351Y-57702068D02*
X156993473Y-57142525D01*
X186895770Y-61978450D02*
X188105250Y-62953783D01*
X167782314Y-59920865D02*
X169172437Y-59971159D01*
X169426613Y-73555226D02*
X170316182Y-74726589D01*
X163087942Y-120109255D02*
X161448519Y-119875090D01*
X138656200Y-92388592D02*
X138412837Y-90973439D01*
X143544070Y-80598262D02*
X143882136Y-79432647D01*
X136379292Y-64325523D02*
X137504048Y-62959559D01*
X184962157Y-105900123D02*
X184051767Y-106754283D01*
X134347560Y-67225708D02*
X135326600Y-65748358D01*
X156974704Y-67206969D02*
X157946225Y-66712236D01*
X156398577Y-59842550D02*
X157736169Y-59322800D01*
X186272973Y-82868157D02*
X186874878Y-83418357D01*
X178771844Y-57410040D02*
X180218035Y-58008069D01*
X140779120Y-82604633D02*
X141031822Y-81295499D01*
X182023109Y-80949202D02*
X183931662Y-81605580D01*
X146737728Y-113410718D02*
X145485214Y-112400139D01*
X193880241Y-79651401D02*
X194246097Y-80963382D01*
X161917581Y-58161278D02*
X163361178Y-57913364D01*
X188680608Y-78803266D02*
X189090926Y-79850656D01*
X139115903Y-73037244D02*
X139834838Y-71685676D01*
X199111135Y-68917275D02*
X199990244Y-70472906D01*
X183578954Y-112916985D02*
X182330732Y-113705914D01*
X187708370Y-72545792D02*
X188423609Y-73558235D01*
X141473611Y-111800987D02*
X140299204Y-110542757D01*
X186122980Y-113940639D02*
X184823444Y-114849887D01*
X175262960Y-51550194D02*
X177017042Y-51987717D01*
X151431794Y-59779726D02*
X152767436Y-59022832D01*
X187501648Y-106581006D02*
X186554316Y-107555560D01*
X156681938Y-118692216D02*
X155151250Y-118145090D01*
X188029283Y-97830799D02*
X187496736Y-98838909D01*
X131695775Y-81027870D02*
X132040088Y-79272874D01*
X145600372Y-98223569D02*
X145068412Y-97176671D01*
X194946996Y-85036364D02*
X195042120Y-86433659D01*
X157246798Y-61983022D02*
X158478861Y-61503065D01*
X188126763Y-86633899D02*
X188126763Y-86633899D01*
X183006383Y-59406513D02*
X184344133Y-60202702D01*
X172297524Y-58012679D02*
X173745990Y-58294011D01*
X196248886Y-101960484D02*
X195503325Y-103361118D01*
X177732404Y-105739083D02*
X176836725Y-106251546D01*
X192492132Y-83953915D02*
X192647569Y-85219352D01*
X145676950Y-56090047D02*
X147261669Y-55188169D01*
X181630282Y-58674264D02*
X183006383Y-59406513D01*
X186114823Y-67325364D02*
X187069606Y-68253143D01*
X190093079Y-113677511D02*
X188801804Y-114774445D01*
X138165097Y-98647013D02*
X137615502Y-97230273D01*
X192647569Y-85219352D02*
X192736994Y-86500406D01*
X143225722Y-75102092D02*
X143838150Y-73946787D01*
X154871084Y-63114931D02*
X156043614Y-62520926D01*
X166311508Y-57638456D02*
X167832746Y-57615419D01*
X141508307Y-100327201D02*
X140877076Y-99079291D01*
X141459053Y-69097672D02*
X142360183Y-67865562D01*
X146978938Y-110655323D02*
X145857950Y-109661714D01*
X157960837Y-51449601D02*
X159927681Y-51127286D01*
X140425134Y-86639713D02*
X140474000Y-85278587D01*
X143262370Y-81783792D02*
X143544070Y-80598262D01*
X148953224Y-102991136D02*
X148195739Y-102105174D01*
X159972670Y-56235937D02*
X161504594Y-55893219D01*
X179286360Y-60111557D02*
X180597856Y-60729183D01*
X183370018Y-104244695D02*
X182541469Y-105023504D01*
X180672010Y-117199803D02*
X179211092Y-117849690D01*
X142497748Y-115889790D02*
X141128793Y-114672904D01*
X194098198Y-94781771D02*
X193701675Y-96100842D01*
X185240476Y-73088819D02*
X185922445Y-73965815D01*
X186874878Y-83418357D02*
X187371074Y-84056230D01*
X142197303Y-101540628D02*
X141508307Y-100327201D01*
X132040088Y-79272874D02*
X132470528Y-77546203D01*
X183758750Y-71437433D02*
X184518722Y-72245521D01*
X164642715Y-55439755D02*
X166244761Y-55333335D01*
X167925697Y-113385376D02*
X166580227Y-113407926D01*
X156808178Y-113850639D02*
X155516804Y-113318214D01*
X149997961Y-100680214D02*
X149349699Y-99847549D01*
X179845539Y-107118362D02*
X178881970Y-107730765D01*
X199353879Y-83059256D02*
X199544329Y-84668870D01*
X136261947Y-109201850D02*
X135210480Y-107695646D01*
X138119689Y-86589281D02*
X138174263Y-85112167D01*
X181875824Y-61408178D02*
X183118221Y-62146579D01*
X202172540Y-75394494D02*
X202739892Y-77111880D01*
X136724901Y-94305518D02*
X136388142Y-92801579D01*
X182334475Y-110984097D02*
X181181139Y-111714184D01*
X181181139Y-111714184D02*
X179992154Y-112389601D01*
X188024417Y-89845919D02*
X187881201Y-90891405D01*
X174251645Y-56046079D02*
X175786445Y-56426933D01*
X184518722Y-72245521D02*
X185240476Y-73088819D01*
X150673490Y-110598238D02*
X149553033Y-109780116D01*
X175676977Y-123856157D02*
X173865203Y-124258463D01*
X202739892Y-77111880D02*
X203223002Y-78863674D01*
X134690137Y-78161501D02*
X135170709Y-76573291D01*
X192961512Y-77106835D02*
X193451418Y-78365281D01*
X154585129Y-115421697D02*
X153223258Y-114779787D01*
X185951791Y-111169880D02*
X184786640Y-112070945D01*
X199612677Y-89618975D02*
X199465118Y-91251215D01*
X146248030Y-60608212D02*
X147546178Y-59606025D01*
X182490608Y-101851975D02*
X181777899Y-102589286D01*
X158127840Y-114320260D02*
X156808178Y-113850639D01*
X136016286Y-83370827D02*
X136237461Y-81816253D01*
X142560455Y-71597677D02*
X143340757Y-70416002D01*
X152625090Y-64463855D02*
X153730984Y-63763189D01*
X145994282Y-93242928D02*
X145701722Y-92205823D01*
X164930132Y-62071925D02*
X166180418Y-61984115D01*
X168192688Y-122605860D02*
X166378505Y-122629718D01*
X186292374Y-100769723D02*
X185623663Y-101689210D01*
X158478861Y-61503065D02*
X159738028Y-61082899D01*
X195064912Y-87867013D02*
X195013192Y-89286134D01*
X200795195Y-72072594D02*
X201523468Y-73713928D01*
X174102192Y-117123463D02*
X172626238Y-117454263D01*
X146726936Y-95254141D02*
X146336516Y-94259513D01*
X176836725Y-106251546D02*
X175915455Y-106721460D01*
X139818135Y-113393179D02*
X138568375Y-112053103D01*
X165414522Y-111060757D02*
X164212178Y-110956661D01*
X190843948Y-62314212D02*
X192035980Y-63476620D01*
X177715205Y-118429128D02*
X176186499Y-118935876D01*
X136535971Y-80284188D02*
X136909740Y-78776797D01*
X194193964Y-100928052D02*
X193501655Y-102230553D01*
X131074639Y-99458369D02*
X130489972Y-97687073D01*
X135210480Y-107695646D02*
X134230313Y-106139042D01*
X151896223Y-114074165D02*
X150606150Y-113306870D01*
X144784543Y-108616621D02*
X143760842Y-107522081D01*
X145136978Y-88985780D02*
X145058007Y-87880985D01*
X154157332Y-110070859D02*
X153057965Y-109419139D01*
X169984622Y-64668916D02*
X171114956Y-64825129D01*
X177726719Y-79584416D02*
X179928487Y-80312285D01*
X179200600Y-122789709D02*
X177456260Y-123365719D01*
X175915455Y-106721460D02*
X174969997Y-107147378D01*
X191603423Y-115408340D02*
X190226816Y-116576737D01*
X170546739Y-60092643D02*
X171903333Y-60283506D01*
X181089999Y-109051224D02*
X180031548Y-109722469D01*
X189254202Y-104504475D02*
X188402227Y-105563336D01*
X141564530Y-94512672D02*
X141213333Y-93255667D01*
X190413735Y-88953294D02*
X190312537Y-90126978D01*
X137382112Y-110655164D02*
X136261947Y-109201850D01*
X178354687Y-62215034D02*
X179565432Y-62784090D01*
X190226816Y-116576737D02*
X188795668Y-117680048D01*
X153494312Y-122439571D02*
X151790089Y-121732204D01*
X190431884Y-86567152D02*
X190454034Y-87766149D01*
X189498355Y-99969453D02*
X188861082Y-101044981D01*
X146986929Y-66098227D02*
X148020085Y-65131040D01*
X161054328Y-122145935D02*
X159327198Y-121807347D01*
X188105250Y-62953783D02*
X189267565Y-63984605D01*
X161319696Y-108066498D02*
X160296674Y-107762435D01*
X149132586Y-55796225D02*
X150663773Y-54930695D01*
X147008602Y-72957117D02*
X147698420Y-71980875D01*
X131344990Y-90088262D02*
X131227281Y-88281464D01*
X145330066Y-115226031D02*
X143991484Y-114144962D01*
X147670864Y-68688686D02*
X148579091Y-67753674D01*
X166244761Y-55333335D02*
X166244761Y-55333335D01*
X166378254Y-59943577D02*
X166378254Y-59943577D01*
X166685640Y-67124255D02*
X167228557Y-69021429D01*
X187439524Y-92935899D02*
X187143867Y-93932008D01*
X174916738Y-114506061D02*
X173577268Y-114879246D01*
X202445606Y-98992654D02*
X201830665Y-100707992D01*
X129583941Y-94040543D02*
X129267778Y-92170283D01*
X133574775Y-84779327D02*
X133728126Y-83089767D01*
X138568375Y-112053103D02*
X137382112Y-110655164D01*
X194692689Y-104722707D02*
X193819130Y-106043008D01*
X158465096Y-109556244D02*
X157380142Y-109111293D01*
X149349699Y-99847549D02*
X148740688Y-98984294D01*
X170827798Y-57804494D02*
X172297524Y-58012679D01*
X170007637Y-62122742D02*
X171255929Y-62301110D01*
X193819130Y-106043008D02*
X192884797Y-107319779D01*
X133443761Y-68755215D02*
X134347560Y-67225708D01*
X194251778Y-65963870D02*
X195270820Y-67284185D01*
X200358755Y-104025351D02*
X199506686Y-105622251D01*
X188582740Y-111946690D02*
X187376796Y-112972159D01*
X177293913Y-56882291D02*
X178771844Y-57410040D01*
X192748807Y-103496788D02*
X191937420Y-104724672D01*
X188148599Y-87715717D02*
X188114017Y-88786874D01*
X171255929Y-62301110D02*
X172487457Y-62542623D01*
X153677273Y-66204438D02*
X154677350Y-65551682D01*
X166180418Y-61984115D02*
X166180418Y-61984115D01*
X175171151Y-58646528D02*
X176570962Y-59068267D01*
X190380514Y-65068803D02*
X191441891Y-66204265D01*
X150136130Y-60598077D02*
X151431794Y-59779726D01*
X187371074Y-84056230D02*
X187751698Y-84795577D01*
X134919816Y-96417309D02*
X134480674Y-94830445D01*
X148172418Y-98091886D02*
X147646376Y-97171766D01*
X138213825Y-103839828D02*
X137416192Y-102430857D01*
X135814241Y-86538850D02*
X135874521Y-84945747D01*
X140539661Y-89353273D02*
X140447765Y-88014478D01*
X175458007Y-65998855D02*
X176491357Y-66421937D01*
X131227281Y-88281464D02*
X131203340Y-86437986D01*
X197119377Y-70066883D02*
X197944169Y-71524740D01*
X199506686Y-105622251D02*
X198580475Y-107174551D01*
X191246741Y-79083553D02*
X191647987Y-80268915D01*
X159103151Y-58868001D02*
X160497597Y-58480159D01*
X187691190Y-65654989D02*
X188725055Y-66660978D01*
X131199690Y-73633118D02*
X131868237Y-71961277D01*
X138142644Y-88081225D02*
X138142644Y-88081225D01*
X172527422Y-110390839D02*
X171387285Y-110650119D01*
X148579091Y-67753674D02*
X149530403Y-66861838D01*
X130612738Y-75347690D02*
X131199690Y-73633118D01*
X156250776Y-54962242D02*
X157833391Y-54438179D01*
X145219243Y-76073142D02*
X145767484Y-75005035D01*
X159573735Y-109948357D02*
X158465096Y-109556244D01*
X184199473Y-120573858D02*
X182574657Y-121391218D01*
X203421212Y-95461467D02*
X202976605Y-97242959D01*
X178484184Y-67413086D02*
X179440524Y-67978126D01*
X137833165Y-70555114D02*
X138672695Y-69145847D01*
X158850788Y-112134300D02*
X157636638Y-111703432D01*
X190084156Y-98863213D02*
X189498355Y-99969453D01*
X193852044Y-73628398D02*
X194508092Y-74926562D01*
X191531432Y-69956861D02*
X192361670Y-71141585D01*
X173480098Y-51200155D02*
X175262960Y-51550194D01*
X187713953Y-76783845D02*
X188221094Y-77780491D01*
X194429463Y-93438840D02*
X194098198Y-94781771D01*
X135837523Y-88147971D02*
X135814241Y-86538850D01*
X175551614Y-116720964D02*
X174102192Y-117123463D01*
X139577340Y-67779337D02*
X140544876Y-66457905D01*
X185974434Y-96798393D02*
X185495140Y-97708376D01*
X175496726Y-78655186D02*
X177726719Y-79584416D01*
X179928487Y-80312285D02*
X182023109Y-80949202D01*
X186067934Y-116782796D02*
X184629940Y-117689410D01*
X176186499Y-118935876D02*
X174627124Y-119367689D01*
X153223258Y-114779787D02*
X151896223Y-114074165D01*
X150587032Y-104650612D02*
X149750871Y-103840144D01*
X184526797Y-109367615D02*
X183450311Y-110201265D01*
X148391988Y-75275368D02*
X148985777Y-74370938D01*
X160844165Y-115063538D02*
X159473824Y-114725189D01*
X171114956Y-64825129D02*
X172229029Y-65037743D01*
X141170819Y-74069670D02*
X141836501Y-72816235D01*
X180777679Y-106461946D02*
X179845539Y-107118362D01*
X184786640Y-112070945D02*
X183578954Y-112916985D01*
X158858528Y-116944780D02*
X157404888Y-116506232D01*
X178739823Y-52510311D02*
X180428782Y-53115565D01*
X194693617Y-92073973D02*
X194429463Y-93438840D01*
X132236442Y-95355373D02*
X131852012Y-93627554D01*
X166111268Y-50723093D02*
X167984041Y-50699070D01*
X191330847Y-112521943D02*
X190093079Y-113677511D01*
X190842414Y-109733754D02*
X189738663Y-110866474D01*
X151380614Y-62530972D02*
X152581393Y-61771463D01*
X145271581Y-90075811D02*
X145136978Y-88985780D01*
X180368057Y-68587457D02*
X181265214Y-69239568D01*
X201981258Y-88018309D02*
X201912424Y-89785394D01*
X145701722Y-92205823D02*
X145460325Y-91149638D01*
X167681450Y-64531747D02*
X168839598Y-64570617D01*
X188221094Y-77780491D02*
X188680608Y-78803266D01*
X129112646Y-82586159D02*
X129357334Y-80724228D01*
X173577268Y-114879246D02*
X172213254Y-115186207D01*
X198734537Y-79913530D02*
X199083214Y-81473439D01*
X158311799Y-107007865D02*
X157352924Y-106560235D01*
X150607583Y-53613944D02*
X152365601Y-52946309D01*
X151763373Y-71064524D02*
X152551001Y-70323389D01*
X165725885Y-57237989D02*
X165764307Y-60081794D01*
X187438921Y-103096839D02*
X186657435Y-104069634D01*
X146807845Y-100228746D02*
X146180732Y-99241457D01*
X190616784Y-97728029D02*
X190084156Y-98863213D01*
X155114015Y-68329572D02*
X156030142Y-67746590D01*
X148740688Y-98984294D02*
X148172418Y-98091886D01*
X167984041Y-50699070D02*
X169838117Y-50772180D01*
X170153981Y-124788435D02*
X168259432Y-124910981D01*
X155508077Y-52781952D02*
X157198509Y-52223258D01*
X191094537Y-96565667D02*
X190616784Y-97728029D01*
X137143397Y-106451149D02*
X136222072Y-104989433D01*
X192035980Y-63476620D02*
X193172711Y-64693927D01*
X139542668Y-78019195D02*
X140021977Y-76673156D01*
X143489078Y-59938589D02*
X144823019Y-58805924D01*
X196677388Y-93944494D02*
X196317787Y-95397064D01*
X155236028Y-123064201D02*
X153494312Y-122439571D01*
X152190830Y-116834713D02*
X150765663Y-116075838D01*
X166311508Y-57638456D02*
X166311508Y-57638456D01*
X175152051Y-121611921D02*
X173452217Y-121990392D01*
X166378254Y-59943577D02*
X167782314Y-59920865D01*
X176570962Y-59068267D02*
X177943380Y-59557264D01*
X183479434Y-68043498D02*
X184406174Y-68863433D01*
X188174037Y-102088033D02*
X187438921Y-103096839D01*
X140565336Y-75355979D02*
X141170819Y-74069670D01*
X130489972Y-97687073D02*
X129992206Y-95880302D01*
X173745990Y-58294011D02*
X175171151Y-58646528D01*
X203926412Y-82460834D02*
X204141671Y-84301375D01*
X128922160Y-88348211D02*
X128893471Y-86400506D01*
X196490313Y-80438457D02*
X196815153Y-81886426D01*
X140544876Y-66457905D02*
X141573077Y-65183874D01*
X159964236Y-65863552D02*
X161007774Y-65512658D01*
X175786445Y-56426933D02*
X177293913Y-56882291D01*
X168259432Y-124910981D02*
X166328071Y-124935170D01*
X177943380Y-59557264D02*
X179286360Y-60111557D01*
X190804939Y-102270881D02*
X190055723Y-103406348D01*
X186563060Y-74874993D02*
X187160752Y-75814841D01*
X161842706Y-117604250D02*
X160338509Y-117311466D01*
X186554316Y-107555560D02*
X185562083Y-108485071D01*
X147261669Y-55188169D02*
X148905743Y-54362016D01*
X134120079Y-93214566D02*
X133840314Y-91571860D01*
X145400146Y-118125098D02*
X143922399Y-117041351D01*
X186959667Y-59179003D02*
X188303429Y-60163140D01*
X141573077Y-65183874D02*
X142659718Y-63959567D01*
X145062702Y-68171319D02*
X146000493Y-67112322D01*
X181623333Y-119295507D02*
X180059321Y-119990186D01*
X169970236Y-122489764D02*
X168192688Y-122605860D01*
X185562083Y-108485071D02*
X184526797Y-109367615D01*
X137356693Y-77296244D02*
X137874755Y-75844691D01*
X161294230Y-62715363D02*
X162485509Y-62439333D01*
X140021977Y-76673156D02*
X140565336Y-75355979D01*
X168608909Y-72223113D02*
X169426613Y-73555226D01*
X187072405Y-110215873D02*
X185951791Y-111169880D01*
X197067617Y-83358467D02*
X197245661Y-84852617D01*
X156418410Y-106067628D02*
X155509745Y-105531482D01*
X199465118Y-91251215D02*
X199235284Y-92862355D01*
X141836501Y-72816235D02*
X142560455Y-71597677D01*
X157352924Y-106560235D02*
X156418410Y-106067628D01*
X137416192Y-102430857D02*
X136685692Y-100981931D01*
X197347241Y-86366913D02*
X197347241Y-86366913D01*
X193135888Y-72366085D02*
X193852044Y-73628398D01*
X148504528Y-120079203D02*
X146928390Y-119138545D01*
X166328071Y-124935170D02*
X164416000Y-124859209D01*
X176666417Y-111428262D02*
X175487118Y-111888323D01*
X188006882Y-85650200D02*
X188126763Y-86633899D01*
X149208929Y-70132747D02*
X150026562Y-69264429D01*
X192272507Y-82705857D02*
X192492132Y-83953915D01*
X142705185Y-113002501D02*
X141473611Y-111800987D01*
X174969997Y-107147378D02*
X174001751Y-107527849D01*
X160296674Y-107762435D02*
X159293545Y-107409078D01*
X144330109Y-65535948D02*
X145394755Y-64442771D01*
X146928390Y-119138545D02*
X145400146Y-118125098D01*
X182095808Y-116481712D02*
X180672010Y-117199803D01*
X187143867Y-93932008D02*
X186800199Y-94908760D01*
X187459323Y-115810340D02*
X186067934Y-116782796D01*
X154628419Y-104953235D02*
X153775921Y-104334326D01*
X162525821Y-124685584D02*
X160660134Y-124416784D01*
X140616580Y-70371764D02*
X141459053Y-69097672D01*
X153853894Y-53421077D02*
X155508077Y-52781952D01*
X134254850Y-72560944D02*
X135006042Y-70972380D01*
X134480674Y-94830445D02*
X134120079Y-93214566D01*
X182113987Y-108331600D02*
X181089999Y-109051224D01*
X140474000Y-85278587D02*
X140592588Y-83932945D01*
X157627937Y-121383991D02*
X155958984Y-120878206D01*
X195042120Y-86433659D02*
X195064912Y-87867013D01*
X168839598Y-64570617D02*
X169984622Y-64668916D01*
X162762756Y-53340840D02*
X164458967Y-53141086D01*
X168125942Y-120300739D02*
X166428936Y-120324267D01*
X151460059Y-105420949D02*
X150587032Y-104650612D01*
X153189659Y-56233859D02*
X154702124Y-55561576D01*
X176491357Y-66421937D02*
X177500606Y-66893852D01*
X190011019Y-83125381D02*
X190208868Y-84256096D01*
X189091076Y-74603898D02*
X189708947Y-75681022D01*
X191878618Y-94166480D02*
X191515716Y-95377895D01*
X163156536Y-64965410D02*
X164258806Y-64772113D01*
X147335474Y-77166916D02*
X147841395Y-76207870D01*
X185831280Y-105004651D02*
X184962157Y-105900123D01*
X193172711Y-64693927D02*
X194251778Y-65963870D01*
X144586501Y-96102351D02*
X144156285Y-95002197D01*
X149553033Y-109780116D02*
X148472655Y-108910518D01*
X164915258Y-117959964D02*
X163368997Y-117821095D01*
X190454034Y-87766149D02*
X190413735Y-88953294D01*
X197176961Y-90970154D02*
X196964446Y-92468162D01*
X182541469Y-105023504D02*
X181676839Y-105763124D01*
X178769371Y-113008423D02*
X177514640Y-113568724D01*
X155709328Y-64947391D02*
X156771680Y-64393349D01*
X142446046Y-96950566D02*
X141976037Y-95744885D01*
X162236898Y-115333419D02*
X160844165Y-115063538D01*
X162361123Y-108319829D02*
X161319696Y-108066498D01*
X146336516Y-94259513D02*
X145994282Y-93242928D01*
X146393497Y-103530149D02*
X145610407Y-102520161D01*
X145058007Y-87880985D02*
X145036014Y-86740578D01*
X143038566Y-82987454D02*
X143262370Y-81783792D01*
X181517295Y-66536735D02*
X182515867Y-67267345D01*
X150883742Y-68435656D02*
X151778940Y-67648210D01*
X166630664Y-111102485D02*
X165414522Y-111060757D01*
X149355162Y-112479939D02*
X148145383Y-111595411D01*
X161349819Y-112815620D02*
X160089117Y-112505608D01*
X186917249Y-99819087D02*
X186292374Y-100769723D01*
X187496736Y-98838909D02*
X186917249Y-99819087D01*
X184344133Y-60202702D02*
X185641330Y-61060718D01*
X190312537Y-90126978D02*
X190151992Y-91285594D01*
X191937420Y-104724672D02*
X191069493Y-105912120D01*
X156448475Y-111214744D02*
X155288104Y-110669974D01*
X147646376Y-97171766D02*
X147164052Y-96225371D01*
X175487118Y-111888323D02*
X174281859Y-112291170D01*
X156320519Y-108615093D02*
X155287877Y-108069232D01*
X151778940Y-67648210D02*
X152710626Y-66903876D01*
X174627124Y-119367689D02*
X173039230Y-119722325D01*
X180031548Y-109722469D02*
X178940333Y-110343568D01*
X144175481Y-69273214D02*
X145062702Y-68171319D01*
X182962129Y-70666069D02*
X183758750Y-71437433D01*
X185294261Y-69725390D02*
X186141872Y-70627609D01*
X177818056Y-110912755D02*
X176666417Y-111428262D01*
X176866753Y-108817097D02*
X175818205Y-109287809D01*
X191891842Y-108550775D02*
X190842414Y-109733754D01*
X161022521Y-60724373D02*
X162330567Y-60429331D01*
X129992206Y-95880302D02*
X129583941Y-94040543D01*
X203619349Y-80647463D02*
X203926412Y-82460834D01*
X194700109Y-108727440D02*
X193636662Y-110044505D01*
X132470528Y-77546203D02*
X132984718Y-75850336D01*
X191144159Y-73515679D02*
X191805997Y-74680221D01*
X142210387Y-61131835D02*
X143489078Y-59938589D01*
X201842999Y-84485123D02*
X201957482Y-86233420D01*
X165248098Y-113360487D02*
X163931116Y-113244797D01*
X152163363Y-102980279D02*
X151406283Y-102248018D01*
X143317894Y-66677600D02*
X144330109Y-65535948D01*
X142360183Y-67865562D02*
X143317894Y-66677600D01*
X139076307Y-105206657D02*
X138213825Y-103839828D01*
X188861082Y-101044981D02*
X188174037Y-102088033D01*
X183118221Y-62146579D02*
X184323000Y-62942424D01*
X143991484Y-114144962D02*
X142705185Y-113002501D01*
X174892924Y-63208045D02*
X176063216Y-63628434D01*
X186657435Y-104069634D02*
X185831280Y-105004651D01*
X157636638Y-111703432D02*
X156448475Y-111214744D01*
X167228557Y-69021429D02*
X167872935Y-70716448D01*
X153653453Y-117525193D02*
X152190830Y-116834713D01*
X139462254Y-101379027D02*
X138781389Y-100030610D01*
X183695149Y-54564399D02*
X185267516Y-55403155D01*
X133580284Y-74187756D02*
X134254850Y-72560944D01*
X195887644Y-96823790D02*
X195388958Y-98222586D01*
X166511747Y-64553818D02*
X166511747Y-64553818D01*
X140699092Y-90674229D02*
X140539661Y-89353273D01*
X143129081Y-110208801D02*
X142030026Y-109032417D01*
X158943227Y-66263921D02*
X159964236Y-65863552D01*
X128893471Y-86400506D02*
X128957496Y-84479037D01*
X192736994Y-86500406D02*
X192759464Y-87816582D01*
X132616790Y-70334524D02*
X133443761Y-68755215D01*
X136358354Y-73492625D02*
X137060976Y-72004814D01*
X188126763Y-86633899D02*
X188148599Y-87715717D01*
X172691714Y-55741844D02*
X174251645Y-56046079D01*
X184912666Y-102575939D02*
X184160934Y-103428304D01*
X173700396Y-62845522D02*
X174892924Y-63208045D01*
X202976605Y-97242959D02*
X202445606Y-98992654D01*
X193701675Y-96100842D02*
X193241743Y-97394125D01*
X179440524Y-67978126D02*
X180368057Y-68587457D01*
X171389916Y-53228178D02*
X173085905Y-53471002D01*
X147647148Y-56732261D02*
X149132586Y-55796225D01*
X165081680Y-115660223D02*
X163650058Y-115532943D01*
X164004485Y-50761675D02*
X166111268Y-50723093D01*
X196815153Y-81886426D02*
X197067617Y-83358467D01*
X162072366Y-65212768D02*
X163156536Y-64965410D01*
X193501655Y-102230553D02*
X192748807Y-103496788D01*
X195042120Y-86433659D02*
X195042120Y-86433659D01*
D11*
X177266666Y-62359580D02*
X177314285Y-62407200D01*
X177314285Y-62407200D02*
X177457142Y-62454819D01*
X177457142Y-62454819D02*
X177552380Y-62454819D01*
X177552380Y-62454819D02*
X177695237Y-62407200D01*
X177695237Y-62407200D02*
X177790475Y-62311961D01*
X177790475Y-62311961D02*
X177838094Y-62216723D01*
X177838094Y-62216723D02*
X177885713Y-62026247D01*
X177885713Y-62026247D02*
X177885713Y-61883390D01*
X177885713Y-61883390D02*
X177838094Y-61692914D01*
X177838094Y-61692914D02*
X177790475Y-61597676D01*
X177790475Y-61597676D02*
X177695237Y-61502438D01*
X177695237Y-61502438D02*
X177552380Y-61454819D01*
X177552380Y-61454819D02*
X177457142Y-61454819D01*
X177457142Y-61454819D02*
X177314285Y-61502438D01*
X177314285Y-61502438D02*
X177266666Y-61550057D01*
X176933332Y-61454819D02*
X176266666Y-61454819D01*
X176266666Y-61454819D02*
X176695237Y-62454819D01*
X157761904Y-58954819D02*
X157761904Y-59764342D01*
X157761904Y-59764342D02*
X157714285Y-59859580D01*
X157714285Y-59859580D02*
X157666666Y-59907200D01*
X157666666Y-59907200D02*
X157571428Y-59954819D01*
X157571428Y-59954819D02*
X157380952Y-59954819D01*
X157380952Y-59954819D02*
X157285714Y-59907200D01*
X157285714Y-59907200D02*
X157238095Y-59859580D01*
X157238095Y-59859580D02*
X157190476Y-59764342D01*
X157190476Y-59764342D02*
X157190476Y-58954819D01*
X156761904Y-59050057D02*
X156714285Y-59002438D01*
X156714285Y-59002438D02*
X156619047Y-58954819D01*
X156619047Y-58954819D02*
X156380952Y-58954819D01*
X156380952Y-58954819D02*
X156285714Y-59002438D01*
X156285714Y-59002438D02*
X156238095Y-59050057D01*
X156238095Y-59050057D02*
X156190476Y-59145295D01*
X156190476Y-59145295D02*
X156190476Y-59240533D01*
X156190476Y-59240533D02*
X156238095Y-59383390D01*
X156238095Y-59383390D02*
X156809523Y-59954819D01*
X156809523Y-59954819D02*
X156190476Y-59954819D01*
X197095238Y-120654819D02*
X197428571Y-120178628D01*
X197666666Y-120654819D02*
X197666666Y-119654819D01*
X197666666Y-119654819D02*
X197285714Y-119654819D01*
X197285714Y-119654819D02*
X197190476Y-119702438D01*
X197190476Y-119702438D02*
X197142857Y-119750057D01*
X197142857Y-119750057D02*
X197095238Y-119845295D01*
X197095238Y-119845295D02*
X197095238Y-119988152D01*
X197095238Y-119988152D02*
X197142857Y-120083390D01*
X197142857Y-120083390D02*
X197190476Y-120131009D01*
X197190476Y-120131009D02*
X197285714Y-120178628D01*
X197285714Y-120178628D02*
X197666666Y-120178628D01*
X196809523Y-119654819D02*
X196476190Y-120654819D01*
X196476190Y-120654819D02*
X196142857Y-119654819D01*
X195285714Y-120654819D02*
X195857142Y-120654819D01*
X195571428Y-120654819D02*
X195571428Y-119654819D01*
X195571428Y-119654819D02*
X195666666Y-119797676D01*
X195666666Y-119797676D02*
X195761904Y-119892914D01*
X195761904Y-119892914D02*
X195857142Y-119940533D01*
X149038094Y-95454819D02*
X149038094Y-94454819D01*
X149038094Y-94454819D02*
X148799999Y-94454819D01*
X148799999Y-94454819D02*
X148657142Y-94502438D01*
X148657142Y-94502438D02*
X148561904Y-94597676D01*
X148561904Y-94597676D02*
X148514285Y-94692914D01*
X148514285Y-94692914D02*
X148466666Y-94883390D01*
X148466666Y-94883390D02*
X148466666Y-95026247D01*
X148466666Y-95026247D02*
X148514285Y-95216723D01*
X148514285Y-95216723D02*
X148561904Y-95311961D01*
X148561904Y-95311961D02*
X148657142Y-95407200D01*
X148657142Y-95407200D02*
X148799999Y-95454819D01*
X148799999Y-95454819D02*
X149038094Y-95454819D01*
X148085713Y-94550057D02*
X148038094Y-94502438D01*
X148038094Y-94502438D02*
X147942856Y-94454819D01*
X147942856Y-94454819D02*
X147704761Y-94454819D01*
X147704761Y-94454819D02*
X147609523Y-94502438D01*
X147609523Y-94502438D02*
X147561904Y-94550057D01*
X147561904Y-94550057D02*
X147514285Y-94645295D01*
X147514285Y-94645295D02*
X147514285Y-94740533D01*
X147514285Y-94740533D02*
X147561904Y-94883390D01*
X147561904Y-94883390D02*
X148133332Y-95454819D01*
X148133332Y-95454819D02*
X147514285Y-95454819D01*
X144574819Y-90428095D02*
X143574819Y-90428095D01*
X144574819Y-90999523D02*
X144003390Y-90570952D01*
X143574819Y-90999523D02*
X144146247Y-90428095D01*
X194342857Y-60454819D02*
X194676190Y-59978628D01*
X194914285Y-60454819D02*
X194914285Y-59454819D01*
X194914285Y-59454819D02*
X194533333Y-59454819D01*
X194533333Y-59454819D02*
X194438095Y-59502438D01*
X194438095Y-59502438D02*
X194390476Y-59550057D01*
X194390476Y-59550057D02*
X194342857Y-59645295D01*
X194342857Y-59645295D02*
X194342857Y-59788152D01*
X194342857Y-59788152D02*
X194390476Y-59883390D01*
X194390476Y-59883390D02*
X194438095Y-59931009D01*
X194438095Y-59931009D02*
X194533333Y-59978628D01*
X194533333Y-59978628D02*
X194914285Y-59978628D01*
X194009523Y-59454819D02*
X193390476Y-59454819D01*
X193390476Y-59454819D02*
X193723809Y-59835771D01*
X193723809Y-59835771D02*
X193580952Y-59835771D01*
X193580952Y-59835771D02*
X193485714Y-59883390D01*
X193485714Y-59883390D02*
X193438095Y-59931009D01*
X193438095Y-59931009D02*
X193390476Y-60026247D01*
X193390476Y-60026247D02*
X193390476Y-60264342D01*
X193390476Y-60264342D02*
X193438095Y-60359580D01*
X193438095Y-60359580D02*
X193485714Y-60407200D01*
X193485714Y-60407200D02*
X193580952Y-60454819D01*
X193580952Y-60454819D02*
X193866666Y-60454819D01*
X193866666Y-60454819D02*
X193961904Y-60407200D01*
X193961904Y-60407200D02*
X194009523Y-60359580D01*
X192771428Y-59454819D02*
X192676190Y-59454819D01*
X192676190Y-59454819D02*
X192580952Y-59502438D01*
X192580952Y-59502438D02*
X192533333Y-59550057D01*
X192533333Y-59550057D02*
X192485714Y-59645295D01*
X192485714Y-59645295D02*
X192438095Y-59835771D01*
X192438095Y-59835771D02*
X192438095Y-60073866D01*
X192438095Y-60073866D02*
X192485714Y-60264342D01*
X192485714Y-60264342D02*
X192533333Y-60359580D01*
X192533333Y-60359580D02*
X192580952Y-60407200D01*
X192580952Y-60407200D02*
X192676190Y-60454819D01*
X192676190Y-60454819D02*
X192771428Y-60454819D01*
X192771428Y-60454819D02*
X192866666Y-60407200D01*
X192866666Y-60407200D02*
X192914285Y-60359580D01*
X192914285Y-60359580D02*
X192961904Y-60264342D01*
X192961904Y-60264342D02*
X193009523Y-60073866D01*
X193009523Y-60073866D02*
X193009523Y-59835771D01*
X193009523Y-59835771D02*
X192961904Y-59645295D01*
X192961904Y-59645295D02*
X192914285Y-59550057D01*
X192914285Y-59550057D02*
X192866666Y-59502438D01*
X192866666Y-59502438D02*
X192771428Y-59454819D01*
X179261904Y-53154819D02*
X179261904Y-53964342D01*
X179261904Y-53964342D02*
X179214285Y-54059580D01*
X179214285Y-54059580D02*
X179166666Y-54107200D01*
X179166666Y-54107200D02*
X179071428Y-54154819D01*
X179071428Y-54154819D02*
X178880952Y-54154819D01*
X178880952Y-54154819D02*
X178785714Y-54107200D01*
X178785714Y-54107200D02*
X178738095Y-54059580D01*
X178738095Y-54059580D02*
X178690476Y-53964342D01*
X178690476Y-53964342D02*
X178690476Y-53154819D01*
X178309523Y-53154819D02*
X177690476Y-53154819D01*
X177690476Y-53154819D02*
X178023809Y-53535771D01*
X178023809Y-53535771D02*
X177880952Y-53535771D01*
X177880952Y-53535771D02*
X177785714Y-53583390D01*
X177785714Y-53583390D02*
X177738095Y-53631009D01*
X177738095Y-53631009D02*
X177690476Y-53726247D01*
X177690476Y-53726247D02*
X177690476Y-53964342D01*
X177690476Y-53964342D02*
X177738095Y-54059580D01*
X177738095Y-54059580D02*
X177785714Y-54107200D01*
X177785714Y-54107200D02*
X177880952Y-54154819D01*
X177880952Y-54154819D02*
X178166666Y-54154819D01*
X178166666Y-54154819D02*
X178261904Y-54107200D01*
X178261904Y-54107200D02*
X178309523Y-54059580D01*
X178561904Y-116954819D02*
X178561904Y-117764342D01*
X178561904Y-117764342D02*
X178514285Y-117859580D01*
X178514285Y-117859580D02*
X178466666Y-117907200D01*
X178466666Y-117907200D02*
X178371428Y-117954819D01*
X178371428Y-117954819D02*
X178180952Y-117954819D01*
X178180952Y-117954819D02*
X178085714Y-117907200D01*
X178085714Y-117907200D02*
X178038095Y-117859580D01*
X178038095Y-117859580D02*
X177990476Y-117764342D01*
X177990476Y-117764342D02*
X177990476Y-116954819D01*
X177085714Y-117288152D02*
X177085714Y-117954819D01*
X177323809Y-116907200D02*
X177561904Y-117621485D01*
X177561904Y-117621485D02*
X176942857Y-117621485D01*
X206142857Y-94854819D02*
X206476190Y-94378628D01*
X206714285Y-94854819D02*
X206714285Y-93854819D01*
X206714285Y-93854819D02*
X206333333Y-93854819D01*
X206333333Y-93854819D02*
X206238095Y-93902438D01*
X206238095Y-93902438D02*
X206190476Y-93950057D01*
X206190476Y-93950057D02*
X206142857Y-94045295D01*
X206142857Y-94045295D02*
X206142857Y-94188152D01*
X206142857Y-94188152D02*
X206190476Y-94283390D01*
X206190476Y-94283390D02*
X206238095Y-94331009D01*
X206238095Y-94331009D02*
X206333333Y-94378628D01*
X206333333Y-94378628D02*
X206714285Y-94378628D01*
X205190476Y-94854819D02*
X205761904Y-94854819D01*
X205476190Y-94854819D02*
X205476190Y-93854819D01*
X205476190Y-93854819D02*
X205571428Y-93997676D01*
X205571428Y-93997676D02*
X205666666Y-94092914D01*
X205666666Y-94092914D02*
X205761904Y-94140533D01*
X204285714Y-93854819D02*
X204761904Y-93854819D01*
X204761904Y-93854819D02*
X204809523Y-94331009D01*
X204809523Y-94331009D02*
X204761904Y-94283390D01*
X204761904Y-94283390D02*
X204666666Y-94235771D01*
X204666666Y-94235771D02*
X204428571Y-94235771D01*
X204428571Y-94235771D02*
X204333333Y-94283390D01*
X204333333Y-94283390D02*
X204285714Y-94331009D01*
X204285714Y-94331009D02*
X204238095Y-94426247D01*
X204238095Y-94426247D02*
X204238095Y-94664342D01*
X204238095Y-94664342D02*
X204285714Y-94759580D01*
X204285714Y-94759580D02*
X204333333Y-94807200D01*
X204333333Y-94807200D02*
X204428571Y-94854819D01*
X204428571Y-94854819D02*
X204666666Y-94854819D01*
X204666666Y-94854819D02*
X204761904Y-94807200D01*
X204761904Y-94807200D02*
X204809523Y-94759580D01*
X186095238Y-95254819D02*
X186428571Y-94778628D01*
X186666666Y-95254819D02*
X186666666Y-94254819D01*
X186666666Y-94254819D02*
X186285714Y-94254819D01*
X186285714Y-94254819D02*
X186190476Y-94302438D01*
X186190476Y-94302438D02*
X186142857Y-94350057D01*
X186142857Y-94350057D02*
X186095238Y-94445295D01*
X186095238Y-94445295D02*
X186095238Y-94588152D01*
X186095238Y-94588152D02*
X186142857Y-94683390D01*
X186142857Y-94683390D02*
X186190476Y-94731009D01*
X186190476Y-94731009D02*
X186285714Y-94778628D01*
X186285714Y-94778628D02*
X186666666Y-94778628D01*
X185809523Y-94254819D02*
X185476190Y-95254819D01*
X185476190Y-95254819D02*
X185142857Y-94254819D01*
X184857142Y-94350057D02*
X184809523Y-94302438D01*
X184809523Y-94302438D02*
X184714285Y-94254819D01*
X184714285Y-94254819D02*
X184476190Y-94254819D01*
X184476190Y-94254819D02*
X184380952Y-94302438D01*
X184380952Y-94302438D02*
X184333333Y-94350057D01*
X184333333Y-94350057D02*
X184285714Y-94445295D01*
X184285714Y-94445295D02*
X184285714Y-94540533D01*
X184285714Y-94540533D02*
X184333333Y-94683390D01*
X184333333Y-94683390D02*
X184904761Y-95254819D01*
X184904761Y-95254819D02*
X184285714Y-95254819D01*
X145242857Y-119809580D02*
X145290476Y-119857200D01*
X145290476Y-119857200D02*
X145433333Y-119904819D01*
X145433333Y-119904819D02*
X145528571Y-119904819D01*
X145528571Y-119904819D02*
X145671428Y-119857200D01*
X145671428Y-119857200D02*
X145766666Y-119761961D01*
X145766666Y-119761961D02*
X145814285Y-119666723D01*
X145814285Y-119666723D02*
X145861904Y-119476247D01*
X145861904Y-119476247D02*
X145861904Y-119333390D01*
X145861904Y-119333390D02*
X145814285Y-119142914D01*
X145814285Y-119142914D02*
X145766666Y-119047676D01*
X145766666Y-119047676D02*
X145671428Y-118952438D01*
X145671428Y-118952438D02*
X145528571Y-118904819D01*
X145528571Y-118904819D02*
X145433333Y-118904819D01*
X145433333Y-118904819D02*
X145290476Y-118952438D01*
X145290476Y-118952438D02*
X145242857Y-119000057D01*
X144290476Y-119904819D02*
X144861904Y-119904819D01*
X144576190Y-119904819D02*
X144576190Y-118904819D01*
X144576190Y-118904819D02*
X144671428Y-119047676D01*
X144671428Y-119047676D02*
X144766666Y-119142914D01*
X144766666Y-119142914D02*
X144861904Y-119190533D01*
X143433333Y-118904819D02*
X143623809Y-118904819D01*
X143623809Y-118904819D02*
X143719047Y-118952438D01*
X143719047Y-118952438D02*
X143766666Y-119000057D01*
X143766666Y-119000057D02*
X143861904Y-119142914D01*
X143861904Y-119142914D02*
X143909523Y-119333390D01*
X143909523Y-119333390D02*
X143909523Y-119714342D01*
X143909523Y-119714342D02*
X143861904Y-119809580D01*
X143861904Y-119809580D02*
X143814285Y-119857200D01*
X143814285Y-119857200D02*
X143719047Y-119904819D01*
X143719047Y-119904819D02*
X143528571Y-119904819D01*
X143528571Y-119904819D02*
X143433333Y-119857200D01*
X143433333Y-119857200D02*
X143385714Y-119809580D01*
X143385714Y-119809580D02*
X143338095Y-119714342D01*
X143338095Y-119714342D02*
X143338095Y-119476247D01*
X143338095Y-119476247D02*
X143385714Y-119381009D01*
X143385714Y-119381009D02*
X143433333Y-119333390D01*
X143433333Y-119333390D02*
X143528571Y-119285771D01*
X143528571Y-119285771D02*
X143719047Y-119285771D01*
X143719047Y-119285771D02*
X143814285Y-119333390D01*
X143814285Y-119333390D02*
X143861904Y-119381009D01*
X143861904Y-119381009D02*
X143909523Y-119476247D01*
X189266666Y-84554819D02*
X189599999Y-84078628D01*
X189838094Y-84554819D02*
X189838094Y-83554819D01*
X189838094Y-83554819D02*
X189457142Y-83554819D01*
X189457142Y-83554819D02*
X189361904Y-83602438D01*
X189361904Y-83602438D02*
X189314285Y-83650057D01*
X189314285Y-83650057D02*
X189266666Y-83745295D01*
X189266666Y-83745295D02*
X189266666Y-83888152D01*
X189266666Y-83888152D02*
X189314285Y-83983390D01*
X189314285Y-83983390D02*
X189361904Y-84031009D01*
X189361904Y-84031009D02*
X189457142Y-84078628D01*
X189457142Y-84078628D02*
X189838094Y-84078628D01*
X188790475Y-84554819D02*
X188599999Y-84554819D01*
X188599999Y-84554819D02*
X188504761Y-84507200D01*
X188504761Y-84507200D02*
X188457142Y-84459580D01*
X188457142Y-84459580D02*
X188361904Y-84316723D01*
X188361904Y-84316723D02*
X188314285Y-84126247D01*
X188314285Y-84126247D02*
X188314285Y-83745295D01*
X188314285Y-83745295D02*
X188361904Y-83650057D01*
X188361904Y-83650057D02*
X188409523Y-83602438D01*
X188409523Y-83602438D02*
X188504761Y-83554819D01*
X188504761Y-83554819D02*
X188695237Y-83554819D01*
X188695237Y-83554819D02*
X188790475Y-83602438D01*
X188790475Y-83602438D02*
X188838094Y-83650057D01*
X188838094Y-83650057D02*
X188885713Y-83745295D01*
X188885713Y-83745295D02*
X188885713Y-83983390D01*
X188885713Y-83983390D02*
X188838094Y-84078628D01*
X188838094Y-84078628D02*
X188790475Y-84126247D01*
X188790475Y-84126247D02*
X188695237Y-84173866D01*
X188695237Y-84173866D02*
X188504761Y-84173866D01*
X188504761Y-84173866D02*
X188409523Y-84126247D01*
X188409523Y-84126247D02*
X188361904Y-84078628D01*
X188361904Y-84078628D02*
X188314285Y-83983390D01*
X192742857Y-58754819D02*
X193076190Y-58278628D01*
X193314285Y-58754819D02*
X193314285Y-57754819D01*
X193314285Y-57754819D02*
X192933333Y-57754819D01*
X192933333Y-57754819D02*
X192838095Y-57802438D01*
X192838095Y-57802438D02*
X192790476Y-57850057D01*
X192790476Y-57850057D02*
X192742857Y-57945295D01*
X192742857Y-57945295D02*
X192742857Y-58088152D01*
X192742857Y-58088152D02*
X192790476Y-58183390D01*
X192790476Y-58183390D02*
X192838095Y-58231009D01*
X192838095Y-58231009D02*
X192933333Y-58278628D01*
X192933333Y-58278628D02*
X193314285Y-58278628D01*
X192361904Y-57850057D02*
X192314285Y-57802438D01*
X192314285Y-57802438D02*
X192219047Y-57754819D01*
X192219047Y-57754819D02*
X191980952Y-57754819D01*
X191980952Y-57754819D02*
X191885714Y-57802438D01*
X191885714Y-57802438D02*
X191838095Y-57850057D01*
X191838095Y-57850057D02*
X191790476Y-57945295D01*
X191790476Y-57945295D02*
X191790476Y-58040533D01*
X191790476Y-58040533D02*
X191838095Y-58183390D01*
X191838095Y-58183390D02*
X192409523Y-58754819D01*
X192409523Y-58754819D02*
X191790476Y-58754819D01*
X191219047Y-58183390D02*
X191314285Y-58135771D01*
X191314285Y-58135771D02*
X191361904Y-58088152D01*
X191361904Y-58088152D02*
X191409523Y-57992914D01*
X191409523Y-57992914D02*
X191409523Y-57945295D01*
X191409523Y-57945295D02*
X191361904Y-57850057D01*
X191361904Y-57850057D02*
X191314285Y-57802438D01*
X191314285Y-57802438D02*
X191219047Y-57754819D01*
X191219047Y-57754819D02*
X191028571Y-57754819D01*
X191028571Y-57754819D02*
X190933333Y-57802438D01*
X190933333Y-57802438D02*
X190885714Y-57850057D01*
X190885714Y-57850057D02*
X190838095Y-57945295D01*
X190838095Y-57945295D02*
X190838095Y-57992914D01*
X190838095Y-57992914D02*
X190885714Y-58088152D01*
X190885714Y-58088152D02*
X190933333Y-58135771D01*
X190933333Y-58135771D02*
X191028571Y-58183390D01*
X191028571Y-58183390D02*
X191219047Y-58183390D01*
X191219047Y-58183390D02*
X191314285Y-58231009D01*
X191314285Y-58231009D02*
X191361904Y-58278628D01*
X191361904Y-58278628D02*
X191409523Y-58373866D01*
X191409523Y-58373866D02*
X191409523Y-58564342D01*
X191409523Y-58564342D02*
X191361904Y-58659580D01*
X191361904Y-58659580D02*
X191314285Y-58707200D01*
X191314285Y-58707200D02*
X191219047Y-58754819D01*
X191219047Y-58754819D02*
X191028571Y-58754819D01*
X191028571Y-58754819D02*
X190933333Y-58707200D01*
X190933333Y-58707200D02*
X190885714Y-58659580D01*
X190885714Y-58659580D02*
X190838095Y-58564342D01*
X190838095Y-58564342D02*
X190838095Y-58373866D01*
X190838095Y-58373866D02*
X190885714Y-58278628D01*
X190885714Y-58278628D02*
X190933333Y-58231009D01*
X190933333Y-58231009D02*
X191028571Y-58183390D01*
X174033333Y-43754819D02*
X174033333Y-44469104D01*
X174033333Y-44469104D02*
X174080952Y-44611961D01*
X174080952Y-44611961D02*
X174176190Y-44707200D01*
X174176190Y-44707200D02*
X174319047Y-44754819D01*
X174319047Y-44754819D02*
X174414285Y-44754819D01*
X173033333Y-44754819D02*
X173604761Y-44754819D01*
X173319047Y-44754819D02*
X173319047Y-43754819D01*
X173319047Y-43754819D02*
X173414285Y-43897676D01*
X173414285Y-43897676D02*
X173509523Y-43992914D01*
X173509523Y-43992914D02*
X173604761Y-44040533D01*
X195838094Y-50154819D02*
X195838094Y-49154819D01*
X195838094Y-49154819D02*
X195599999Y-49154819D01*
X195599999Y-49154819D02*
X195457142Y-49202438D01*
X195457142Y-49202438D02*
X195361904Y-49297676D01*
X195361904Y-49297676D02*
X195314285Y-49392914D01*
X195314285Y-49392914D02*
X195266666Y-49583390D01*
X195266666Y-49583390D02*
X195266666Y-49726247D01*
X195266666Y-49726247D02*
X195314285Y-49916723D01*
X195314285Y-49916723D02*
X195361904Y-50011961D01*
X195361904Y-50011961D02*
X195457142Y-50107200D01*
X195457142Y-50107200D02*
X195599999Y-50154819D01*
X195599999Y-50154819D02*
X195838094Y-50154819D01*
X194314285Y-50154819D02*
X194885713Y-50154819D01*
X194599999Y-50154819D02*
X194599999Y-49154819D01*
X194599999Y-49154819D02*
X194695237Y-49297676D01*
X194695237Y-49297676D02*
X194790475Y-49392914D01*
X194790475Y-49392914D02*
X194885713Y-49440533D01*
X191104819Y-46808095D02*
X190104819Y-46808095D01*
X191104819Y-47379523D02*
X190533390Y-46950952D01*
X190104819Y-47379523D02*
X190676247Y-46808095D01*
X195495238Y-70050057D02*
X195590476Y-70002438D01*
X195590476Y-70002438D02*
X195685714Y-69907200D01*
X195685714Y-69907200D02*
X195828571Y-69764342D01*
X195828571Y-69764342D02*
X195923809Y-69716723D01*
X195923809Y-69716723D02*
X196019047Y-69716723D01*
X195971428Y-69954819D02*
X196066666Y-69907200D01*
X196066666Y-69907200D02*
X196161904Y-69811961D01*
X196161904Y-69811961D02*
X196209523Y-69621485D01*
X196209523Y-69621485D02*
X196209523Y-69288152D01*
X196209523Y-69288152D02*
X196161904Y-69097676D01*
X196161904Y-69097676D02*
X196066666Y-69002438D01*
X196066666Y-69002438D02*
X195971428Y-68954819D01*
X195971428Y-68954819D02*
X195780952Y-68954819D01*
X195780952Y-68954819D02*
X195685714Y-69002438D01*
X195685714Y-69002438D02*
X195590476Y-69097676D01*
X195590476Y-69097676D02*
X195542857Y-69288152D01*
X195542857Y-69288152D02*
X195542857Y-69621485D01*
X195542857Y-69621485D02*
X195590476Y-69811961D01*
X195590476Y-69811961D02*
X195685714Y-69907200D01*
X195685714Y-69907200D02*
X195780952Y-69954819D01*
X195780952Y-69954819D02*
X195971428Y-69954819D01*
X195161904Y-69050057D02*
X195114285Y-69002438D01*
X195114285Y-69002438D02*
X195019047Y-68954819D01*
X195019047Y-68954819D02*
X194780952Y-68954819D01*
X194780952Y-68954819D02*
X194685714Y-69002438D01*
X194685714Y-69002438D02*
X194638095Y-69050057D01*
X194638095Y-69050057D02*
X194590476Y-69145295D01*
X194590476Y-69145295D02*
X194590476Y-69240533D01*
X194590476Y-69240533D02*
X194638095Y-69383390D01*
X194638095Y-69383390D02*
X195209523Y-69954819D01*
X195209523Y-69954819D02*
X194590476Y-69954819D01*
X168454819Y-65657142D02*
X167978628Y-65323809D01*
X168454819Y-65085714D02*
X167454819Y-65085714D01*
X167454819Y-65085714D02*
X167454819Y-65466666D01*
X167454819Y-65466666D02*
X167502438Y-65561904D01*
X167502438Y-65561904D02*
X167550057Y-65609523D01*
X167550057Y-65609523D02*
X167645295Y-65657142D01*
X167645295Y-65657142D02*
X167788152Y-65657142D01*
X167788152Y-65657142D02*
X167883390Y-65609523D01*
X167883390Y-65609523D02*
X167931009Y-65561904D01*
X167931009Y-65561904D02*
X167978628Y-65466666D01*
X167978628Y-65466666D02*
X167978628Y-65085714D01*
X167454819Y-65990476D02*
X167454819Y-66609523D01*
X167454819Y-66609523D02*
X167835771Y-66276190D01*
X167835771Y-66276190D02*
X167835771Y-66419047D01*
X167835771Y-66419047D02*
X167883390Y-66514285D01*
X167883390Y-66514285D02*
X167931009Y-66561904D01*
X167931009Y-66561904D02*
X168026247Y-66609523D01*
X168026247Y-66609523D02*
X168264342Y-66609523D01*
X168264342Y-66609523D02*
X168359580Y-66561904D01*
X168359580Y-66561904D02*
X168407200Y-66514285D01*
X168407200Y-66514285D02*
X168454819Y-66419047D01*
X168454819Y-66419047D02*
X168454819Y-66133333D01*
X168454819Y-66133333D02*
X168407200Y-66038095D01*
X168407200Y-66038095D02*
X168359580Y-65990476D01*
X167883390Y-67180952D02*
X167835771Y-67085714D01*
X167835771Y-67085714D02*
X167788152Y-67038095D01*
X167788152Y-67038095D02*
X167692914Y-66990476D01*
X167692914Y-66990476D02*
X167645295Y-66990476D01*
X167645295Y-66990476D02*
X167550057Y-67038095D01*
X167550057Y-67038095D02*
X167502438Y-67085714D01*
X167502438Y-67085714D02*
X167454819Y-67180952D01*
X167454819Y-67180952D02*
X167454819Y-67371428D01*
X167454819Y-67371428D02*
X167502438Y-67466666D01*
X167502438Y-67466666D02*
X167550057Y-67514285D01*
X167550057Y-67514285D02*
X167645295Y-67561904D01*
X167645295Y-67561904D02*
X167692914Y-67561904D01*
X167692914Y-67561904D02*
X167788152Y-67514285D01*
X167788152Y-67514285D02*
X167835771Y-67466666D01*
X167835771Y-67466666D02*
X167883390Y-67371428D01*
X167883390Y-67371428D02*
X167883390Y-67180952D01*
X167883390Y-67180952D02*
X167931009Y-67085714D01*
X167931009Y-67085714D02*
X167978628Y-67038095D01*
X167978628Y-67038095D02*
X168073866Y-66990476D01*
X168073866Y-66990476D02*
X168264342Y-66990476D01*
X168264342Y-66990476D02*
X168359580Y-67038095D01*
X168359580Y-67038095D02*
X168407200Y-67085714D01*
X168407200Y-67085714D02*
X168454819Y-67180952D01*
X168454819Y-67180952D02*
X168454819Y-67371428D01*
X168454819Y-67371428D02*
X168407200Y-67466666D01*
X168407200Y-67466666D02*
X168359580Y-67514285D01*
X168359580Y-67514285D02*
X168264342Y-67561904D01*
X168264342Y-67561904D02*
X168073866Y-67561904D01*
X168073866Y-67561904D02*
X167978628Y-67514285D01*
X167978628Y-67514285D02*
X167931009Y-67466666D01*
X167931009Y-67466666D02*
X167883390Y-67371428D01*
X173842857Y-75654819D02*
X174176190Y-75178628D01*
X174414285Y-75654819D02*
X174414285Y-74654819D01*
X174414285Y-74654819D02*
X174033333Y-74654819D01*
X174033333Y-74654819D02*
X173938095Y-74702438D01*
X173938095Y-74702438D02*
X173890476Y-74750057D01*
X173890476Y-74750057D02*
X173842857Y-74845295D01*
X173842857Y-74845295D02*
X173842857Y-74988152D01*
X173842857Y-74988152D02*
X173890476Y-75083390D01*
X173890476Y-75083390D02*
X173938095Y-75131009D01*
X173938095Y-75131009D02*
X174033333Y-75178628D01*
X174033333Y-75178628D02*
X174414285Y-75178628D01*
X172890476Y-75654819D02*
X173461904Y-75654819D01*
X173176190Y-75654819D02*
X173176190Y-74654819D01*
X173176190Y-74654819D02*
X173271428Y-74797676D01*
X173271428Y-74797676D02*
X173366666Y-74892914D01*
X173366666Y-74892914D02*
X173461904Y-74940533D01*
X171938095Y-75654819D02*
X172509523Y-75654819D01*
X172223809Y-75654819D02*
X172223809Y-74654819D01*
X172223809Y-74654819D02*
X172319047Y-74797676D01*
X172319047Y-74797676D02*
X172414285Y-74892914D01*
X172414285Y-74892914D02*
X172509523Y-74940533D01*
X184459580Y-82557142D02*
X184507200Y-82509523D01*
X184507200Y-82509523D02*
X184554819Y-82366666D01*
X184554819Y-82366666D02*
X184554819Y-82271428D01*
X184554819Y-82271428D02*
X184507200Y-82128571D01*
X184507200Y-82128571D02*
X184411961Y-82033333D01*
X184411961Y-82033333D02*
X184316723Y-81985714D01*
X184316723Y-81985714D02*
X184126247Y-81938095D01*
X184126247Y-81938095D02*
X183983390Y-81938095D01*
X183983390Y-81938095D02*
X183792914Y-81985714D01*
X183792914Y-81985714D02*
X183697676Y-82033333D01*
X183697676Y-82033333D02*
X183602438Y-82128571D01*
X183602438Y-82128571D02*
X183554819Y-82271428D01*
X183554819Y-82271428D02*
X183554819Y-82366666D01*
X183554819Y-82366666D02*
X183602438Y-82509523D01*
X183602438Y-82509523D02*
X183650057Y-82557142D01*
X184554819Y-83509523D02*
X184554819Y-82938095D01*
X184554819Y-83223809D02*
X183554819Y-83223809D01*
X183554819Y-83223809D02*
X183697676Y-83128571D01*
X183697676Y-83128571D02*
X183792914Y-83033333D01*
X183792914Y-83033333D02*
X183840533Y-82938095D01*
X183554819Y-84128571D02*
X183554819Y-84223809D01*
X183554819Y-84223809D02*
X183602438Y-84319047D01*
X183602438Y-84319047D02*
X183650057Y-84366666D01*
X183650057Y-84366666D02*
X183745295Y-84414285D01*
X183745295Y-84414285D02*
X183935771Y-84461904D01*
X183935771Y-84461904D02*
X184173866Y-84461904D01*
X184173866Y-84461904D02*
X184364342Y-84414285D01*
X184364342Y-84414285D02*
X184459580Y-84366666D01*
X184459580Y-84366666D02*
X184507200Y-84319047D01*
X184507200Y-84319047D02*
X184554819Y-84223809D01*
X184554819Y-84223809D02*
X184554819Y-84128571D01*
X184554819Y-84128571D02*
X184507200Y-84033333D01*
X184507200Y-84033333D02*
X184459580Y-83985714D01*
X184459580Y-83985714D02*
X184364342Y-83938095D01*
X184364342Y-83938095D02*
X184173866Y-83890476D01*
X184173866Y-83890476D02*
X183935771Y-83890476D01*
X183935771Y-83890476D02*
X183745295Y-83938095D01*
X183745295Y-83938095D02*
X183650057Y-83985714D01*
X183650057Y-83985714D02*
X183602438Y-84033333D01*
X183602438Y-84033333D02*
X183554819Y-84128571D01*
X169966666Y-93654819D02*
X170299999Y-93178628D01*
X170538094Y-93654819D02*
X170538094Y-92654819D01*
X170538094Y-92654819D02*
X170157142Y-92654819D01*
X170157142Y-92654819D02*
X170061904Y-92702438D01*
X170061904Y-92702438D02*
X170014285Y-92750057D01*
X170014285Y-92750057D02*
X169966666Y-92845295D01*
X169966666Y-92845295D02*
X169966666Y-92988152D01*
X169966666Y-92988152D02*
X170014285Y-93083390D01*
X170014285Y-93083390D02*
X170061904Y-93131009D01*
X170061904Y-93131009D02*
X170157142Y-93178628D01*
X170157142Y-93178628D02*
X170538094Y-93178628D01*
X169061904Y-92654819D02*
X169538094Y-92654819D01*
X169538094Y-92654819D02*
X169585713Y-93131009D01*
X169585713Y-93131009D02*
X169538094Y-93083390D01*
X169538094Y-93083390D02*
X169442856Y-93035771D01*
X169442856Y-93035771D02*
X169204761Y-93035771D01*
X169204761Y-93035771D02*
X169109523Y-93083390D01*
X169109523Y-93083390D02*
X169061904Y-93131009D01*
X169061904Y-93131009D02*
X169014285Y-93226247D01*
X169014285Y-93226247D02*
X169014285Y-93464342D01*
X169014285Y-93464342D02*
X169061904Y-93559580D01*
X169061904Y-93559580D02*
X169109523Y-93607200D01*
X169109523Y-93607200D02*
X169204761Y-93654819D01*
X169204761Y-93654819D02*
X169442856Y-93654819D01*
X169442856Y-93654819D02*
X169538094Y-93607200D01*
X169538094Y-93607200D02*
X169585713Y-93559580D01*
X191595238Y-40954819D02*
X191928571Y-40478628D01*
X192166666Y-40954819D02*
X192166666Y-39954819D01*
X192166666Y-39954819D02*
X191785714Y-39954819D01*
X191785714Y-39954819D02*
X191690476Y-40002438D01*
X191690476Y-40002438D02*
X191642857Y-40050057D01*
X191642857Y-40050057D02*
X191595238Y-40145295D01*
X191595238Y-40145295D02*
X191595238Y-40288152D01*
X191595238Y-40288152D02*
X191642857Y-40383390D01*
X191642857Y-40383390D02*
X191690476Y-40431009D01*
X191690476Y-40431009D02*
X191785714Y-40478628D01*
X191785714Y-40478628D02*
X192166666Y-40478628D01*
X191309523Y-39954819D02*
X190976190Y-40954819D01*
X190976190Y-40954819D02*
X190642857Y-39954819D01*
X189880952Y-40288152D02*
X189880952Y-40954819D01*
X190119047Y-39907200D02*
X190357142Y-40621485D01*
X190357142Y-40621485D02*
X189738095Y-40621485D01*
X183695238Y-47954819D02*
X184028571Y-47478628D01*
X184266666Y-47954819D02*
X184266666Y-46954819D01*
X184266666Y-46954819D02*
X183885714Y-46954819D01*
X183885714Y-46954819D02*
X183790476Y-47002438D01*
X183790476Y-47002438D02*
X183742857Y-47050057D01*
X183742857Y-47050057D02*
X183695238Y-47145295D01*
X183695238Y-47145295D02*
X183695238Y-47288152D01*
X183695238Y-47288152D02*
X183742857Y-47383390D01*
X183742857Y-47383390D02*
X183790476Y-47431009D01*
X183790476Y-47431009D02*
X183885714Y-47478628D01*
X183885714Y-47478628D02*
X184266666Y-47478628D01*
X183409523Y-46954819D02*
X183076190Y-47954819D01*
X183076190Y-47954819D02*
X182742857Y-46954819D01*
X182504761Y-46954819D02*
X181885714Y-46954819D01*
X181885714Y-46954819D02*
X182219047Y-47335771D01*
X182219047Y-47335771D02*
X182076190Y-47335771D01*
X182076190Y-47335771D02*
X181980952Y-47383390D01*
X181980952Y-47383390D02*
X181933333Y-47431009D01*
X181933333Y-47431009D02*
X181885714Y-47526247D01*
X181885714Y-47526247D02*
X181885714Y-47764342D01*
X181885714Y-47764342D02*
X181933333Y-47859580D01*
X181933333Y-47859580D02*
X181980952Y-47907200D01*
X181980952Y-47907200D02*
X182076190Y-47954819D01*
X182076190Y-47954819D02*
X182361904Y-47954819D01*
X182361904Y-47954819D02*
X182457142Y-47907200D01*
X182457142Y-47907200D02*
X182504761Y-47859580D01*
X180642857Y-75954819D02*
X180976190Y-75478628D01*
X181214285Y-75954819D02*
X181214285Y-74954819D01*
X181214285Y-74954819D02*
X180833333Y-74954819D01*
X180833333Y-74954819D02*
X180738095Y-75002438D01*
X180738095Y-75002438D02*
X180690476Y-75050057D01*
X180690476Y-75050057D02*
X180642857Y-75145295D01*
X180642857Y-75145295D02*
X180642857Y-75288152D01*
X180642857Y-75288152D02*
X180690476Y-75383390D01*
X180690476Y-75383390D02*
X180738095Y-75431009D01*
X180738095Y-75431009D02*
X180833333Y-75478628D01*
X180833333Y-75478628D02*
X181214285Y-75478628D01*
X179690476Y-75954819D02*
X180261904Y-75954819D01*
X179976190Y-75954819D02*
X179976190Y-74954819D01*
X179976190Y-74954819D02*
X180071428Y-75097676D01*
X180071428Y-75097676D02*
X180166666Y-75192914D01*
X180166666Y-75192914D02*
X180261904Y-75240533D01*
X179071428Y-74954819D02*
X178976190Y-74954819D01*
X178976190Y-74954819D02*
X178880952Y-75002438D01*
X178880952Y-75002438D02*
X178833333Y-75050057D01*
X178833333Y-75050057D02*
X178785714Y-75145295D01*
X178785714Y-75145295D02*
X178738095Y-75335771D01*
X178738095Y-75335771D02*
X178738095Y-75573866D01*
X178738095Y-75573866D02*
X178785714Y-75764342D01*
X178785714Y-75764342D02*
X178833333Y-75859580D01*
X178833333Y-75859580D02*
X178880952Y-75907200D01*
X178880952Y-75907200D02*
X178976190Y-75954819D01*
X178976190Y-75954819D02*
X179071428Y-75954819D01*
X179071428Y-75954819D02*
X179166666Y-75907200D01*
X179166666Y-75907200D02*
X179214285Y-75859580D01*
X179214285Y-75859580D02*
X179261904Y-75764342D01*
X179261904Y-75764342D02*
X179309523Y-75573866D01*
X179309523Y-75573866D02*
X179309523Y-75335771D01*
X179309523Y-75335771D02*
X179261904Y-75145295D01*
X179261904Y-75145295D02*
X179214285Y-75050057D01*
X179214285Y-75050057D02*
X179166666Y-75002438D01*
X179166666Y-75002438D02*
X179071428Y-74954819D01*
X192742857Y-117754819D02*
X193076190Y-117278628D01*
X193314285Y-117754819D02*
X193314285Y-116754819D01*
X193314285Y-116754819D02*
X192933333Y-116754819D01*
X192933333Y-116754819D02*
X192838095Y-116802438D01*
X192838095Y-116802438D02*
X192790476Y-116850057D01*
X192790476Y-116850057D02*
X192742857Y-116945295D01*
X192742857Y-116945295D02*
X192742857Y-117088152D01*
X192742857Y-117088152D02*
X192790476Y-117183390D01*
X192790476Y-117183390D02*
X192838095Y-117231009D01*
X192838095Y-117231009D02*
X192933333Y-117278628D01*
X192933333Y-117278628D02*
X193314285Y-117278628D01*
X192361904Y-116850057D02*
X192314285Y-116802438D01*
X192314285Y-116802438D02*
X192219047Y-116754819D01*
X192219047Y-116754819D02*
X191980952Y-116754819D01*
X191980952Y-116754819D02*
X191885714Y-116802438D01*
X191885714Y-116802438D02*
X191838095Y-116850057D01*
X191838095Y-116850057D02*
X191790476Y-116945295D01*
X191790476Y-116945295D02*
X191790476Y-117040533D01*
X191790476Y-117040533D02*
X191838095Y-117183390D01*
X191838095Y-117183390D02*
X192409523Y-117754819D01*
X192409523Y-117754819D02*
X191790476Y-117754819D01*
X191457142Y-116754819D02*
X190790476Y-116754819D01*
X190790476Y-116754819D02*
X191219047Y-117754819D01*
X171642857Y-71854819D02*
X171976190Y-71378628D01*
X172214285Y-71854819D02*
X172214285Y-70854819D01*
X172214285Y-70854819D02*
X171833333Y-70854819D01*
X171833333Y-70854819D02*
X171738095Y-70902438D01*
X171738095Y-70902438D02*
X171690476Y-70950057D01*
X171690476Y-70950057D02*
X171642857Y-71045295D01*
X171642857Y-71045295D02*
X171642857Y-71188152D01*
X171642857Y-71188152D02*
X171690476Y-71283390D01*
X171690476Y-71283390D02*
X171738095Y-71331009D01*
X171738095Y-71331009D02*
X171833333Y-71378628D01*
X171833333Y-71378628D02*
X172214285Y-71378628D01*
X171309523Y-70854819D02*
X170690476Y-70854819D01*
X170690476Y-70854819D02*
X171023809Y-71235771D01*
X171023809Y-71235771D02*
X170880952Y-71235771D01*
X170880952Y-71235771D02*
X170785714Y-71283390D01*
X170785714Y-71283390D02*
X170738095Y-71331009D01*
X170738095Y-71331009D02*
X170690476Y-71426247D01*
X170690476Y-71426247D02*
X170690476Y-71664342D01*
X170690476Y-71664342D02*
X170738095Y-71759580D01*
X170738095Y-71759580D02*
X170785714Y-71807200D01*
X170785714Y-71807200D02*
X170880952Y-71854819D01*
X170880952Y-71854819D02*
X171166666Y-71854819D01*
X171166666Y-71854819D02*
X171261904Y-71807200D01*
X171261904Y-71807200D02*
X171309523Y-71759580D01*
X170214285Y-71854819D02*
X170023809Y-71854819D01*
X170023809Y-71854819D02*
X169928571Y-71807200D01*
X169928571Y-71807200D02*
X169880952Y-71759580D01*
X169880952Y-71759580D02*
X169785714Y-71616723D01*
X169785714Y-71616723D02*
X169738095Y-71426247D01*
X169738095Y-71426247D02*
X169738095Y-71045295D01*
X169738095Y-71045295D02*
X169785714Y-70950057D01*
X169785714Y-70950057D02*
X169833333Y-70902438D01*
X169833333Y-70902438D02*
X169928571Y-70854819D01*
X169928571Y-70854819D02*
X170119047Y-70854819D01*
X170119047Y-70854819D02*
X170214285Y-70902438D01*
X170214285Y-70902438D02*
X170261904Y-70950057D01*
X170261904Y-70950057D02*
X170309523Y-71045295D01*
X170309523Y-71045295D02*
X170309523Y-71283390D01*
X170309523Y-71283390D02*
X170261904Y-71378628D01*
X170261904Y-71378628D02*
X170214285Y-71426247D01*
X170214285Y-71426247D02*
X170119047Y-71473866D01*
X170119047Y-71473866D02*
X169928571Y-71473866D01*
X169928571Y-71473866D02*
X169833333Y-71426247D01*
X169833333Y-71426247D02*
X169785714Y-71378628D01*
X169785714Y-71378628D02*
X169738095Y-71283390D01*
X187095238Y-64050057D02*
X187190476Y-64002438D01*
X187190476Y-64002438D02*
X187285714Y-63907200D01*
X187285714Y-63907200D02*
X187428571Y-63764342D01*
X187428571Y-63764342D02*
X187523809Y-63716723D01*
X187523809Y-63716723D02*
X187619047Y-63716723D01*
X187571428Y-63954819D02*
X187666666Y-63907200D01*
X187666666Y-63907200D02*
X187761904Y-63811961D01*
X187761904Y-63811961D02*
X187809523Y-63621485D01*
X187809523Y-63621485D02*
X187809523Y-63288152D01*
X187809523Y-63288152D02*
X187761904Y-63097676D01*
X187761904Y-63097676D02*
X187666666Y-63002438D01*
X187666666Y-63002438D02*
X187571428Y-62954819D01*
X187571428Y-62954819D02*
X187380952Y-62954819D01*
X187380952Y-62954819D02*
X187285714Y-63002438D01*
X187285714Y-63002438D02*
X187190476Y-63097676D01*
X187190476Y-63097676D02*
X187142857Y-63288152D01*
X187142857Y-63288152D02*
X187142857Y-63621485D01*
X187142857Y-63621485D02*
X187190476Y-63811961D01*
X187190476Y-63811961D02*
X187285714Y-63907200D01*
X187285714Y-63907200D02*
X187380952Y-63954819D01*
X187380952Y-63954819D02*
X187571428Y-63954819D01*
X186190476Y-63954819D02*
X186761904Y-63954819D01*
X186476190Y-63954819D02*
X186476190Y-62954819D01*
X186476190Y-62954819D02*
X186571428Y-63097676D01*
X186571428Y-63097676D02*
X186666666Y-63192914D01*
X186666666Y-63192914D02*
X186761904Y-63240533D01*
X179486904Y-78089819D02*
X179486904Y-78899342D01*
X179486904Y-78899342D02*
X179439285Y-78994580D01*
X179439285Y-78994580D02*
X179391666Y-79042200D01*
X179391666Y-79042200D02*
X179296428Y-79089819D01*
X179296428Y-79089819D02*
X179105952Y-79089819D01*
X179105952Y-79089819D02*
X179010714Y-79042200D01*
X179010714Y-79042200D02*
X178963095Y-78994580D01*
X178963095Y-78994580D02*
X178915476Y-78899342D01*
X178915476Y-78899342D02*
X178915476Y-78089819D01*
X177915476Y-79089819D02*
X178486904Y-79089819D01*
X178201190Y-79089819D02*
X178201190Y-78089819D01*
X178201190Y-78089819D02*
X178296428Y-78232676D01*
X178296428Y-78232676D02*
X178391666Y-78327914D01*
X178391666Y-78327914D02*
X178486904Y-78375533D01*
X176866666Y-98854819D02*
X177199999Y-98378628D01*
X177438094Y-98854819D02*
X177438094Y-97854819D01*
X177438094Y-97854819D02*
X177057142Y-97854819D01*
X177057142Y-97854819D02*
X176961904Y-97902438D01*
X176961904Y-97902438D02*
X176914285Y-97950057D01*
X176914285Y-97950057D02*
X176866666Y-98045295D01*
X176866666Y-98045295D02*
X176866666Y-98188152D01*
X176866666Y-98188152D02*
X176914285Y-98283390D01*
X176914285Y-98283390D02*
X176961904Y-98331009D01*
X176961904Y-98331009D02*
X177057142Y-98378628D01*
X177057142Y-98378628D02*
X177438094Y-98378628D01*
X176009523Y-98188152D02*
X176009523Y-98854819D01*
X176247618Y-97807200D02*
X176485713Y-98521485D01*
X176485713Y-98521485D02*
X175866666Y-98521485D01*
X162366666Y-47159580D02*
X162414285Y-47207200D01*
X162414285Y-47207200D02*
X162557142Y-47254819D01*
X162557142Y-47254819D02*
X162652380Y-47254819D01*
X162652380Y-47254819D02*
X162795237Y-47207200D01*
X162795237Y-47207200D02*
X162890475Y-47111961D01*
X162890475Y-47111961D02*
X162938094Y-47016723D01*
X162938094Y-47016723D02*
X162985713Y-46826247D01*
X162985713Y-46826247D02*
X162985713Y-46683390D01*
X162985713Y-46683390D02*
X162938094Y-46492914D01*
X162938094Y-46492914D02*
X162890475Y-46397676D01*
X162890475Y-46397676D02*
X162795237Y-46302438D01*
X162795237Y-46302438D02*
X162652380Y-46254819D01*
X162652380Y-46254819D02*
X162557142Y-46254819D01*
X162557142Y-46254819D02*
X162414285Y-46302438D01*
X162414285Y-46302438D02*
X162366666Y-46350057D01*
X162033332Y-46254819D02*
X161414285Y-46254819D01*
X161414285Y-46254819D02*
X161747618Y-46635771D01*
X161747618Y-46635771D02*
X161604761Y-46635771D01*
X161604761Y-46635771D02*
X161509523Y-46683390D01*
X161509523Y-46683390D02*
X161461904Y-46731009D01*
X161461904Y-46731009D02*
X161414285Y-46826247D01*
X161414285Y-46826247D02*
X161414285Y-47064342D01*
X161414285Y-47064342D02*
X161461904Y-47159580D01*
X161461904Y-47159580D02*
X161509523Y-47207200D01*
X161509523Y-47207200D02*
X161604761Y-47254819D01*
X161604761Y-47254819D02*
X161890475Y-47254819D01*
X161890475Y-47254819D02*
X161985713Y-47207200D01*
X161985713Y-47207200D02*
X162033332Y-47159580D01*
X149695238Y-87650057D02*
X149790476Y-87602438D01*
X149790476Y-87602438D02*
X149885714Y-87507200D01*
X149885714Y-87507200D02*
X150028571Y-87364342D01*
X150028571Y-87364342D02*
X150123809Y-87316723D01*
X150123809Y-87316723D02*
X150219047Y-87316723D01*
X150171428Y-87554819D02*
X150266666Y-87507200D01*
X150266666Y-87507200D02*
X150361904Y-87411961D01*
X150361904Y-87411961D02*
X150409523Y-87221485D01*
X150409523Y-87221485D02*
X150409523Y-86888152D01*
X150409523Y-86888152D02*
X150361904Y-86697676D01*
X150361904Y-86697676D02*
X150266666Y-86602438D01*
X150266666Y-86602438D02*
X150171428Y-86554819D01*
X150171428Y-86554819D02*
X149980952Y-86554819D01*
X149980952Y-86554819D02*
X149885714Y-86602438D01*
X149885714Y-86602438D02*
X149790476Y-86697676D01*
X149790476Y-86697676D02*
X149742857Y-86888152D01*
X149742857Y-86888152D02*
X149742857Y-87221485D01*
X149742857Y-87221485D02*
X149790476Y-87411961D01*
X149790476Y-87411961D02*
X149885714Y-87507200D01*
X149885714Y-87507200D02*
X149980952Y-87554819D01*
X149980952Y-87554819D02*
X150171428Y-87554819D01*
X149409523Y-86554819D02*
X148790476Y-86554819D01*
X148790476Y-86554819D02*
X149123809Y-86935771D01*
X149123809Y-86935771D02*
X148980952Y-86935771D01*
X148980952Y-86935771D02*
X148885714Y-86983390D01*
X148885714Y-86983390D02*
X148838095Y-87031009D01*
X148838095Y-87031009D02*
X148790476Y-87126247D01*
X148790476Y-87126247D02*
X148790476Y-87364342D01*
X148790476Y-87364342D02*
X148838095Y-87459580D01*
X148838095Y-87459580D02*
X148885714Y-87507200D01*
X148885714Y-87507200D02*
X148980952Y-87554819D01*
X148980952Y-87554819D02*
X149266666Y-87554819D01*
X149266666Y-87554819D02*
X149361904Y-87507200D01*
X149361904Y-87507200D02*
X149409523Y-87459580D01*
X129865238Y-84959819D02*
X130198571Y-84483628D01*
X130436666Y-84959819D02*
X130436666Y-83959819D01*
X130436666Y-83959819D02*
X130055714Y-83959819D01*
X130055714Y-83959819D02*
X129960476Y-84007438D01*
X129960476Y-84007438D02*
X129912857Y-84055057D01*
X129912857Y-84055057D02*
X129865238Y-84150295D01*
X129865238Y-84150295D02*
X129865238Y-84293152D01*
X129865238Y-84293152D02*
X129912857Y-84388390D01*
X129912857Y-84388390D02*
X129960476Y-84436009D01*
X129960476Y-84436009D02*
X130055714Y-84483628D01*
X130055714Y-84483628D02*
X130436666Y-84483628D01*
X129579523Y-83959819D02*
X129246190Y-84959819D01*
X129246190Y-84959819D02*
X128912857Y-83959819D01*
X128103333Y-83959819D02*
X128579523Y-83959819D01*
X128579523Y-83959819D02*
X128627142Y-84436009D01*
X128627142Y-84436009D02*
X128579523Y-84388390D01*
X128579523Y-84388390D02*
X128484285Y-84340771D01*
X128484285Y-84340771D02*
X128246190Y-84340771D01*
X128246190Y-84340771D02*
X128150952Y-84388390D01*
X128150952Y-84388390D02*
X128103333Y-84436009D01*
X128103333Y-84436009D02*
X128055714Y-84531247D01*
X128055714Y-84531247D02*
X128055714Y-84769342D01*
X128055714Y-84769342D02*
X128103333Y-84864580D01*
X128103333Y-84864580D02*
X128150952Y-84912200D01*
X128150952Y-84912200D02*
X128246190Y-84959819D01*
X128246190Y-84959819D02*
X128484285Y-84959819D01*
X128484285Y-84959819D02*
X128579523Y-84912200D01*
X128579523Y-84912200D02*
X128627142Y-84864580D01*
X171942857Y-61554819D02*
X172276190Y-61078628D01*
X172514285Y-61554819D02*
X172514285Y-60554819D01*
X172514285Y-60554819D02*
X172133333Y-60554819D01*
X172133333Y-60554819D02*
X172038095Y-60602438D01*
X172038095Y-60602438D02*
X171990476Y-60650057D01*
X171990476Y-60650057D02*
X171942857Y-60745295D01*
X171942857Y-60745295D02*
X171942857Y-60888152D01*
X171942857Y-60888152D02*
X171990476Y-60983390D01*
X171990476Y-60983390D02*
X172038095Y-61031009D01*
X172038095Y-61031009D02*
X172133333Y-61078628D01*
X172133333Y-61078628D02*
X172514285Y-61078628D01*
X171609523Y-60554819D02*
X170990476Y-60554819D01*
X170990476Y-60554819D02*
X171323809Y-60935771D01*
X171323809Y-60935771D02*
X171180952Y-60935771D01*
X171180952Y-60935771D02*
X171085714Y-60983390D01*
X171085714Y-60983390D02*
X171038095Y-61031009D01*
X171038095Y-61031009D02*
X170990476Y-61126247D01*
X170990476Y-61126247D02*
X170990476Y-61364342D01*
X170990476Y-61364342D02*
X171038095Y-61459580D01*
X171038095Y-61459580D02*
X171085714Y-61507200D01*
X171085714Y-61507200D02*
X171180952Y-61554819D01*
X171180952Y-61554819D02*
X171466666Y-61554819D01*
X171466666Y-61554819D02*
X171561904Y-61507200D01*
X171561904Y-61507200D02*
X171609523Y-61459580D01*
X170657142Y-60554819D02*
X169990476Y-60554819D01*
X169990476Y-60554819D02*
X170419047Y-61554819D01*
X170666666Y-47159580D02*
X170714285Y-47207200D01*
X170714285Y-47207200D02*
X170857142Y-47254819D01*
X170857142Y-47254819D02*
X170952380Y-47254819D01*
X170952380Y-47254819D02*
X171095237Y-47207200D01*
X171095237Y-47207200D02*
X171190475Y-47111961D01*
X171190475Y-47111961D02*
X171238094Y-47016723D01*
X171238094Y-47016723D02*
X171285713Y-46826247D01*
X171285713Y-46826247D02*
X171285713Y-46683390D01*
X171285713Y-46683390D02*
X171238094Y-46492914D01*
X171238094Y-46492914D02*
X171190475Y-46397676D01*
X171190475Y-46397676D02*
X171095237Y-46302438D01*
X171095237Y-46302438D02*
X170952380Y-46254819D01*
X170952380Y-46254819D02*
X170857142Y-46254819D01*
X170857142Y-46254819D02*
X170714285Y-46302438D01*
X170714285Y-46302438D02*
X170666666Y-46350057D01*
X169809523Y-46588152D02*
X169809523Y-47254819D01*
X170047618Y-46207200D02*
X170285713Y-46921485D01*
X170285713Y-46921485D02*
X169666666Y-46921485D01*
D15*
%TO.C,C7*%
X178275000Y-61788748D02*
X178275000Y-62311252D01*
X179745000Y-61788748D02*
X179745000Y-62311252D01*
%TO.C,U2*%
X157430000Y-78417500D02*
X157430000Y-60517500D01*
X161930000Y-60517500D02*
X161930000Y-78417500D01*
X160680000Y-60517500D02*
X161930000Y-60517500D01*
X161930000Y-78417500D02*
X157430000Y-78417500D01*
X154430000Y-78477500D02*
X154430000Y-60457500D01*
X164930000Y-78477500D02*
X154430000Y-78477500D01*
X164930000Y-60457500D02*
X164930000Y-78477500D01*
X157430000Y-60517500D02*
X158680000Y-60517500D01*
X154430000Y-60457500D02*
X164930000Y-60457500D01*
X160680000Y-60517500D02*
G75*
G02*
X158680000Y-60517500I-1000000J0D01*
G01*
%TO.C,RV1*%
X198080000Y-113745000D02*
X199900000Y-113745000D01*
X198080000Y-120585000D02*
X199900000Y-120585000D01*
X201200000Y-120585000D02*
X203020000Y-120585000D01*
X198080000Y-120585000D02*
X198080000Y-113745000D01*
X201200000Y-113745000D02*
X203020000Y-113745000D01*
X203020000Y-120585000D02*
X203020000Y-113745000D01*
%TO.C,D2*%
X145920000Y-91730000D02*
X145920000Y-92380000D01*
X144800000Y-93220000D02*
X147040000Y-93220000D01*
X144800000Y-96620000D02*
X144800000Y-92380000D01*
X147040000Y-92380000D02*
X147040000Y-96620000D01*
X144800000Y-92980000D02*
X147040000Y-92980000D01*
X147040000Y-96620000D02*
X144800000Y-96620000D01*
X145920000Y-97270000D02*
X145920000Y-96620000D01*
X144800000Y-92380000D02*
X147040000Y-92380000D01*
X144800000Y-93100000D02*
X147040000Y-93100000D01*
%TO.C,R30*%
X193283000Y-62273064D02*
X193283000Y-61818936D01*
X191813000Y-62273064D02*
X191813000Y-61818936D01*
%TO.C,U3*%
X180240000Y-72445000D02*
X175740000Y-72445000D01*
X172740000Y-54485000D02*
X183240000Y-54485000D01*
X180240000Y-54545000D02*
X180240000Y-72445000D01*
X183240000Y-72505000D02*
X172740000Y-72505000D01*
X178990000Y-54545000D02*
X180240000Y-54545000D01*
X172740000Y-72505000D02*
X172740000Y-54485000D01*
X183240000Y-54485000D02*
X183240000Y-72505000D01*
X175740000Y-54545000D02*
X176990000Y-54545000D01*
X175740000Y-72445000D02*
X175740000Y-54545000D01*
X178990000Y-54545000D02*
G75*
G02*
X176990000Y-54545000I-1000000J0D01*
G01*
%TO.C,U4*%
X180570000Y-106180000D02*
X180570000Y-116460000D01*
X175270000Y-116460000D02*
X175270000Y-106180000D01*
X180570000Y-116460000D02*
X178920000Y-116460000D01*
X175270000Y-106180000D02*
X180570000Y-106180000D01*
X176920000Y-116460000D02*
X175270000Y-116460000D01*
X176920000Y-116460000D02*
G75*
G02*
X178920000Y-116460000I1000000J0D01*
G01*
%TO.C,R15*%
X204513000Y-96616936D02*
X204513000Y-97071064D01*
X205983000Y-96616936D02*
X205983000Y-97071064D01*
%TO.C,RV2*%
X189630000Y-87115000D02*
X187810000Y-87115000D01*
X189630000Y-93955000D02*
X187810000Y-93955000D01*
X186510000Y-87115000D02*
X184690000Y-87115000D01*
X189630000Y-87115000D02*
X189630000Y-93955000D01*
X186510000Y-93955000D02*
X184690000Y-93955000D01*
X184690000Y-87115000D02*
X184690000Y-93955000D01*
%TO.C,C16*%
X145944888Y-114660000D02*
X145944888Y-113121000D01*
X148185888Y-116878000D02*
X148185888Y-114522000D01*
X146184888Y-114660000D02*
X146184888Y-113139000D01*
X146865888Y-114660000D02*
X146865888Y-113318000D01*
X147105888Y-117968000D02*
X147105888Y-116740000D01*
X143310113Y-117425000D02*
X143310113Y-116925000D01*
X146424888Y-118220000D02*
X146424888Y-116740000D01*
X147745888Y-117485000D02*
X147745888Y-116740000D01*
X146264888Y-114660000D02*
X146264888Y-113150000D01*
X147545888Y-114660000D02*
X147545888Y-113729000D01*
X146344888Y-114660000D02*
X146344888Y-113164000D01*
X146224888Y-114660000D02*
X146224888Y-113144000D01*
X148025888Y-117143000D02*
X148025888Y-114257000D01*
X147705888Y-114660000D02*
X147705888Y-113874000D01*
X146024888Y-114660000D02*
X146024888Y-113124000D01*
X147585888Y-114660000D02*
X147585888Y-113763000D01*
X147625888Y-117601000D02*
X147625888Y-116740000D01*
X148465888Y-115984000D02*
X148465888Y-115416000D01*
X147305888Y-117849000D02*
X147305888Y-116740000D01*
X148105888Y-117019000D02*
X148105888Y-114381000D01*
X146585888Y-118180000D02*
X146585888Y-116740000D01*
X147545888Y-117671000D02*
X147545888Y-116740000D01*
X146785888Y-114660000D02*
X146785888Y-113286000D01*
X147865888Y-117353000D02*
X147865888Y-116740000D01*
X147145888Y-117947000D02*
X147145888Y-116740000D01*
X147505888Y-114660000D02*
X147505888Y-113696000D01*
X147225888Y-117900000D02*
X147225888Y-116740000D01*
X146705888Y-114660000D02*
X146705888Y-113258000D01*
X148225888Y-116798000D02*
X148225888Y-114602000D01*
X146945888Y-114660000D02*
X146945888Y-113352000D01*
X148345888Y-116505000D02*
X148345888Y-114895000D01*
X145944888Y-118279000D02*
X145944888Y-116740000D01*
X146985888Y-114660000D02*
X146985888Y-113371000D01*
X146785888Y-118114000D02*
X146785888Y-116740000D01*
X148425888Y-116218000D02*
X148425888Y-115182000D01*
X146625888Y-118168000D02*
X146625888Y-116740000D01*
X146144888Y-118265000D02*
X146144888Y-116740000D01*
X147425888Y-114660000D02*
X147425888Y-113635000D01*
X147385888Y-117795000D02*
X147385888Y-116740000D01*
X146344888Y-118236000D02*
X146344888Y-116740000D01*
X147825888Y-117399000D02*
X147825888Y-116740000D01*
X147345888Y-114660000D02*
X147345888Y-113578000D01*
X147465888Y-117735000D02*
X147465888Y-116740000D01*
X146384888Y-118228000D02*
X146384888Y-116740000D01*
X146825888Y-118098000D02*
X146825888Y-116740000D01*
X146384888Y-114660000D02*
X146384888Y-113172000D01*
X146745888Y-114660000D02*
X146745888Y-113272000D01*
X146224888Y-118256000D02*
X146224888Y-116740000D01*
X147425888Y-117765000D02*
X147425888Y-116740000D01*
X148305888Y-116615000D02*
X148305888Y-114785000D01*
X146064888Y-114660000D02*
X146064888Y-113127000D01*
X146544888Y-118191000D02*
X146544888Y-116740000D01*
X146464888Y-118211000D02*
X146464888Y-116740000D01*
X147345888Y-117822000D02*
X147345888Y-116740000D01*
X147785888Y-114660000D02*
X147785888Y-113957000D01*
X147985888Y-117200000D02*
X147985888Y-114200000D01*
X146665888Y-118155000D02*
X146665888Y-116740000D01*
X146304888Y-114660000D02*
X146304888Y-113157000D01*
X145864888Y-114660000D02*
X145864888Y-113120000D01*
X147705888Y-117526000D02*
X147705888Y-116740000D01*
X147585888Y-117637000D02*
X147585888Y-116740000D01*
X145984888Y-118278000D02*
X145984888Y-116740000D01*
X146024888Y-118276000D02*
X146024888Y-116740000D01*
X148145888Y-116951000D02*
X148145888Y-114449000D01*
X147225888Y-114660000D02*
X147225888Y-113500000D01*
X146304888Y-118243000D02*
X146304888Y-116740000D01*
X145984888Y-114660000D02*
X145984888Y-113122000D01*
X147265888Y-117875000D02*
X147265888Y-116740000D01*
X146504888Y-118201000D02*
X146504888Y-116740000D01*
X146144888Y-114660000D02*
X146144888Y-113135000D01*
X146585888Y-114660000D02*
X146585888Y-113220000D01*
X146825888Y-114660000D02*
X146825888Y-113302000D01*
X147665888Y-114660000D02*
X147665888Y-113836000D01*
X146665888Y-114660000D02*
X146665888Y-113245000D01*
X148065888Y-117083000D02*
X148065888Y-114317000D01*
X145904888Y-114660000D02*
X145904888Y-113120000D01*
X147185888Y-117924000D02*
X147185888Y-116740000D01*
X145904888Y-118280000D02*
X145904888Y-116740000D01*
X147065888Y-117990000D02*
X147065888Y-116740000D01*
X147505888Y-117704000D02*
X147505888Y-116740000D01*
X147065888Y-114660000D02*
X147065888Y-113410000D01*
X146104888Y-114660000D02*
X146104888Y-113131000D01*
X146905888Y-114660000D02*
X146905888Y-113335000D01*
X146985888Y-118029000D02*
X146985888Y-116740000D01*
X147265888Y-114660000D02*
X147265888Y-113525000D01*
X146184888Y-118261000D02*
X146184888Y-116740000D01*
X147465888Y-114660000D02*
X147465888Y-113665000D01*
X146745888Y-118128000D02*
X146745888Y-116740000D01*
X147865888Y-114660000D02*
X147865888Y-114047000D01*
X145864888Y-118280000D02*
X145864888Y-116740000D01*
X143060113Y-117175000D02*
X143560113Y-117175000D01*
X147305888Y-114660000D02*
X147305888Y-113551000D01*
X147385888Y-114660000D02*
X147385888Y-113605000D01*
X146064888Y-118273000D02*
X146064888Y-116740000D01*
X146264888Y-118250000D02*
X146264888Y-116740000D01*
X147025888Y-118010000D02*
X147025888Y-116740000D01*
X147905888Y-117305000D02*
X147905888Y-114095000D01*
X146705888Y-118142000D02*
X146705888Y-116740000D01*
X146905888Y-118065000D02*
X146905888Y-116740000D01*
X147665888Y-117564000D02*
X147665888Y-116740000D01*
X146464888Y-114660000D02*
X146464888Y-113189000D01*
X146865888Y-118082000D02*
X146865888Y-116740000D01*
X146104888Y-118269000D02*
X146104888Y-116740000D01*
X147025888Y-114660000D02*
X147025888Y-113390000D01*
X147625888Y-114660000D02*
X147625888Y-113799000D01*
X146424888Y-114660000D02*
X146424888Y-113180000D01*
X147145888Y-114660000D02*
X147145888Y-113453000D01*
X147105888Y-114660000D02*
X147105888Y-113432000D01*
X147745888Y-114660000D02*
X147745888Y-113915000D01*
X148385888Y-116377000D02*
X148385888Y-115023000D01*
X147185888Y-114660000D02*
X147185888Y-113476000D01*
X147825888Y-114660000D02*
X147825888Y-114001000D01*
X146544888Y-114660000D02*
X146544888Y-113209000D01*
X147785888Y-117443000D02*
X147785888Y-116740000D01*
X147945888Y-117254000D02*
X147945888Y-114146000D01*
X146504888Y-114660000D02*
X146504888Y-113199000D01*
X148265888Y-116711000D02*
X148265888Y-114689000D01*
X146625888Y-114660000D02*
X146625888Y-113232000D01*
X146945888Y-118048000D02*
X146945888Y-116740000D01*
X148484888Y-115700000D02*
G75*
G02*
X143244888Y-115700000I-2620000J0D01*
G01*
X143244888Y-115700000D02*
G75*
G02*
X148484888Y-115700000I2620000J0D01*
G01*
%TO.C,R9*%
X186465000Y-84327064D02*
X186465000Y-83872936D01*
X187935000Y-84327064D02*
X187935000Y-83872936D01*
%TO.C,R28*%
X188590000Y-59590000D02*
X187970000Y-59590000D01*
X190430000Y-59590000D02*
G75*
G02*
X188590000Y-59590000I-920000J0D01*
G01*
X188590000Y-59590000D02*
G75*
G02*
X190430000Y-59590000I920000J0D01*
G01*
%TO.C,J1*%
X172805000Y-42105000D02*
X172805000Y-39505000D01*
X159985000Y-44705000D02*
X159985000Y-39505000D01*
X170205000Y-44705000D02*
X159985000Y-44705000D01*
X171475000Y-44705000D02*
X172805000Y-44705000D01*
X170205000Y-42105000D02*
X172805000Y-42105000D01*
X172805000Y-44705000D02*
X172805000Y-43375000D01*
X170205000Y-44705000D02*
X170205000Y-42105000D01*
X172805000Y-39505000D02*
X159985000Y-39505000D01*
%TO.C,D1*%
X191330000Y-49480000D02*
X193570000Y-49480000D01*
X192450000Y-53650000D02*
X192450000Y-53000000D01*
X191330000Y-49360000D02*
X193570000Y-49360000D01*
X191330000Y-48760000D02*
X193570000Y-48760000D01*
X193570000Y-48760000D02*
X193570000Y-53000000D01*
X191330000Y-53000000D02*
X191330000Y-48760000D01*
X191330000Y-49600000D02*
X193570000Y-49600000D01*
X193570000Y-53000000D02*
X191330000Y-53000000D01*
X192450000Y-48110000D02*
X192450000Y-48760000D01*
%TO.C,Q2*%
X190660000Y-68800000D02*
X190660000Y-65200000D01*
X195110000Y-67000000D02*
G75*
G02*
X190671522Y-68838478I-2600000J0D01*
G01*
X190671522Y-65161522D02*
G75*
G02*
X195110001Y-67000000I1838478J-1838478D01*
G01*
%TO.C,R38*%
X170345000Y-65177064D02*
X170345000Y-64722936D01*
X168875000Y-65177064D02*
X168875000Y-64722936D01*
%TO.C,R11*%
X176385000Y-75012936D02*
X176385000Y-75467064D01*
X174915000Y-75012936D02*
X174915000Y-75467064D01*
%TO.C,C10*%
X184835000Y-86438748D02*
X184835000Y-86961252D01*
X183365000Y-86438748D02*
X183365000Y-86961252D01*
%TO.C,R5*%
X172275000Y-93042936D02*
X172275000Y-93497064D01*
X170805000Y-93042936D02*
X170805000Y-93497064D01*
%TO.C,RV4*%
X182095000Y-42710000D02*
X182095000Y-44530000D01*
X182095000Y-39590000D02*
X188935000Y-39590000D01*
X188935000Y-39590000D02*
X188935000Y-41410000D01*
X182095000Y-44530000D02*
X188935000Y-44530000D01*
X182095000Y-39590000D02*
X182095000Y-41410000D01*
X188935000Y-42710000D02*
X188935000Y-44530000D01*
%TO.C,RV3*%
X189890000Y-53615000D02*
X188070000Y-53615000D01*
X189890000Y-46775000D02*
X189890000Y-53615000D01*
X184950000Y-46775000D02*
X184950000Y-53615000D01*
X186770000Y-53615000D02*
X184950000Y-53615000D01*
X189890000Y-46775000D02*
X188070000Y-46775000D01*
X186770000Y-46775000D02*
X184950000Y-46775000D01*
%TO.C,R10*%
X178405000Y-75012936D02*
X178405000Y-75467064D01*
X176935000Y-75012936D02*
X176935000Y-75467064D01*
%TO.C,R27*%
X188255000Y-115797064D02*
X188255000Y-115342936D01*
X189725000Y-115797064D02*
X189725000Y-115342936D01*
%TO.C,R39*%
X172355000Y-69027064D02*
X172355000Y-68572936D01*
X170885000Y-69027064D02*
X170885000Y-68572936D01*
%TO.C,Q1*%
X189500000Y-65120000D02*
X189500000Y-68720000D01*
X189488478Y-68758478D02*
G75*
G02*
X185049999Y-66920000I-1838478J1838478D01*
G01*
X185050000Y-66920000D02*
G75*
G02*
X189488478Y-65081522I2600000J0D01*
G01*
%TO.C,U1*%
X178725000Y-89595000D02*
X176775000Y-89595000D01*
X178725000Y-79475000D02*
X176775000Y-79475000D01*
X178725000Y-79475000D02*
X182175000Y-79475000D01*
X178725000Y-89595000D02*
X180675000Y-89595000D01*
%TO.C,R4*%
X177675000Y-97312936D02*
X177675000Y-97767064D01*
X179145000Y-97312936D02*
X179145000Y-97767064D01*
%TO.C,C3*%
X163945888Y-52335000D02*
X163945888Y-51340000D01*
X164185888Y-49260000D02*
X164185888Y-48474000D01*
X162624888Y-52865000D02*
X162624888Y-51340000D01*
X162864888Y-52828000D02*
X162864888Y-51340000D01*
X163985888Y-52304000D02*
X163985888Y-51340000D01*
X163465888Y-52629000D02*
X163465888Y-51340000D01*
X163265888Y-49260000D02*
X163265888Y-47886000D01*
X163145888Y-52755000D02*
X163145888Y-51340000D01*
X164705888Y-51398000D02*
X164705888Y-49202000D01*
X163625888Y-49260000D02*
X163625888Y-48053000D01*
X164825888Y-51105000D02*
X164825888Y-49495000D01*
X163024888Y-52791000D02*
X163024888Y-51340000D01*
X163865888Y-52395000D02*
X163865888Y-51340000D01*
X163625888Y-52547000D02*
X163625888Y-51340000D01*
X163185888Y-49260000D02*
X163185888Y-47858000D01*
X163185888Y-52742000D02*
X163185888Y-51340000D01*
X162704888Y-49260000D02*
X162704888Y-47744000D01*
X164305888Y-51999000D02*
X164305888Y-51340000D01*
X163825888Y-49260000D02*
X163825888Y-48178000D01*
X164185888Y-52126000D02*
X164185888Y-51340000D01*
X164025888Y-49260000D02*
X164025888Y-48329000D01*
X163785888Y-49260000D02*
X163785888Y-48151000D01*
X164225888Y-52085000D02*
X164225888Y-51340000D01*
X163505888Y-49260000D02*
X163505888Y-47990000D01*
X163225888Y-49260000D02*
X163225888Y-47872000D01*
X163825888Y-52422000D02*
X163825888Y-51340000D01*
X164105888Y-52201000D02*
X164105888Y-51340000D01*
X164345888Y-51953000D02*
X164345888Y-51340000D01*
X164385888Y-51905000D02*
X164385888Y-48695000D01*
X162384888Y-52880000D02*
X162384888Y-51340000D01*
X163585888Y-49260000D02*
X163585888Y-48032000D01*
X164145888Y-52164000D02*
X164145888Y-51340000D01*
X163945888Y-49260000D02*
X163945888Y-48265000D01*
X163024888Y-49260000D02*
X163024888Y-47809000D01*
X164585888Y-51619000D02*
X164585888Y-48981000D01*
X164065888Y-52237000D02*
X164065888Y-51340000D01*
X162944888Y-49260000D02*
X162944888Y-47789000D01*
X162664888Y-49260000D02*
X162664888Y-47739000D01*
X162904888Y-49260000D02*
X162904888Y-47780000D01*
X163385888Y-52665000D02*
X163385888Y-51340000D01*
X163265888Y-52714000D02*
X163265888Y-51340000D01*
X164625888Y-51551000D02*
X164625888Y-49049000D01*
X162864888Y-49260000D02*
X162864888Y-47772000D01*
X163985888Y-49260000D02*
X163985888Y-48296000D01*
X164745888Y-51311000D02*
X164745888Y-49289000D01*
X163585888Y-52568000D02*
X163585888Y-51340000D01*
X164225888Y-49260000D02*
X164225888Y-48515000D01*
X164025888Y-52271000D02*
X164025888Y-51340000D01*
X162704888Y-52856000D02*
X162704888Y-51340000D01*
X163905888Y-49260000D02*
X163905888Y-48235000D01*
X162784888Y-52843000D02*
X162784888Y-51340000D01*
X162384888Y-49260000D02*
X162384888Y-47720000D01*
X163785888Y-52449000D02*
X163785888Y-51340000D01*
X163305888Y-49260000D02*
X163305888Y-47902000D01*
X164545888Y-51683000D02*
X164545888Y-48917000D01*
X163465888Y-49260000D02*
X163465888Y-47971000D01*
X162624888Y-49260000D02*
X162624888Y-47735000D01*
X163305888Y-52698000D02*
X163305888Y-51340000D01*
X163665888Y-52524000D02*
X163665888Y-51340000D01*
X163425888Y-49260000D02*
X163425888Y-47952000D01*
X163745888Y-49260000D02*
X163745888Y-48125000D01*
X162944888Y-52811000D02*
X162944888Y-51340000D01*
X163065888Y-49260000D02*
X163065888Y-47820000D01*
X163745888Y-52475000D02*
X163745888Y-51340000D01*
X163065888Y-52780000D02*
X163065888Y-51340000D01*
X162904888Y-52820000D02*
X162904888Y-51340000D01*
X164785888Y-51215000D02*
X164785888Y-49385000D01*
X159790113Y-52025000D02*
X159790113Y-51525000D01*
X164065888Y-49260000D02*
X164065888Y-48363000D01*
X164945888Y-50584000D02*
X164945888Y-50016000D01*
X164905888Y-50818000D02*
X164905888Y-49782000D01*
X163425888Y-52648000D02*
X163425888Y-51340000D01*
X164665888Y-51478000D02*
X164665888Y-49122000D01*
X164265888Y-49260000D02*
X164265888Y-48557000D01*
X162464888Y-49260000D02*
X162464888Y-47722000D01*
X163345888Y-52682000D02*
X163345888Y-51340000D01*
X163145888Y-49260000D02*
X163145888Y-47845000D01*
X163545888Y-52590000D02*
X163545888Y-51340000D01*
X162344888Y-52880000D02*
X162344888Y-51340000D01*
X164145888Y-49260000D02*
X164145888Y-48436000D01*
X164265888Y-52043000D02*
X164265888Y-51340000D01*
X164305888Y-49260000D02*
X164305888Y-48601000D01*
X163665888Y-49260000D02*
X163665888Y-48076000D01*
X163105888Y-52768000D02*
X163105888Y-51340000D01*
X163505888Y-52610000D02*
X163505888Y-51340000D01*
X162504888Y-49260000D02*
X162504888Y-47724000D01*
X162584888Y-49260000D02*
X162584888Y-47731000D01*
X162544888Y-49260000D02*
X162544888Y-47727000D01*
X163345888Y-49260000D02*
X163345888Y-47918000D01*
X164345888Y-49260000D02*
X164345888Y-48647000D01*
X162824888Y-52836000D02*
X162824888Y-51340000D01*
X163905888Y-52365000D02*
X163905888Y-51340000D01*
X162664888Y-52861000D02*
X162664888Y-51340000D01*
X163545888Y-49260000D02*
X163545888Y-48010000D01*
X163865888Y-49260000D02*
X163865888Y-48205000D01*
X163225888Y-52728000D02*
X163225888Y-51340000D01*
X162984888Y-52801000D02*
X162984888Y-51340000D01*
X162744888Y-49260000D02*
X162744888Y-47750000D01*
X162504888Y-52876000D02*
X162504888Y-51340000D01*
X164465888Y-51800000D02*
X164465888Y-48800000D01*
X162584888Y-52869000D02*
X162584888Y-51340000D01*
X159540113Y-51775000D02*
X160040113Y-51775000D01*
X164505888Y-51743000D02*
X164505888Y-48857000D01*
X163385888Y-49260000D02*
X163385888Y-47935000D01*
X162824888Y-49260000D02*
X162824888Y-47764000D01*
X164865888Y-50977000D02*
X164865888Y-49623000D01*
X163705888Y-49260000D02*
X163705888Y-48100000D01*
X163105888Y-49260000D02*
X163105888Y-47832000D01*
X162984888Y-49260000D02*
X162984888Y-47799000D01*
X164105888Y-49260000D02*
X164105888Y-48399000D01*
X164425888Y-51854000D02*
X164425888Y-48746000D01*
X162784888Y-49260000D02*
X162784888Y-47757000D01*
X162424888Y-52879000D02*
X162424888Y-51340000D01*
X162424888Y-49260000D02*
X162424888Y-47721000D01*
X162464888Y-52878000D02*
X162464888Y-51340000D01*
X162744888Y-52850000D02*
X162744888Y-51340000D01*
X162344888Y-49260000D02*
X162344888Y-47720000D01*
X163705888Y-52500000D02*
X163705888Y-51340000D01*
X162544888Y-52873000D02*
X162544888Y-51340000D01*
X164964888Y-50300000D02*
G75*
G02*
X159724888Y-50300000I-2620000J0D01*
G01*
X159724888Y-50300000D02*
G75*
G02*
X164964888Y-50300000I2620000J0D01*
G01*
%TO.C,Q3*%
X147540000Y-92400000D02*
X147540000Y-88800000D01*
X151990000Y-90600000D02*
G75*
G02*
X147551522Y-92438478I-2600000J0D01*
G01*
X147551522Y-88761522D02*
G75*
G02*
X151990001Y-90600000I1838478J-1838478D01*
G01*
%TO.C,RV5*%
X131740000Y-92475000D02*
X129920000Y-92475000D01*
X128620000Y-85635000D02*
X126800000Y-85635000D01*
X126800000Y-85635000D02*
X126800000Y-92475000D01*
X128620000Y-92475000D02*
X126800000Y-92475000D01*
X131740000Y-85635000D02*
X129920000Y-85635000D01*
X131740000Y-85635000D02*
X131740000Y-92475000D01*
%TO.C,R37*%
X170885000Y-65177064D02*
X170885000Y-64722936D01*
X172355000Y-65177064D02*
X172355000Y-64722936D01*
%TO.C,C4*%
X171205888Y-49360000D02*
X171205888Y-47932000D01*
X171285888Y-52842000D02*
X171285888Y-51440000D01*
X170524888Y-52979000D02*
X170524888Y-51440000D01*
X171445888Y-49360000D02*
X171445888Y-48018000D01*
X172045888Y-49360000D02*
X172045888Y-48365000D01*
X170804888Y-49360000D02*
X170804888Y-47844000D01*
X170604888Y-49360000D02*
X170604888Y-47824000D01*
X172765888Y-51578000D02*
X172765888Y-49222000D01*
X171084888Y-52901000D02*
X171084888Y-51440000D01*
X172165888Y-52337000D02*
X172165888Y-51440000D01*
X170724888Y-52965000D02*
X170724888Y-51440000D01*
X171124888Y-52891000D02*
X171124888Y-51440000D01*
X170564888Y-52978000D02*
X170564888Y-51440000D01*
X172925888Y-51205000D02*
X172925888Y-49595000D01*
X172405888Y-52099000D02*
X172405888Y-51440000D01*
X170884888Y-52943000D02*
X170884888Y-51440000D01*
X172965888Y-51077000D02*
X172965888Y-49723000D01*
X170644888Y-52973000D02*
X170644888Y-51440000D01*
X173045888Y-50684000D02*
X173045888Y-50116000D01*
X171205888Y-52868000D02*
X171205888Y-51440000D01*
X167640113Y-51875000D02*
X168140113Y-51875000D01*
X171485888Y-49360000D02*
X171485888Y-48035000D01*
X172365888Y-52143000D02*
X172365888Y-51440000D01*
X171645888Y-49360000D02*
X171645888Y-48110000D01*
X172125888Y-52371000D02*
X172125888Y-51440000D01*
X171405888Y-49360000D02*
X171405888Y-48002000D01*
X172205888Y-52301000D02*
X172205888Y-51440000D01*
X172325888Y-52185000D02*
X172325888Y-51440000D01*
X172085888Y-52404000D02*
X172085888Y-51440000D01*
X171965888Y-52495000D02*
X171965888Y-51440000D01*
X172245888Y-52264000D02*
X172245888Y-51440000D01*
X170644888Y-49360000D02*
X170644888Y-47827000D01*
X172285888Y-52226000D02*
X172285888Y-51440000D01*
X170524888Y-49360000D02*
X170524888Y-47821000D01*
X171885888Y-49360000D02*
X171885888Y-48251000D01*
X172725888Y-51651000D02*
X172725888Y-49149000D01*
X171004888Y-52920000D02*
X171004888Y-51440000D01*
X172045888Y-52435000D02*
X172045888Y-51440000D01*
X172325888Y-49360000D02*
X172325888Y-48615000D01*
X172165888Y-49360000D02*
X172165888Y-48463000D01*
X172565888Y-51900000D02*
X172565888Y-48900000D01*
X172885888Y-51315000D02*
X172885888Y-49485000D01*
X170484888Y-49360000D02*
X170484888Y-47820000D01*
X170604888Y-52976000D02*
X170604888Y-51440000D01*
X171645888Y-52690000D02*
X171645888Y-51440000D01*
X171004888Y-49360000D02*
X171004888Y-47880000D01*
X171405888Y-52798000D02*
X171405888Y-51440000D01*
X172205888Y-49360000D02*
X172205888Y-48499000D01*
X170484888Y-52980000D02*
X170484888Y-51440000D01*
X171845888Y-49360000D02*
X171845888Y-48225000D01*
X171245888Y-49360000D02*
X171245888Y-47945000D01*
X171365888Y-52814000D02*
X171365888Y-51440000D01*
X170444888Y-52980000D02*
X170444888Y-51440000D01*
X171084888Y-49360000D02*
X171084888Y-47899000D01*
X171725888Y-49360000D02*
X171725888Y-48153000D01*
X170564888Y-49360000D02*
X170564888Y-47822000D01*
X172445888Y-52053000D02*
X172445888Y-51440000D01*
X172405888Y-49360000D02*
X172405888Y-48701000D01*
X171325888Y-52828000D02*
X171325888Y-51440000D01*
X171565888Y-49360000D02*
X171565888Y-48071000D01*
X172525888Y-51954000D02*
X172525888Y-48846000D01*
X171765888Y-52624000D02*
X171765888Y-51440000D01*
X172685888Y-51719000D02*
X172685888Y-49081000D01*
X170684888Y-49360000D02*
X170684888Y-47831000D01*
X171285888Y-49360000D02*
X171285888Y-47958000D01*
X171885888Y-52549000D02*
X171885888Y-51440000D01*
X171165888Y-49360000D02*
X171165888Y-47920000D01*
X172805888Y-51498000D02*
X172805888Y-49302000D01*
X170764888Y-52961000D02*
X170764888Y-51440000D01*
X171965888Y-49360000D02*
X171965888Y-48305000D01*
X172845888Y-51411000D02*
X172845888Y-49389000D01*
X171845888Y-52575000D02*
X171845888Y-51440000D01*
X170924888Y-52936000D02*
X170924888Y-51440000D01*
X170964888Y-49360000D02*
X170964888Y-47872000D01*
X171725888Y-52647000D02*
X171725888Y-51440000D01*
X171165888Y-52880000D02*
X171165888Y-51440000D01*
X171685888Y-52668000D02*
X171685888Y-51440000D01*
X170764888Y-49360000D02*
X170764888Y-47839000D01*
X172125888Y-49360000D02*
X172125888Y-48429000D01*
X172365888Y-49360000D02*
X172365888Y-48657000D01*
X172285888Y-49360000D02*
X172285888Y-48574000D01*
X171044888Y-49360000D02*
X171044888Y-47889000D01*
X172645888Y-51783000D02*
X172645888Y-49017000D01*
X171805888Y-52600000D02*
X171805888Y-51440000D01*
X171445888Y-52782000D02*
X171445888Y-51440000D01*
X171925888Y-52522000D02*
X171925888Y-51440000D01*
X170844888Y-49360000D02*
X170844888Y-47850000D01*
X171685888Y-49360000D02*
X171685888Y-48132000D01*
X171765888Y-49360000D02*
X171765888Y-48176000D01*
X171245888Y-52855000D02*
X171245888Y-51440000D01*
X170844888Y-52950000D02*
X170844888Y-51440000D01*
X171124888Y-49360000D02*
X171124888Y-47909000D01*
X172445888Y-49360000D02*
X172445888Y-48747000D01*
X170684888Y-52969000D02*
X170684888Y-51440000D01*
X172005888Y-52465000D02*
X172005888Y-51440000D01*
X173005888Y-50918000D02*
X173005888Y-49882000D01*
X172085888Y-49360000D02*
X172085888Y-48396000D01*
X171365888Y-49360000D02*
X171365888Y-47986000D01*
X171044888Y-52911000D02*
X171044888Y-51440000D01*
X170924888Y-49360000D02*
X170924888Y-47864000D01*
X172005888Y-49360000D02*
X172005888Y-48335000D01*
X170804888Y-52956000D02*
X170804888Y-51440000D01*
X171525888Y-52748000D02*
X171525888Y-51440000D01*
X171605888Y-49360000D02*
X171605888Y-48090000D01*
X170724888Y-49360000D02*
X170724888Y-47835000D01*
X170884888Y-49360000D02*
X170884888Y-47857000D01*
X171485888Y-52765000D02*
X171485888Y-51440000D01*
X171565888Y-52729000D02*
X171565888Y-51440000D01*
X172605888Y-51843000D02*
X172605888Y-48957000D01*
X171805888Y-49360000D02*
X171805888Y-48200000D01*
X167890113Y-52125000D02*
X167890113Y-51625000D01*
X172245888Y-49360000D02*
X172245888Y-48536000D01*
X171605888Y-52710000D02*
X171605888Y-51440000D01*
X171525888Y-49360000D02*
X171525888Y-48052000D01*
X171925888Y-49360000D02*
X171925888Y-48278000D01*
X171325888Y-49360000D02*
X171325888Y-47972000D01*
X172485888Y-52005000D02*
X172485888Y-48795000D01*
X170964888Y-52928000D02*
X170964888Y-51440000D01*
X170444888Y-49360000D02*
X170444888Y-47820000D01*
X173064888Y-50400000D02*
G75*
G02*
X167824888Y-50400000I-2620000J0D01*
G01*
X167824888Y-50400000D02*
G75*
G02*
X173064888Y-50400000I2620000J0D01*
G01*
%TD*%
M02*
