%TF.GenerationSoftware,KiCad,Pcbnew,8.0.3*%
%TF.CreationDate,2024-12-05T20:13:47+00:00*%
%TF.ProjectId,Thomas-Henry-VCOv2,54686f6d-6173-42d4-9865-6e72792d5643,rev?*%
%TF.SameCoordinates,Original*%
%TF.FileFunction,Copper,L2,Bot*%
%TF.FilePolarity,Positive*%
%FSLAX46Y46*%
G04 Gerber Fmt 4.6, Leading zero omitted, Abs format (unit mm)*
G04 Created by KiCad (PCBNEW 8.0.3) date 2024-12-05 20:13:47*
%MOMM*%
%LPD*%
G01*
G04 APERTURE LIST*
G04 Aperture macros list*
%AMRoundRect*
0 Rectangle with rounded corners*
0 $1 Rounding radius*
0 $2 $3 $4 $5 $6 $7 $8 $9 X,Y pos of 4 corners*
0 Add a 4 corners polygon primitive as box body*
4,1,4,$2,$3,$4,$5,$6,$7,$8,$9,$2,$3,0*
0 Add four circle primitives for the rounded corners*
1,1,$1+$1,$2,$3*
1,1,$1+$1,$4,$5*
1,1,$1+$1,$6,$7*
1,1,$1+$1,$8,$9*
0 Add four rect primitives between the rounded corners*
20,1,$1+$1,$2,$3,$4,$5,0*
20,1,$1+$1,$4,$5,$6,$7,0*
20,1,$1+$1,$6,$7,$8,$9,0*
20,1,$1+$1,$8,$9,$2,$3,0*%
G04 Aperture macros list end*
%ADD10C,0.100000*%
%ADD11C,0.150000*%
%ADD12C,0.300000*%
%ADD13C,0.400000*%
%TA.AperFunction,ComponentPad*%
%ADD14R,1.800000X1.800000*%
%TD*%
%TA.AperFunction,ComponentPad*%
%ADD15C,1.800000*%
%TD*%
%TA.AperFunction,ComponentPad*%
%ADD16RoundRect,0.750000X0.750000X-1.250000X0.750000X1.250000X-0.750000X1.250000X-0.750000X-1.250000X0*%
%TD*%
%TA.AperFunction,ComponentPad*%
%ADD17O,2.000000X4.000000*%
%TD*%
%TA.AperFunction,ComponentPad*%
%ADD18O,4.000000X2.000000*%
%TD*%
%TA.AperFunction,SMDPad,CuDef*%
%ADD19RoundRect,0.250000X-0.475000X0.337500X-0.475000X-0.337500X0.475000X-0.337500X0.475000X0.337500X0*%
%TD*%
%TA.AperFunction,ComponentPad*%
%ADD20R,2.400000X1.600000*%
%TD*%
%TA.AperFunction,ComponentPad*%
%ADD21O,2.400000X1.600000*%
%TD*%
%TA.AperFunction,ComponentPad*%
%ADD22C,1.440000*%
%TD*%
%TA.AperFunction,ComponentPad*%
%ADD23R,1.600000X1.600000*%
%TD*%
%TA.AperFunction,ComponentPad*%
%ADD24O,1.600000X1.600000*%
%TD*%
%TA.AperFunction,SMDPad,CuDef*%
%ADD25RoundRect,0.250000X0.450000X-0.350000X0.450000X0.350000X-0.450000X0.350000X-0.450000X-0.350000X0*%
%TD*%
%TA.AperFunction,SMDPad,CuDef*%
%ADD26RoundRect,0.250000X-0.450000X0.350000X-0.450000X-0.350000X0.450000X-0.350000X0.450000X0.350000X0*%
%TD*%
%TA.AperFunction,ComponentPad*%
%ADD27C,1.600000*%
%TD*%
%TA.AperFunction,ComponentPad*%
%ADD28C,1.400000*%
%TD*%
%TA.AperFunction,ComponentPad*%
%ADD29O,1.400000X1.400000*%
%TD*%
%TA.AperFunction,ComponentPad*%
%ADD30R,1.700000X1.700000*%
%TD*%
%TA.AperFunction,ComponentPad*%
%ADD31O,1.700000X1.700000*%
%TD*%
%TA.AperFunction,ComponentPad*%
%ADD32R,1.500000X1.050000*%
%TD*%
%TA.AperFunction,ComponentPad*%
%ADD33O,1.500000X1.050000*%
%TD*%
%TA.AperFunction,SMDPad,CuDef*%
%ADD34RoundRect,0.150000X0.825000X0.150000X-0.825000X0.150000X-0.825000X-0.150000X0.825000X-0.150000X0*%
%TD*%
%TA.AperFunction,ViaPad*%
%ADD35C,0.800000*%
%TD*%
%TA.AperFunction,Conductor*%
%ADD36C,0.400000*%
%TD*%
%TA.AperFunction,Conductor*%
%ADD37C,0.600000*%
%TD*%
%TA.AperFunction,Conductor*%
%ADD38C,0.800000*%
%TD*%
%TA.AperFunction,Conductor*%
%ADD39C,1.400000*%
%TD*%
G04 APERTURE END LIST*
D10*
D11*
X177002200Y-166007200D02*
X285002200Y-166007200D01*
X285002200Y-198007200D01*
X177002200Y-198007200D01*
X177002200Y-166007200D01*
D10*
D11*
X10000000Y-10000000D02*
X287002200Y-10000000D01*
X287002200Y-200007200D01*
X10000000Y-200007200D01*
X10000000Y-10000000D01*
D10*
D11*
X12000000Y-12000000D02*
X285002200Y-12000000D01*
X285002200Y-198007200D01*
X12000000Y-198007200D01*
X12000000Y-12000000D01*
D10*
D11*
X60000000Y-12000000D02*
X60000000Y-10000000D01*
D10*
D11*
X110000000Y-12000000D02*
X110000000Y-10000000D01*
D10*
D11*
X160000000Y-12000000D02*
X160000000Y-10000000D01*
D10*
D11*
X210000000Y-12000000D02*
X210000000Y-10000000D01*
D10*
D11*
X260000000Y-12000000D02*
X260000000Y-10000000D01*
D10*
D11*
X36089160Y-11593604D02*
X35346303Y-11593604D01*
X35717731Y-11593604D02*
X35717731Y-10293604D01*
X35717731Y-10293604D02*
X35593922Y-10479319D01*
X35593922Y-10479319D02*
X35470112Y-10603128D01*
X35470112Y-10603128D02*
X35346303Y-10665033D01*
D10*
D11*
X85346303Y-10417414D02*
X85408207Y-10355509D01*
X85408207Y-10355509D02*
X85532017Y-10293604D01*
X85532017Y-10293604D02*
X85841541Y-10293604D01*
X85841541Y-10293604D02*
X85965350Y-10355509D01*
X85965350Y-10355509D02*
X86027255Y-10417414D01*
X86027255Y-10417414D02*
X86089160Y-10541223D01*
X86089160Y-10541223D02*
X86089160Y-10665033D01*
X86089160Y-10665033D02*
X86027255Y-10850747D01*
X86027255Y-10850747D02*
X85284398Y-11593604D01*
X85284398Y-11593604D02*
X86089160Y-11593604D01*
D10*
D11*
X135284398Y-10293604D02*
X136089160Y-10293604D01*
X136089160Y-10293604D02*
X135655826Y-10788842D01*
X135655826Y-10788842D02*
X135841541Y-10788842D01*
X135841541Y-10788842D02*
X135965350Y-10850747D01*
X135965350Y-10850747D02*
X136027255Y-10912652D01*
X136027255Y-10912652D02*
X136089160Y-11036461D01*
X136089160Y-11036461D02*
X136089160Y-11345985D01*
X136089160Y-11345985D02*
X136027255Y-11469795D01*
X136027255Y-11469795D02*
X135965350Y-11531700D01*
X135965350Y-11531700D02*
X135841541Y-11593604D01*
X135841541Y-11593604D02*
X135470112Y-11593604D01*
X135470112Y-11593604D02*
X135346303Y-11531700D01*
X135346303Y-11531700D02*
X135284398Y-11469795D01*
D10*
D11*
X185965350Y-10726938D02*
X185965350Y-11593604D01*
X185655826Y-10231700D02*
X185346303Y-11160271D01*
X185346303Y-11160271D02*
X186151064Y-11160271D01*
D10*
D11*
X236027255Y-10293604D02*
X235408207Y-10293604D01*
X235408207Y-10293604D02*
X235346303Y-10912652D01*
X235346303Y-10912652D02*
X235408207Y-10850747D01*
X235408207Y-10850747D02*
X235532017Y-10788842D01*
X235532017Y-10788842D02*
X235841541Y-10788842D01*
X235841541Y-10788842D02*
X235965350Y-10850747D01*
X235965350Y-10850747D02*
X236027255Y-10912652D01*
X236027255Y-10912652D02*
X236089160Y-11036461D01*
X236089160Y-11036461D02*
X236089160Y-11345985D01*
X236089160Y-11345985D02*
X236027255Y-11469795D01*
X236027255Y-11469795D02*
X235965350Y-11531700D01*
X235965350Y-11531700D02*
X235841541Y-11593604D01*
X235841541Y-11593604D02*
X235532017Y-11593604D01*
X235532017Y-11593604D02*
X235408207Y-11531700D01*
X235408207Y-11531700D02*
X235346303Y-11469795D01*
D10*
D11*
X285965350Y-10293604D02*
X285717731Y-10293604D01*
X285717731Y-10293604D02*
X285593922Y-10355509D01*
X285593922Y-10355509D02*
X285532017Y-10417414D01*
X285532017Y-10417414D02*
X285408207Y-10603128D01*
X285408207Y-10603128D02*
X285346303Y-10850747D01*
X285346303Y-10850747D02*
X285346303Y-11345985D01*
X285346303Y-11345985D02*
X285408207Y-11469795D01*
X285408207Y-11469795D02*
X285470112Y-11531700D01*
X285470112Y-11531700D02*
X285593922Y-11593604D01*
X285593922Y-11593604D02*
X285841541Y-11593604D01*
X285841541Y-11593604D02*
X285965350Y-11531700D01*
X285965350Y-11531700D02*
X286027255Y-11469795D01*
X286027255Y-11469795D02*
X286089160Y-11345985D01*
X286089160Y-11345985D02*
X286089160Y-11036461D01*
X286089160Y-11036461D02*
X286027255Y-10912652D01*
X286027255Y-10912652D02*
X285965350Y-10850747D01*
X285965350Y-10850747D02*
X285841541Y-10788842D01*
X285841541Y-10788842D02*
X285593922Y-10788842D01*
X285593922Y-10788842D02*
X285470112Y-10850747D01*
X285470112Y-10850747D02*
X285408207Y-10912652D01*
X285408207Y-10912652D02*
X285346303Y-11036461D01*
D10*
D11*
X60000000Y-198007200D02*
X60000000Y-200007200D01*
D10*
D11*
X110000000Y-198007200D02*
X110000000Y-200007200D01*
D10*
D11*
X160000000Y-198007200D02*
X160000000Y-200007200D01*
D10*
D11*
X210000000Y-198007200D02*
X210000000Y-200007200D01*
D10*
D11*
X260000000Y-198007200D02*
X260000000Y-200007200D01*
D10*
D11*
X36089160Y-199600804D02*
X35346303Y-199600804D01*
X35717731Y-199600804D02*
X35717731Y-198300804D01*
X35717731Y-198300804D02*
X35593922Y-198486519D01*
X35593922Y-198486519D02*
X35470112Y-198610328D01*
X35470112Y-198610328D02*
X35346303Y-198672233D01*
D10*
D11*
X85346303Y-198424614D02*
X85408207Y-198362709D01*
X85408207Y-198362709D02*
X85532017Y-198300804D01*
X85532017Y-198300804D02*
X85841541Y-198300804D01*
X85841541Y-198300804D02*
X85965350Y-198362709D01*
X85965350Y-198362709D02*
X86027255Y-198424614D01*
X86027255Y-198424614D02*
X86089160Y-198548423D01*
X86089160Y-198548423D02*
X86089160Y-198672233D01*
X86089160Y-198672233D02*
X86027255Y-198857947D01*
X86027255Y-198857947D02*
X85284398Y-199600804D01*
X85284398Y-199600804D02*
X86089160Y-199600804D01*
D10*
D11*
X135284398Y-198300804D02*
X136089160Y-198300804D01*
X136089160Y-198300804D02*
X135655826Y-198796042D01*
X135655826Y-198796042D02*
X135841541Y-198796042D01*
X135841541Y-198796042D02*
X135965350Y-198857947D01*
X135965350Y-198857947D02*
X136027255Y-198919852D01*
X136027255Y-198919852D02*
X136089160Y-199043661D01*
X136089160Y-199043661D02*
X136089160Y-199353185D01*
X136089160Y-199353185D02*
X136027255Y-199476995D01*
X136027255Y-199476995D02*
X135965350Y-199538900D01*
X135965350Y-199538900D02*
X135841541Y-199600804D01*
X135841541Y-199600804D02*
X135470112Y-199600804D01*
X135470112Y-199600804D02*
X135346303Y-199538900D01*
X135346303Y-199538900D02*
X135284398Y-199476995D01*
D10*
D11*
X185965350Y-198734138D02*
X185965350Y-199600804D01*
X185655826Y-198238900D02*
X185346303Y-199167471D01*
X185346303Y-199167471D02*
X186151064Y-199167471D01*
D10*
D11*
X236027255Y-198300804D02*
X235408207Y-198300804D01*
X235408207Y-198300804D02*
X235346303Y-198919852D01*
X235346303Y-198919852D02*
X235408207Y-198857947D01*
X235408207Y-198857947D02*
X235532017Y-198796042D01*
X235532017Y-198796042D02*
X235841541Y-198796042D01*
X235841541Y-198796042D02*
X235965350Y-198857947D01*
X235965350Y-198857947D02*
X236027255Y-198919852D01*
X236027255Y-198919852D02*
X236089160Y-199043661D01*
X236089160Y-199043661D02*
X236089160Y-199353185D01*
X236089160Y-199353185D02*
X236027255Y-199476995D01*
X236027255Y-199476995D02*
X235965350Y-199538900D01*
X235965350Y-199538900D02*
X235841541Y-199600804D01*
X235841541Y-199600804D02*
X235532017Y-199600804D01*
X235532017Y-199600804D02*
X235408207Y-199538900D01*
X235408207Y-199538900D02*
X235346303Y-199476995D01*
D10*
D11*
X285965350Y-198300804D02*
X285717731Y-198300804D01*
X285717731Y-198300804D02*
X285593922Y-198362709D01*
X285593922Y-198362709D02*
X285532017Y-198424614D01*
X285532017Y-198424614D02*
X285408207Y-198610328D01*
X285408207Y-198610328D02*
X285346303Y-198857947D01*
X285346303Y-198857947D02*
X285346303Y-199353185D01*
X285346303Y-199353185D02*
X285408207Y-199476995D01*
X285408207Y-199476995D02*
X285470112Y-199538900D01*
X285470112Y-199538900D02*
X285593922Y-199600804D01*
X285593922Y-199600804D02*
X285841541Y-199600804D01*
X285841541Y-199600804D02*
X285965350Y-199538900D01*
X285965350Y-199538900D02*
X286027255Y-199476995D01*
X286027255Y-199476995D02*
X286089160Y-199353185D01*
X286089160Y-199353185D02*
X286089160Y-199043661D01*
X286089160Y-199043661D02*
X286027255Y-198919852D01*
X286027255Y-198919852D02*
X285965350Y-198857947D01*
X285965350Y-198857947D02*
X285841541Y-198796042D01*
X285841541Y-198796042D02*
X285593922Y-198796042D01*
X285593922Y-198796042D02*
X285470112Y-198857947D01*
X285470112Y-198857947D02*
X285408207Y-198919852D01*
X285408207Y-198919852D02*
X285346303Y-199043661D01*
D10*
D11*
X10000000Y-60000000D02*
X12000000Y-60000000D01*
D10*
D11*
X10000000Y-110000000D02*
X12000000Y-110000000D01*
D10*
D11*
X10000000Y-160000000D02*
X12000000Y-160000000D01*
D10*
D11*
X10690476Y-35222176D02*
X11309523Y-35222176D01*
X10566666Y-35593604D02*
X10999999Y-34293604D01*
X10999999Y-34293604D02*
X11433333Y-35593604D01*
D10*
D11*
X11092857Y-84912652D02*
X11278571Y-84974557D01*
X11278571Y-84974557D02*
X11340476Y-85036461D01*
X11340476Y-85036461D02*
X11402380Y-85160271D01*
X11402380Y-85160271D02*
X11402380Y-85345985D01*
X11402380Y-85345985D02*
X11340476Y-85469795D01*
X11340476Y-85469795D02*
X11278571Y-85531700D01*
X11278571Y-85531700D02*
X11154761Y-85593604D01*
X11154761Y-85593604D02*
X10659523Y-85593604D01*
X10659523Y-85593604D02*
X10659523Y-84293604D01*
X10659523Y-84293604D02*
X11092857Y-84293604D01*
X11092857Y-84293604D02*
X11216666Y-84355509D01*
X11216666Y-84355509D02*
X11278571Y-84417414D01*
X11278571Y-84417414D02*
X11340476Y-84541223D01*
X11340476Y-84541223D02*
X11340476Y-84665033D01*
X11340476Y-84665033D02*
X11278571Y-84788842D01*
X11278571Y-84788842D02*
X11216666Y-84850747D01*
X11216666Y-84850747D02*
X11092857Y-84912652D01*
X11092857Y-84912652D02*
X10659523Y-84912652D01*
D10*
D11*
X11402380Y-135469795D02*
X11340476Y-135531700D01*
X11340476Y-135531700D02*
X11154761Y-135593604D01*
X11154761Y-135593604D02*
X11030952Y-135593604D01*
X11030952Y-135593604D02*
X10845238Y-135531700D01*
X10845238Y-135531700D02*
X10721428Y-135407890D01*
X10721428Y-135407890D02*
X10659523Y-135284080D01*
X10659523Y-135284080D02*
X10597619Y-135036461D01*
X10597619Y-135036461D02*
X10597619Y-134850747D01*
X10597619Y-134850747D02*
X10659523Y-134603128D01*
X10659523Y-134603128D02*
X10721428Y-134479319D01*
X10721428Y-134479319D02*
X10845238Y-134355509D01*
X10845238Y-134355509D02*
X11030952Y-134293604D01*
X11030952Y-134293604D02*
X11154761Y-134293604D01*
X11154761Y-134293604D02*
X11340476Y-134355509D01*
X11340476Y-134355509D02*
X11402380Y-134417414D01*
D10*
D11*
X10659523Y-185593604D02*
X10659523Y-184293604D01*
X10659523Y-184293604D02*
X10969047Y-184293604D01*
X10969047Y-184293604D02*
X11154761Y-184355509D01*
X11154761Y-184355509D02*
X11278571Y-184479319D01*
X11278571Y-184479319D02*
X11340476Y-184603128D01*
X11340476Y-184603128D02*
X11402380Y-184850747D01*
X11402380Y-184850747D02*
X11402380Y-185036461D01*
X11402380Y-185036461D02*
X11340476Y-185284080D01*
X11340476Y-185284080D02*
X11278571Y-185407890D01*
X11278571Y-185407890D02*
X11154761Y-185531700D01*
X11154761Y-185531700D02*
X10969047Y-185593604D01*
X10969047Y-185593604D02*
X10659523Y-185593604D01*
D10*
D11*
X287002200Y-60000000D02*
X285002200Y-60000000D01*
D10*
D11*
X287002200Y-110000000D02*
X285002200Y-110000000D01*
D10*
D11*
X287002200Y-160000000D02*
X285002200Y-160000000D01*
D10*
D11*
X285692676Y-35222176D02*
X286311723Y-35222176D01*
X285568866Y-35593604D02*
X286002199Y-34293604D01*
X286002199Y-34293604D02*
X286435533Y-35593604D01*
D10*
D11*
X286095057Y-84912652D02*
X286280771Y-84974557D01*
X286280771Y-84974557D02*
X286342676Y-85036461D01*
X286342676Y-85036461D02*
X286404580Y-85160271D01*
X286404580Y-85160271D02*
X286404580Y-85345985D01*
X286404580Y-85345985D02*
X286342676Y-85469795D01*
X286342676Y-85469795D02*
X286280771Y-85531700D01*
X286280771Y-85531700D02*
X286156961Y-85593604D01*
X286156961Y-85593604D02*
X285661723Y-85593604D01*
X285661723Y-85593604D02*
X285661723Y-84293604D01*
X285661723Y-84293604D02*
X286095057Y-84293604D01*
X286095057Y-84293604D02*
X286218866Y-84355509D01*
X286218866Y-84355509D02*
X286280771Y-84417414D01*
X286280771Y-84417414D02*
X286342676Y-84541223D01*
X286342676Y-84541223D02*
X286342676Y-84665033D01*
X286342676Y-84665033D02*
X286280771Y-84788842D01*
X286280771Y-84788842D02*
X286218866Y-84850747D01*
X286218866Y-84850747D02*
X286095057Y-84912652D01*
X286095057Y-84912652D02*
X285661723Y-84912652D01*
D10*
D11*
X286404580Y-135469795D02*
X286342676Y-135531700D01*
X286342676Y-135531700D02*
X286156961Y-135593604D01*
X286156961Y-135593604D02*
X286033152Y-135593604D01*
X286033152Y-135593604D02*
X285847438Y-135531700D01*
X285847438Y-135531700D02*
X285723628Y-135407890D01*
X285723628Y-135407890D02*
X285661723Y-135284080D01*
X285661723Y-135284080D02*
X285599819Y-135036461D01*
X285599819Y-135036461D02*
X285599819Y-134850747D01*
X285599819Y-134850747D02*
X285661723Y-134603128D01*
X285661723Y-134603128D02*
X285723628Y-134479319D01*
X285723628Y-134479319D02*
X285847438Y-134355509D01*
X285847438Y-134355509D02*
X286033152Y-134293604D01*
X286033152Y-134293604D02*
X286156961Y-134293604D01*
X286156961Y-134293604D02*
X286342676Y-134355509D01*
X286342676Y-134355509D02*
X286404580Y-134417414D01*
D10*
D11*
X285661723Y-185593604D02*
X285661723Y-184293604D01*
X285661723Y-184293604D02*
X285971247Y-184293604D01*
X285971247Y-184293604D02*
X286156961Y-184355509D01*
X286156961Y-184355509D02*
X286280771Y-184479319D01*
X286280771Y-184479319D02*
X286342676Y-184603128D01*
X286342676Y-184603128D02*
X286404580Y-184850747D01*
X286404580Y-184850747D02*
X286404580Y-185036461D01*
X286404580Y-185036461D02*
X286342676Y-185284080D01*
X286342676Y-185284080D02*
X286280771Y-185407890D01*
X286280771Y-185407890D02*
X286156961Y-185531700D01*
X286156961Y-185531700D02*
X285971247Y-185593604D01*
X285971247Y-185593604D02*
X285661723Y-185593604D01*
D10*
D11*
X200458026Y-193793328D02*
X200458026Y-192293328D01*
X200458026Y-192293328D02*
X200815169Y-192293328D01*
X200815169Y-192293328D02*
X201029455Y-192364757D01*
X201029455Y-192364757D02*
X201172312Y-192507614D01*
X201172312Y-192507614D02*
X201243741Y-192650471D01*
X201243741Y-192650471D02*
X201315169Y-192936185D01*
X201315169Y-192936185D02*
X201315169Y-193150471D01*
X201315169Y-193150471D02*
X201243741Y-193436185D01*
X201243741Y-193436185D02*
X201172312Y-193579042D01*
X201172312Y-193579042D02*
X201029455Y-193721900D01*
X201029455Y-193721900D02*
X200815169Y-193793328D01*
X200815169Y-193793328D02*
X200458026Y-193793328D01*
X202600884Y-193793328D02*
X202600884Y-193007614D01*
X202600884Y-193007614D02*
X202529455Y-192864757D01*
X202529455Y-192864757D02*
X202386598Y-192793328D01*
X202386598Y-192793328D02*
X202100884Y-192793328D01*
X202100884Y-192793328D02*
X201958026Y-192864757D01*
X202600884Y-193721900D02*
X202458026Y-193793328D01*
X202458026Y-193793328D02*
X202100884Y-193793328D01*
X202100884Y-193793328D02*
X201958026Y-193721900D01*
X201958026Y-193721900D02*
X201886598Y-193579042D01*
X201886598Y-193579042D02*
X201886598Y-193436185D01*
X201886598Y-193436185D02*
X201958026Y-193293328D01*
X201958026Y-193293328D02*
X202100884Y-193221900D01*
X202100884Y-193221900D02*
X202458026Y-193221900D01*
X202458026Y-193221900D02*
X202600884Y-193150471D01*
X203100884Y-192793328D02*
X203672312Y-192793328D01*
X203315169Y-192293328D02*
X203315169Y-193579042D01*
X203315169Y-193579042D02*
X203386598Y-193721900D01*
X203386598Y-193721900D02*
X203529455Y-193793328D01*
X203529455Y-193793328D02*
X203672312Y-193793328D01*
X204743741Y-193721900D02*
X204600884Y-193793328D01*
X204600884Y-193793328D02*
X204315170Y-193793328D01*
X204315170Y-193793328D02*
X204172312Y-193721900D01*
X204172312Y-193721900D02*
X204100884Y-193579042D01*
X204100884Y-193579042D02*
X204100884Y-193007614D01*
X204100884Y-193007614D02*
X204172312Y-192864757D01*
X204172312Y-192864757D02*
X204315170Y-192793328D01*
X204315170Y-192793328D02*
X204600884Y-192793328D01*
X204600884Y-192793328D02*
X204743741Y-192864757D01*
X204743741Y-192864757D02*
X204815170Y-193007614D01*
X204815170Y-193007614D02*
X204815170Y-193150471D01*
X204815170Y-193150471D02*
X204100884Y-193293328D01*
X205458026Y-193650471D02*
X205529455Y-193721900D01*
X205529455Y-193721900D02*
X205458026Y-193793328D01*
X205458026Y-193793328D02*
X205386598Y-193721900D01*
X205386598Y-193721900D02*
X205458026Y-193650471D01*
X205458026Y-193650471D02*
X205458026Y-193793328D01*
X205458026Y-192864757D02*
X205529455Y-192936185D01*
X205529455Y-192936185D02*
X205458026Y-193007614D01*
X205458026Y-193007614D02*
X205386598Y-192936185D01*
X205386598Y-192936185D02*
X205458026Y-192864757D01*
X205458026Y-192864757D02*
X205458026Y-193007614D01*
D10*
D11*
X177002200Y-194507200D02*
X285002200Y-194507200D01*
D10*
D11*
X178458026Y-196593328D02*
X178458026Y-195093328D01*
X179315169Y-196593328D02*
X178672312Y-195736185D01*
X179315169Y-195093328D02*
X178458026Y-195950471D01*
X179958026Y-196593328D02*
X179958026Y-195593328D01*
X179958026Y-195093328D02*
X179886598Y-195164757D01*
X179886598Y-195164757D02*
X179958026Y-195236185D01*
X179958026Y-195236185D02*
X180029455Y-195164757D01*
X180029455Y-195164757D02*
X179958026Y-195093328D01*
X179958026Y-195093328D02*
X179958026Y-195236185D01*
X181529455Y-196450471D02*
X181458027Y-196521900D01*
X181458027Y-196521900D02*
X181243741Y-196593328D01*
X181243741Y-196593328D02*
X181100884Y-196593328D01*
X181100884Y-196593328D02*
X180886598Y-196521900D01*
X180886598Y-196521900D02*
X180743741Y-196379042D01*
X180743741Y-196379042D02*
X180672312Y-196236185D01*
X180672312Y-196236185D02*
X180600884Y-195950471D01*
X180600884Y-195950471D02*
X180600884Y-195736185D01*
X180600884Y-195736185D02*
X180672312Y-195450471D01*
X180672312Y-195450471D02*
X180743741Y-195307614D01*
X180743741Y-195307614D02*
X180886598Y-195164757D01*
X180886598Y-195164757D02*
X181100884Y-195093328D01*
X181100884Y-195093328D02*
X181243741Y-195093328D01*
X181243741Y-195093328D02*
X181458027Y-195164757D01*
X181458027Y-195164757D02*
X181529455Y-195236185D01*
X182815170Y-196593328D02*
X182815170Y-195807614D01*
X182815170Y-195807614D02*
X182743741Y-195664757D01*
X182743741Y-195664757D02*
X182600884Y-195593328D01*
X182600884Y-195593328D02*
X182315170Y-195593328D01*
X182315170Y-195593328D02*
X182172312Y-195664757D01*
X182815170Y-196521900D02*
X182672312Y-196593328D01*
X182672312Y-196593328D02*
X182315170Y-196593328D01*
X182315170Y-196593328D02*
X182172312Y-196521900D01*
X182172312Y-196521900D02*
X182100884Y-196379042D01*
X182100884Y-196379042D02*
X182100884Y-196236185D01*
X182100884Y-196236185D02*
X182172312Y-196093328D01*
X182172312Y-196093328D02*
X182315170Y-196021900D01*
X182315170Y-196021900D02*
X182672312Y-196021900D01*
X182672312Y-196021900D02*
X182815170Y-195950471D01*
X184172313Y-196593328D02*
X184172313Y-195093328D01*
X184172313Y-196521900D02*
X184029455Y-196593328D01*
X184029455Y-196593328D02*
X183743741Y-196593328D01*
X183743741Y-196593328D02*
X183600884Y-196521900D01*
X183600884Y-196521900D02*
X183529455Y-196450471D01*
X183529455Y-196450471D02*
X183458027Y-196307614D01*
X183458027Y-196307614D02*
X183458027Y-195879042D01*
X183458027Y-195879042D02*
X183529455Y-195736185D01*
X183529455Y-195736185D02*
X183600884Y-195664757D01*
X183600884Y-195664757D02*
X183743741Y-195593328D01*
X183743741Y-195593328D02*
X184029455Y-195593328D01*
X184029455Y-195593328D02*
X184172313Y-195664757D01*
X186029455Y-195807614D02*
X186529455Y-195807614D01*
X186743741Y-196593328D02*
X186029455Y-196593328D01*
X186029455Y-196593328D02*
X186029455Y-195093328D01*
X186029455Y-195093328D02*
X186743741Y-195093328D01*
X187386598Y-196450471D02*
X187458027Y-196521900D01*
X187458027Y-196521900D02*
X187386598Y-196593328D01*
X187386598Y-196593328D02*
X187315170Y-196521900D01*
X187315170Y-196521900D02*
X187386598Y-196450471D01*
X187386598Y-196450471D02*
X187386598Y-196593328D01*
X188100884Y-196593328D02*
X188100884Y-195093328D01*
X188100884Y-195093328D02*
X188458027Y-195093328D01*
X188458027Y-195093328D02*
X188672313Y-195164757D01*
X188672313Y-195164757D02*
X188815170Y-195307614D01*
X188815170Y-195307614D02*
X188886599Y-195450471D01*
X188886599Y-195450471D02*
X188958027Y-195736185D01*
X188958027Y-195736185D02*
X188958027Y-195950471D01*
X188958027Y-195950471D02*
X188886599Y-196236185D01*
X188886599Y-196236185D02*
X188815170Y-196379042D01*
X188815170Y-196379042D02*
X188672313Y-196521900D01*
X188672313Y-196521900D02*
X188458027Y-196593328D01*
X188458027Y-196593328D02*
X188100884Y-196593328D01*
X189600884Y-196450471D02*
X189672313Y-196521900D01*
X189672313Y-196521900D02*
X189600884Y-196593328D01*
X189600884Y-196593328D02*
X189529456Y-196521900D01*
X189529456Y-196521900D02*
X189600884Y-196450471D01*
X189600884Y-196450471D02*
X189600884Y-196593328D01*
X190243742Y-196164757D02*
X190958028Y-196164757D01*
X190100885Y-196593328D02*
X190600885Y-195093328D01*
X190600885Y-195093328D02*
X191100885Y-196593328D01*
X191600884Y-196450471D02*
X191672313Y-196521900D01*
X191672313Y-196521900D02*
X191600884Y-196593328D01*
X191600884Y-196593328D02*
X191529456Y-196521900D01*
X191529456Y-196521900D02*
X191600884Y-196450471D01*
X191600884Y-196450471D02*
X191600884Y-196593328D01*
X193672313Y-195736185D02*
X193529456Y-195664757D01*
X193529456Y-195664757D02*
X193458027Y-195593328D01*
X193458027Y-195593328D02*
X193386599Y-195450471D01*
X193386599Y-195450471D02*
X193386599Y-195379042D01*
X193386599Y-195379042D02*
X193458027Y-195236185D01*
X193458027Y-195236185D02*
X193529456Y-195164757D01*
X193529456Y-195164757D02*
X193672313Y-195093328D01*
X193672313Y-195093328D02*
X193958027Y-195093328D01*
X193958027Y-195093328D02*
X194100885Y-195164757D01*
X194100885Y-195164757D02*
X194172313Y-195236185D01*
X194172313Y-195236185D02*
X194243742Y-195379042D01*
X194243742Y-195379042D02*
X194243742Y-195450471D01*
X194243742Y-195450471D02*
X194172313Y-195593328D01*
X194172313Y-195593328D02*
X194100885Y-195664757D01*
X194100885Y-195664757D02*
X193958027Y-195736185D01*
X193958027Y-195736185D02*
X193672313Y-195736185D01*
X193672313Y-195736185D02*
X193529456Y-195807614D01*
X193529456Y-195807614D02*
X193458027Y-195879042D01*
X193458027Y-195879042D02*
X193386599Y-196021900D01*
X193386599Y-196021900D02*
X193386599Y-196307614D01*
X193386599Y-196307614D02*
X193458027Y-196450471D01*
X193458027Y-196450471D02*
X193529456Y-196521900D01*
X193529456Y-196521900D02*
X193672313Y-196593328D01*
X193672313Y-196593328D02*
X193958027Y-196593328D01*
X193958027Y-196593328D02*
X194100885Y-196521900D01*
X194100885Y-196521900D02*
X194172313Y-196450471D01*
X194172313Y-196450471D02*
X194243742Y-196307614D01*
X194243742Y-196307614D02*
X194243742Y-196021900D01*
X194243742Y-196021900D02*
X194172313Y-195879042D01*
X194172313Y-195879042D02*
X194100885Y-195807614D01*
X194100885Y-195807614D02*
X193958027Y-195736185D01*
X194886598Y-196450471D02*
X194958027Y-196521900D01*
X194958027Y-196521900D02*
X194886598Y-196593328D01*
X194886598Y-196593328D02*
X194815170Y-196521900D01*
X194815170Y-196521900D02*
X194886598Y-196450471D01*
X194886598Y-196450471D02*
X194886598Y-196593328D01*
X195886599Y-195093328D02*
X196029456Y-195093328D01*
X196029456Y-195093328D02*
X196172313Y-195164757D01*
X196172313Y-195164757D02*
X196243742Y-195236185D01*
X196243742Y-195236185D02*
X196315170Y-195379042D01*
X196315170Y-195379042D02*
X196386599Y-195664757D01*
X196386599Y-195664757D02*
X196386599Y-196021900D01*
X196386599Y-196021900D02*
X196315170Y-196307614D01*
X196315170Y-196307614D02*
X196243742Y-196450471D01*
X196243742Y-196450471D02*
X196172313Y-196521900D01*
X196172313Y-196521900D02*
X196029456Y-196593328D01*
X196029456Y-196593328D02*
X195886599Y-196593328D01*
X195886599Y-196593328D02*
X195743742Y-196521900D01*
X195743742Y-196521900D02*
X195672313Y-196450471D01*
X195672313Y-196450471D02*
X195600884Y-196307614D01*
X195600884Y-196307614D02*
X195529456Y-196021900D01*
X195529456Y-196021900D02*
X195529456Y-195664757D01*
X195529456Y-195664757D02*
X195600884Y-195379042D01*
X195600884Y-195379042D02*
X195672313Y-195236185D01*
X195672313Y-195236185D02*
X195743742Y-195164757D01*
X195743742Y-195164757D02*
X195886599Y-195093328D01*
X197029455Y-196450471D02*
X197100884Y-196521900D01*
X197100884Y-196521900D02*
X197029455Y-196593328D01*
X197029455Y-196593328D02*
X196958027Y-196521900D01*
X196958027Y-196521900D02*
X197029455Y-196450471D01*
X197029455Y-196450471D02*
X197029455Y-196593328D01*
X197600884Y-195093328D02*
X198529456Y-195093328D01*
X198529456Y-195093328D02*
X198029456Y-195664757D01*
X198029456Y-195664757D02*
X198243741Y-195664757D01*
X198243741Y-195664757D02*
X198386599Y-195736185D01*
X198386599Y-195736185D02*
X198458027Y-195807614D01*
X198458027Y-195807614D02*
X198529456Y-195950471D01*
X198529456Y-195950471D02*
X198529456Y-196307614D01*
X198529456Y-196307614D02*
X198458027Y-196450471D01*
X198458027Y-196450471D02*
X198386599Y-196521900D01*
X198386599Y-196521900D02*
X198243741Y-196593328D01*
X198243741Y-196593328D02*
X197815170Y-196593328D01*
X197815170Y-196593328D02*
X197672313Y-196521900D01*
X197672313Y-196521900D02*
X197600884Y-196450471D01*
D10*
D11*
X177002200Y-191507200D02*
X285002200Y-191507200D01*
D10*
D12*
X264413853Y-193785528D02*
X263913853Y-193071242D01*
X263556710Y-193785528D02*
X263556710Y-192285528D01*
X263556710Y-192285528D02*
X264128139Y-192285528D01*
X264128139Y-192285528D02*
X264270996Y-192356957D01*
X264270996Y-192356957D02*
X264342425Y-192428385D01*
X264342425Y-192428385D02*
X264413853Y-192571242D01*
X264413853Y-192571242D02*
X264413853Y-192785528D01*
X264413853Y-192785528D02*
X264342425Y-192928385D01*
X264342425Y-192928385D02*
X264270996Y-192999814D01*
X264270996Y-192999814D02*
X264128139Y-193071242D01*
X264128139Y-193071242D02*
X263556710Y-193071242D01*
X265628139Y-193714100D02*
X265485282Y-193785528D01*
X265485282Y-193785528D02*
X265199568Y-193785528D01*
X265199568Y-193785528D02*
X265056710Y-193714100D01*
X265056710Y-193714100D02*
X264985282Y-193571242D01*
X264985282Y-193571242D02*
X264985282Y-192999814D01*
X264985282Y-192999814D02*
X265056710Y-192856957D01*
X265056710Y-192856957D02*
X265199568Y-192785528D01*
X265199568Y-192785528D02*
X265485282Y-192785528D01*
X265485282Y-192785528D02*
X265628139Y-192856957D01*
X265628139Y-192856957D02*
X265699568Y-192999814D01*
X265699568Y-192999814D02*
X265699568Y-193142671D01*
X265699568Y-193142671D02*
X264985282Y-193285528D01*
X266199567Y-192785528D02*
X266556710Y-193785528D01*
X266556710Y-193785528D02*
X266913853Y-192785528D01*
X267485281Y-193642671D02*
X267556710Y-193714100D01*
X267556710Y-193714100D02*
X267485281Y-193785528D01*
X267485281Y-193785528D02*
X267413853Y-193714100D01*
X267413853Y-193714100D02*
X267485281Y-193642671D01*
X267485281Y-193642671D02*
X267485281Y-193785528D01*
X267485281Y-192856957D02*
X267556710Y-192928385D01*
X267556710Y-192928385D02*
X267485281Y-192999814D01*
X267485281Y-192999814D02*
X267413853Y-192928385D01*
X267413853Y-192928385D02*
X267485281Y-192856957D01*
X267485281Y-192856957D02*
X267485281Y-192999814D01*
D10*
D11*
X178386598Y-193721900D02*
X178600884Y-193793328D01*
X178600884Y-193793328D02*
X178958026Y-193793328D01*
X178958026Y-193793328D02*
X179100884Y-193721900D01*
X179100884Y-193721900D02*
X179172312Y-193650471D01*
X179172312Y-193650471D02*
X179243741Y-193507614D01*
X179243741Y-193507614D02*
X179243741Y-193364757D01*
X179243741Y-193364757D02*
X179172312Y-193221900D01*
X179172312Y-193221900D02*
X179100884Y-193150471D01*
X179100884Y-193150471D02*
X178958026Y-193079042D01*
X178958026Y-193079042D02*
X178672312Y-193007614D01*
X178672312Y-193007614D02*
X178529455Y-192936185D01*
X178529455Y-192936185D02*
X178458026Y-192864757D01*
X178458026Y-192864757D02*
X178386598Y-192721900D01*
X178386598Y-192721900D02*
X178386598Y-192579042D01*
X178386598Y-192579042D02*
X178458026Y-192436185D01*
X178458026Y-192436185D02*
X178529455Y-192364757D01*
X178529455Y-192364757D02*
X178672312Y-192293328D01*
X178672312Y-192293328D02*
X179029455Y-192293328D01*
X179029455Y-192293328D02*
X179243741Y-192364757D01*
X179886597Y-193793328D02*
X179886597Y-192793328D01*
X179886597Y-192293328D02*
X179815169Y-192364757D01*
X179815169Y-192364757D02*
X179886597Y-192436185D01*
X179886597Y-192436185D02*
X179958026Y-192364757D01*
X179958026Y-192364757D02*
X179886597Y-192293328D01*
X179886597Y-192293328D02*
X179886597Y-192436185D01*
X180458026Y-192793328D02*
X181243741Y-192793328D01*
X181243741Y-192793328D02*
X180458026Y-193793328D01*
X180458026Y-193793328D02*
X181243741Y-193793328D01*
X182386598Y-193721900D02*
X182243741Y-193793328D01*
X182243741Y-193793328D02*
X181958027Y-193793328D01*
X181958027Y-193793328D02*
X181815169Y-193721900D01*
X181815169Y-193721900D02*
X181743741Y-193579042D01*
X181743741Y-193579042D02*
X181743741Y-193007614D01*
X181743741Y-193007614D02*
X181815169Y-192864757D01*
X181815169Y-192864757D02*
X181958027Y-192793328D01*
X181958027Y-192793328D02*
X182243741Y-192793328D01*
X182243741Y-192793328D02*
X182386598Y-192864757D01*
X182386598Y-192864757D02*
X182458027Y-193007614D01*
X182458027Y-193007614D02*
X182458027Y-193150471D01*
X182458027Y-193150471D02*
X181743741Y-193293328D01*
X183100883Y-193650471D02*
X183172312Y-193721900D01*
X183172312Y-193721900D02*
X183100883Y-193793328D01*
X183100883Y-193793328D02*
X183029455Y-193721900D01*
X183029455Y-193721900D02*
X183100883Y-193650471D01*
X183100883Y-193650471D02*
X183100883Y-193793328D01*
X183100883Y-192864757D02*
X183172312Y-192936185D01*
X183172312Y-192936185D02*
X183100883Y-193007614D01*
X183100883Y-193007614D02*
X183029455Y-192936185D01*
X183029455Y-192936185D02*
X183100883Y-192864757D01*
X183100883Y-192864757D02*
X183100883Y-193007614D01*
X184886598Y-193364757D02*
X185600884Y-193364757D01*
X184743741Y-193793328D02*
X185243741Y-192293328D01*
X185243741Y-192293328D02*
X185743741Y-193793328D01*
X186886598Y-192793328D02*
X186886598Y-193793328D01*
X186529455Y-192221900D02*
X186172312Y-193293328D01*
X186172312Y-193293328D02*
X187100883Y-193293328D01*
D10*
D11*
X263458026Y-196593328D02*
X263458026Y-195093328D01*
X264815170Y-196593328D02*
X264815170Y-195093328D01*
X264815170Y-196521900D02*
X264672312Y-196593328D01*
X264672312Y-196593328D02*
X264386598Y-196593328D01*
X264386598Y-196593328D02*
X264243741Y-196521900D01*
X264243741Y-196521900D02*
X264172312Y-196450471D01*
X264172312Y-196450471D02*
X264100884Y-196307614D01*
X264100884Y-196307614D02*
X264100884Y-195879042D01*
X264100884Y-195879042D02*
X264172312Y-195736185D01*
X264172312Y-195736185D02*
X264243741Y-195664757D01*
X264243741Y-195664757D02*
X264386598Y-195593328D01*
X264386598Y-195593328D02*
X264672312Y-195593328D01*
X264672312Y-195593328D02*
X264815170Y-195664757D01*
X265529455Y-196450471D02*
X265600884Y-196521900D01*
X265600884Y-196521900D02*
X265529455Y-196593328D01*
X265529455Y-196593328D02*
X265458027Y-196521900D01*
X265458027Y-196521900D02*
X265529455Y-196450471D01*
X265529455Y-196450471D02*
X265529455Y-196593328D01*
X265529455Y-195664757D02*
X265600884Y-195736185D01*
X265600884Y-195736185D02*
X265529455Y-195807614D01*
X265529455Y-195807614D02*
X265458027Y-195736185D01*
X265458027Y-195736185D02*
X265529455Y-195664757D01*
X265529455Y-195664757D02*
X265529455Y-195807614D01*
X268172313Y-196593328D02*
X267315170Y-196593328D01*
X267743741Y-196593328D02*
X267743741Y-195093328D01*
X267743741Y-195093328D02*
X267600884Y-195307614D01*
X267600884Y-195307614D02*
X267458027Y-195450471D01*
X267458027Y-195450471D02*
X267315170Y-195521900D01*
X269886598Y-195021900D02*
X268600884Y-196950471D01*
X271172313Y-196593328D02*
X270315170Y-196593328D01*
X270743741Y-196593328D02*
X270743741Y-195093328D01*
X270743741Y-195093328D02*
X270600884Y-195307614D01*
X270600884Y-195307614D02*
X270458027Y-195450471D01*
X270458027Y-195450471D02*
X270315170Y-195521900D01*
D10*
D11*
X177002200Y-187507200D02*
X285002200Y-187507200D01*
D10*
D13*
X178693928Y-188211638D02*
X179836785Y-188211638D01*
X179015357Y-190211638D02*
X179265357Y-188211638D01*
X180253452Y-190211638D02*
X180420119Y-188878304D01*
X180503452Y-188211638D02*
X180396309Y-188306876D01*
X180396309Y-188306876D02*
X180479643Y-188402114D01*
X180479643Y-188402114D02*
X180586786Y-188306876D01*
X180586786Y-188306876D02*
X180503452Y-188211638D01*
X180503452Y-188211638D02*
X180479643Y-188402114D01*
X181086786Y-188878304D02*
X181848690Y-188878304D01*
X181455833Y-188211638D02*
X181241548Y-189925923D01*
X181241548Y-189925923D02*
X181312976Y-190116400D01*
X181312976Y-190116400D02*
X181491548Y-190211638D01*
X181491548Y-190211638D02*
X181682024Y-190211638D01*
X182634405Y-190211638D02*
X182455833Y-190116400D01*
X182455833Y-190116400D02*
X182384405Y-189925923D01*
X182384405Y-189925923D02*
X182598690Y-188211638D01*
X184170119Y-190116400D02*
X183967738Y-190211638D01*
X183967738Y-190211638D02*
X183586785Y-190211638D01*
X183586785Y-190211638D02*
X183408214Y-190116400D01*
X183408214Y-190116400D02*
X183336785Y-189925923D01*
X183336785Y-189925923D02*
X183432024Y-189164019D01*
X183432024Y-189164019D02*
X183551071Y-188973542D01*
X183551071Y-188973542D02*
X183753452Y-188878304D01*
X183753452Y-188878304D02*
X184134404Y-188878304D01*
X184134404Y-188878304D02*
X184312976Y-188973542D01*
X184312976Y-188973542D02*
X184384404Y-189164019D01*
X184384404Y-189164019D02*
X184360595Y-189354495D01*
X184360595Y-189354495D02*
X183384404Y-189544971D01*
X185134405Y-190021161D02*
X185217738Y-190116400D01*
X185217738Y-190116400D02*
X185110595Y-190211638D01*
X185110595Y-190211638D02*
X185027262Y-190116400D01*
X185027262Y-190116400D02*
X185134405Y-190021161D01*
X185134405Y-190021161D02*
X185110595Y-190211638D01*
X185265357Y-188973542D02*
X185348690Y-189068780D01*
X185348690Y-189068780D02*
X185241548Y-189164019D01*
X185241548Y-189164019D02*
X185158214Y-189068780D01*
X185158214Y-189068780D02*
X185265357Y-188973542D01*
X185265357Y-188973542D02*
X185241548Y-189164019D01*
D10*
D11*
X178958026Y-185607614D02*
X178458026Y-185607614D01*
X178458026Y-186393328D02*
X178458026Y-184893328D01*
X178458026Y-184893328D02*
X179172312Y-184893328D01*
X179743740Y-186393328D02*
X179743740Y-185393328D01*
X179743740Y-184893328D02*
X179672312Y-184964757D01*
X179672312Y-184964757D02*
X179743740Y-185036185D01*
X179743740Y-185036185D02*
X179815169Y-184964757D01*
X179815169Y-184964757D02*
X179743740Y-184893328D01*
X179743740Y-184893328D02*
X179743740Y-185036185D01*
X180672312Y-186393328D02*
X180529455Y-186321900D01*
X180529455Y-186321900D02*
X180458026Y-186179042D01*
X180458026Y-186179042D02*
X180458026Y-184893328D01*
X181815169Y-186321900D02*
X181672312Y-186393328D01*
X181672312Y-186393328D02*
X181386598Y-186393328D01*
X181386598Y-186393328D02*
X181243740Y-186321900D01*
X181243740Y-186321900D02*
X181172312Y-186179042D01*
X181172312Y-186179042D02*
X181172312Y-185607614D01*
X181172312Y-185607614D02*
X181243740Y-185464757D01*
X181243740Y-185464757D02*
X181386598Y-185393328D01*
X181386598Y-185393328D02*
X181672312Y-185393328D01*
X181672312Y-185393328D02*
X181815169Y-185464757D01*
X181815169Y-185464757D02*
X181886598Y-185607614D01*
X181886598Y-185607614D02*
X181886598Y-185750471D01*
X181886598Y-185750471D02*
X181172312Y-185893328D01*
X182529454Y-186250471D02*
X182600883Y-186321900D01*
X182600883Y-186321900D02*
X182529454Y-186393328D01*
X182529454Y-186393328D02*
X182458026Y-186321900D01*
X182458026Y-186321900D02*
X182529454Y-186250471D01*
X182529454Y-186250471D02*
X182529454Y-186393328D01*
X182529454Y-185464757D02*
X182600883Y-185536185D01*
X182600883Y-185536185D02*
X182529454Y-185607614D01*
X182529454Y-185607614D02*
X182458026Y-185536185D01*
X182458026Y-185536185D02*
X182529454Y-185464757D01*
X182529454Y-185464757D02*
X182529454Y-185607614D01*
X184172312Y-184893328D02*
X185029455Y-184893328D01*
X184600883Y-186393328D02*
X184600883Y-184893328D01*
X185529454Y-186393328D02*
X185529454Y-184893328D01*
X186172312Y-186393328D02*
X186172312Y-185607614D01*
X186172312Y-185607614D02*
X186100883Y-185464757D01*
X186100883Y-185464757D02*
X185958026Y-185393328D01*
X185958026Y-185393328D02*
X185743740Y-185393328D01*
X185743740Y-185393328D02*
X185600883Y-185464757D01*
X185600883Y-185464757D02*
X185529454Y-185536185D01*
X187100883Y-186393328D02*
X186958026Y-186321900D01*
X186958026Y-186321900D02*
X186886597Y-186250471D01*
X186886597Y-186250471D02*
X186815169Y-186107614D01*
X186815169Y-186107614D02*
X186815169Y-185679042D01*
X186815169Y-185679042D02*
X186886597Y-185536185D01*
X186886597Y-185536185D02*
X186958026Y-185464757D01*
X186958026Y-185464757D02*
X187100883Y-185393328D01*
X187100883Y-185393328D02*
X187315169Y-185393328D01*
X187315169Y-185393328D02*
X187458026Y-185464757D01*
X187458026Y-185464757D02*
X187529455Y-185536185D01*
X187529455Y-185536185D02*
X187600883Y-185679042D01*
X187600883Y-185679042D02*
X187600883Y-186107614D01*
X187600883Y-186107614D02*
X187529455Y-186250471D01*
X187529455Y-186250471D02*
X187458026Y-186321900D01*
X187458026Y-186321900D02*
X187315169Y-186393328D01*
X187315169Y-186393328D02*
X187100883Y-186393328D01*
X188243740Y-186393328D02*
X188243740Y-185393328D01*
X188243740Y-185536185D02*
X188315169Y-185464757D01*
X188315169Y-185464757D02*
X188458026Y-185393328D01*
X188458026Y-185393328D02*
X188672312Y-185393328D01*
X188672312Y-185393328D02*
X188815169Y-185464757D01*
X188815169Y-185464757D02*
X188886598Y-185607614D01*
X188886598Y-185607614D02*
X188886598Y-186393328D01*
X188886598Y-185607614D02*
X188958026Y-185464757D01*
X188958026Y-185464757D02*
X189100883Y-185393328D01*
X189100883Y-185393328D02*
X189315169Y-185393328D01*
X189315169Y-185393328D02*
X189458026Y-185464757D01*
X189458026Y-185464757D02*
X189529455Y-185607614D01*
X189529455Y-185607614D02*
X189529455Y-186393328D01*
X190886598Y-186393328D02*
X190886598Y-185607614D01*
X190886598Y-185607614D02*
X190815169Y-185464757D01*
X190815169Y-185464757D02*
X190672312Y-185393328D01*
X190672312Y-185393328D02*
X190386598Y-185393328D01*
X190386598Y-185393328D02*
X190243740Y-185464757D01*
X190886598Y-186321900D02*
X190743740Y-186393328D01*
X190743740Y-186393328D02*
X190386598Y-186393328D01*
X190386598Y-186393328D02*
X190243740Y-186321900D01*
X190243740Y-186321900D02*
X190172312Y-186179042D01*
X190172312Y-186179042D02*
X190172312Y-186036185D01*
X190172312Y-186036185D02*
X190243740Y-185893328D01*
X190243740Y-185893328D02*
X190386598Y-185821900D01*
X190386598Y-185821900D02*
X190743740Y-185821900D01*
X190743740Y-185821900D02*
X190886598Y-185750471D01*
X191529455Y-186321900D02*
X191672312Y-186393328D01*
X191672312Y-186393328D02*
X191958026Y-186393328D01*
X191958026Y-186393328D02*
X192100883Y-186321900D01*
X192100883Y-186321900D02*
X192172312Y-186179042D01*
X192172312Y-186179042D02*
X192172312Y-186107614D01*
X192172312Y-186107614D02*
X192100883Y-185964757D01*
X192100883Y-185964757D02*
X191958026Y-185893328D01*
X191958026Y-185893328D02*
X191743741Y-185893328D01*
X191743741Y-185893328D02*
X191600883Y-185821900D01*
X191600883Y-185821900D02*
X191529455Y-185679042D01*
X191529455Y-185679042D02*
X191529455Y-185607614D01*
X191529455Y-185607614D02*
X191600883Y-185464757D01*
X191600883Y-185464757D02*
X191743741Y-185393328D01*
X191743741Y-185393328D02*
X191958026Y-185393328D01*
X191958026Y-185393328D02*
X192100883Y-185464757D01*
X192815169Y-185821900D02*
X193958027Y-185821900D01*
X194672312Y-186393328D02*
X194672312Y-184893328D01*
X194672312Y-185607614D02*
X195529455Y-185607614D01*
X195529455Y-186393328D02*
X195529455Y-184893328D01*
X196815170Y-186321900D02*
X196672313Y-186393328D01*
X196672313Y-186393328D02*
X196386599Y-186393328D01*
X196386599Y-186393328D02*
X196243741Y-186321900D01*
X196243741Y-186321900D02*
X196172313Y-186179042D01*
X196172313Y-186179042D02*
X196172313Y-185607614D01*
X196172313Y-185607614D02*
X196243741Y-185464757D01*
X196243741Y-185464757D02*
X196386599Y-185393328D01*
X196386599Y-185393328D02*
X196672313Y-185393328D01*
X196672313Y-185393328D02*
X196815170Y-185464757D01*
X196815170Y-185464757D02*
X196886599Y-185607614D01*
X196886599Y-185607614D02*
X196886599Y-185750471D01*
X196886599Y-185750471D02*
X196172313Y-185893328D01*
X197529455Y-185393328D02*
X197529455Y-186393328D01*
X197529455Y-185536185D02*
X197600884Y-185464757D01*
X197600884Y-185464757D02*
X197743741Y-185393328D01*
X197743741Y-185393328D02*
X197958027Y-185393328D01*
X197958027Y-185393328D02*
X198100884Y-185464757D01*
X198100884Y-185464757D02*
X198172313Y-185607614D01*
X198172313Y-185607614D02*
X198172313Y-186393328D01*
X198886598Y-186393328D02*
X198886598Y-185393328D01*
X198886598Y-185679042D02*
X198958027Y-185536185D01*
X198958027Y-185536185D02*
X199029456Y-185464757D01*
X199029456Y-185464757D02*
X199172313Y-185393328D01*
X199172313Y-185393328D02*
X199315170Y-185393328D01*
X199672312Y-185393328D02*
X200029455Y-186393328D01*
X200386598Y-185393328D02*
X200029455Y-186393328D01*
X200029455Y-186393328D02*
X199886598Y-186750471D01*
X199886598Y-186750471D02*
X199815169Y-186821900D01*
X199815169Y-186821900D02*
X199672312Y-186893328D01*
X200958026Y-185821900D02*
X202100884Y-185821900D01*
X202600884Y-184893328D02*
X203100884Y-186393328D01*
X203100884Y-186393328D02*
X203600884Y-184893328D01*
X204958026Y-186250471D02*
X204886598Y-186321900D01*
X204886598Y-186321900D02*
X204672312Y-186393328D01*
X204672312Y-186393328D02*
X204529455Y-186393328D01*
X204529455Y-186393328D02*
X204315169Y-186321900D01*
X204315169Y-186321900D02*
X204172312Y-186179042D01*
X204172312Y-186179042D02*
X204100883Y-186036185D01*
X204100883Y-186036185D02*
X204029455Y-185750471D01*
X204029455Y-185750471D02*
X204029455Y-185536185D01*
X204029455Y-185536185D02*
X204100883Y-185250471D01*
X204100883Y-185250471D02*
X204172312Y-185107614D01*
X204172312Y-185107614D02*
X204315169Y-184964757D01*
X204315169Y-184964757D02*
X204529455Y-184893328D01*
X204529455Y-184893328D02*
X204672312Y-184893328D01*
X204672312Y-184893328D02*
X204886598Y-184964757D01*
X204886598Y-184964757D02*
X204958026Y-185036185D01*
X205886598Y-184893328D02*
X206172312Y-184893328D01*
X206172312Y-184893328D02*
X206315169Y-184964757D01*
X206315169Y-184964757D02*
X206458026Y-185107614D01*
X206458026Y-185107614D02*
X206529455Y-185393328D01*
X206529455Y-185393328D02*
X206529455Y-185893328D01*
X206529455Y-185893328D02*
X206458026Y-186179042D01*
X206458026Y-186179042D02*
X206315169Y-186321900D01*
X206315169Y-186321900D02*
X206172312Y-186393328D01*
X206172312Y-186393328D02*
X205886598Y-186393328D01*
X205886598Y-186393328D02*
X205743741Y-186321900D01*
X205743741Y-186321900D02*
X205600883Y-186179042D01*
X205600883Y-186179042D02*
X205529455Y-185893328D01*
X205529455Y-185893328D02*
X205529455Y-185393328D01*
X205529455Y-185393328D02*
X205600883Y-185107614D01*
X205600883Y-185107614D02*
X205743741Y-184964757D01*
X205743741Y-184964757D02*
X205886598Y-184893328D01*
X207029455Y-185393328D02*
X207386598Y-186393328D01*
X207386598Y-186393328D02*
X207743741Y-185393328D01*
X208243741Y-185036185D02*
X208315169Y-184964757D01*
X208315169Y-184964757D02*
X208458027Y-184893328D01*
X208458027Y-184893328D02*
X208815169Y-184893328D01*
X208815169Y-184893328D02*
X208958027Y-184964757D01*
X208958027Y-184964757D02*
X209029455Y-185036185D01*
X209029455Y-185036185D02*
X209100884Y-185179042D01*
X209100884Y-185179042D02*
X209100884Y-185321900D01*
X209100884Y-185321900D02*
X209029455Y-185536185D01*
X209029455Y-185536185D02*
X208172312Y-186393328D01*
X208172312Y-186393328D02*
X209100884Y-186393328D01*
X209743740Y-186250471D02*
X209815169Y-186321900D01*
X209815169Y-186321900D02*
X209743740Y-186393328D01*
X209743740Y-186393328D02*
X209672312Y-186321900D01*
X209672312Y-186321900D02*
X209743740Y-186250471D01*
X209743740Y-186250471D02*
X209743740Y-186393328D01*
X210458026Y-186393328D02*
X210458026Y-184893328D01*
X210600884Y-185821900D02*
X211029455Y-186393328D01*
X211029455Y-185393328D02*
X210458026Y-185964757D01*
X211672312Y-186393328D02*
X211672312Y-185393328D01*
X211672312Y-184893328D02*
X211600884Y-184964757D01*
X211600884Y-184964757D02*
X211672312Y-185036185D01*
X211672312Y-185036185D02*
X211743741Y-184964757D01*
X211743741Y-184964757D02*
X211672312Y-184893328D01*
X211672312Y-184893328D02*
X211672312Y-185036185D01*
X213029456Y-186321900D02*
X212886598Y-186393328D01*
X212886598Y-186393328D02*
X212600884Y-186393328D01*
X212600884Y-186393328D02*
X212458027Y-186321900D01*
X212458027Y-186321900D02*
X212386598Y-186250471D01*
X212386598Y-186250471D02*
X212315170Y-186107614D01*
X212315170Y-186107614D02*
X212315170Y-185679042D01*
X212315170Y-185679042D02*
X212386598Y-185536185D01*
X212386598Y-185536185D02*
X212458027Y-185464757D01*
X212458027Y-185464757D02*
X212600884Y-185393328D01*
X212600884Y-185393328D02*
X212886598Y-185393328D01*
X212886598Y-185393328D02*
X213029456Y-185464757D01*
X214315170Y-186393328D02*
X214315170Y-185607614D01*
X214315170Y-185607614D02*
X214243741Y-185464757D01*
X214243741Y-185464757D02*
X214100884Y-185393328D01*
X214100884Y-185393328D02*
X213815170Y-185393328D01*
X213815170Y-185393328D02*
X213672312Y-185464757D01*
X214315170Y-186321900D02*
X214172312Y-186393328D01*
X214172312Y-186393328D02*
X213815170Y-186393328D01*
X213815170Y-186393328D02*
X213672312Y-186321900D01*
X213672312Y-186321900D02*
X213600884Y-186179042D01*
X213600884Y-186179042D02*
X213600884Y-186036185D01*
X213600884Y-186036185D02*
X213672312Y-185893328D01*
X213672312Y-185893328D02*
X213815170Y-185821900D01*
X213815170Y-185821900D02*
X214172312Y-185821900D01*
X214172312Y-185821900D02*
X214315170Y-185750471D01*
X215672313Y-186393328D02*
X215672313Y-184893328D01*
X215672313Y-186321900D02*
X215529455Y-186393328D01*
X215529455Y-186393328D02*
X215243741Y-186393328D01*
X215243741Y-186393328D02*
X215100884Y-186321900D01*
X215100884Y-186321900D02*
X215029455Y-186250471D01*
X215029455Y-186250471D02*
X214958027Y-186107614D01*
X214958027Y-186107614D02*
X214958027Y-185679042D01*
X214958027Y-185679042D02*
X215029455Y-185536185D01*
X215029455Y-185536185D02*
X215100884Y-185464757D01*
X215100884Y-185464757D02*
X215243741Y-185393328D01*
X215243741Y-185393328D02*
X215529455Y-185393328D01*
X215529455Y-185393328D02*
X215672313Y-185464757D01*
X216029456Y-186536185D02*
X217172313Y-186536185D01*
X217529455Y-185393328D02*
X217529455Y-186893328D01*
X217529455Y-185464757D02*
X217672313Y-185393328D01*
X217672313Y-185393328D02*
X217958027Y-185393328D01*
X217958027Y-185393328D02*
X218100884Y-185464757D01*
X218100884Y-185464757D02*
X218172313Y-185536185D01*
X218172313Y-185536185D02*
X218243741Y-185679042D01*
X218243741Y-185679042D02*
X218243741Y-186107614D01*
X218243741Y-186107614D02*
X218172313Y-186250471D01*
X218172313Y-186250471D02*
X218100884Y-186321900D01*
X218100884Y-186321900D02*
X217958027Y-186393328D01*
X217958027Y-186393328D02*
X217672313Y-186393328D01*
X217672313Y-186393328D02*
X217529455Y-186321900D01*
X219529456Y-186321900D02*
X219386598Y-186393328D01*
X219386598Y-186393328D02*
X219100884Y-186393328D01*
X219100884Y-186393328D02*
X218958027Y-186321900D01*
X218958027Y-186321900D02*
X218886598Y-186250471D01*
X218886598Y-186250471D02*
X218815170Y-186107614D01*
X218815170Y-186107614D02*
X218815170Y-185679042D01*
X218815170Y-185679042D02*
X218886598Y-185536185D01*
X218886598Y-185536185D02*
X218958027Y-185464757D01*
X218958027Y-185464757D02*
X219100884Y-185393328D01*
X219100884Y-185393328D02*
X219386598Y-185393328D01*
X219386598Y-185393328D02*
X219529456Y-185464757D01*
X220172312Y-186393328D02*
X220172312Y-184893328D01*
X220172312Y-185464757D02*
X220315170Y-185393328D01*
X220315170Y-185393328D02*
X220600884Y-185393328D01*
X220600884Y-185393328D02*
X220743741Y-185464757D01*
X220743741Y-185464757D02*
X220815170Y-185536185D01*
X220815170Y-185536185D02*
X220886598Y-185679042D01*
X220886598Y-185679042D02*
X220886598Y-186107614D01*
X220886598Y-186107614D02*
X220815170Y-186250471D01*
X220815170Y-186250471D02*
X220743741Y-186321900D01*
X220743741Y-186321900D02*
X220600884Y-186393328D01*
X220600884Y-186393328D02*
X220315170Y-186393328D01*
X220315170Y-186393328D02*
X220172312Y-186321900D01*
D10*
D11*
X177002200Y-181507200D02*
X285002200Y-181507200D01*
D10*
D11*
X178386598Y-183621900D02*
X178600884Y-183693328D01*
X178600884Y-183693328D02*
X178958026Y-183693328D01*
X178958026Y-183693328D02*
X179100884Y-183621900D01*
X179100884Y-183621900D02*
X179172312Y-183550471D01*
X179172312Y-183550471D02*
X179243741Y-183407614D01*
X179243741Y-183407614D02*
X179243741Y-183264757D01*
X179243741Y-183264757D02*
X179172312Y-183121900D01*
X179172312Y-183121900D02*
X179100884Y-183050471D01*
X179100884Y-183050471D02*
X178958026Y-182979042D01*
X178958026Y-182979042D02*
X178672312Y-182907614D01*
X178672312Y-182907614D02*
X178529455Y-182836185D01*
X178529455Y-182836185D02*
X178458026Y-182764757D01*
X178458026Y-182764757D02*
X178386598Y-182621900D01*
X178386598Y-182621900D02*
X178386598Y-182479042D01*
X178386598Y-182479042D02*
X178458026Y-182336185D01*
X178458026Y-182336185D02*
X178529455Y-182264757D01*
X178529455Y-182264757D02*
X178672312Y-182193328D01*
X178672312Y-182193328D02*
X179029455Y-182193328D01*
X179029455Y-182193328D02*
X179243741Y-182264757D01*
X179886597Y-183693328D02*
X179886597Y-182193328D01*
X180529455Y-183693328D02*
X180529455Y-182907614D01*
X180529455Y-182907614D02*
X180458026Y-182764757D01*
X180458026Y-182764757D02*
X180315169Y-182693328D01*
X180315169Y-182693328D02*
X180100883Y-182693328D01*
X180100883Y-182693328D02*
X179958026Y-182764757D01*
X179958026Y-182764757D02*
X179886597Y-182836185D01*
X181815169Y-183621900D02*
X181672312Y-183693328D01*
X181672312Y-183693328D02*
X181386598Y-183693328D01*
X181386598Y-183693328D02*
X181243740Y-183621900D01*
X181243740Y-183621900D02*
X181172312Y-183479042D01*
X181172312Y-183479042D02*
X181172312Y-182907614D01*
X181172312Y-182907614D02*
X181243740Y-182764757D01*
X181243740Y-182764757D02*
X181386598Y-182693328D01*
X181386598Y-182693328D02*
X181672312Y-182693328D01*
X181672312Y-182693328D02*
X181815169Y-182764757D01*
X181815169Y-182764757D02*
X181886598Y-182907614D01*
X181886598Y-182907614D02*
X181886598Y-183050471D01*
X181886598Y-183050471D02*
X181172312Y-183193328D01*
X183100883Y-183621900D02*
X182958026Y-183693328D01*
X182958026Y-183693328D02*
X182672312Y-183693328D01*
X182672312Y-183693328D02*
X182529454Y-183621900D01*
X182529454Y-183621900D02*
X182458026Y-183479042D01*
X182458026Y-183479042D02*
X182458026Y-182907614D01*
X182458026Y-182907614D02*
X182529454Y-182764757D01*
X182529454Y-182764757D02*
X182672312Y-182693328D01*
X182672312Y-182693328D02*
X182958026Y-182693328D01*
X182958026Y-182693328D02*
X183100883Y-182764757D01*
X183100883Y-182764757D02*
X183172312Y-182907614D01*
X183172312Y-182907614D02*
X183172312Y-183050471D01*
X183172312Y-183050471D02*
X182458026Y-183193328D01*
X183600883Y-182693328D02*
X184172311Y-182693328D01*
X183815168Y-182193328D02*
X183815168Y-183479042D01*
X183815168Y-183479042D02*
X183886597Y-183621900D01*
X183886597Y-183621900D02*
X184029454Y-183693328D01*
X184029454Y-183693328D02*
X184172311Y-183693328D01*
X184672311Y-183550471D02*
X184743740Y-183621900D01*
X184743740Y-183621900D02*
X184672311Y-183693328D01*
X184672311Y-183693328D02*
X184600883Y-183621900D01*
X184600883Y-183621900D02*
X184672311Y-183550471D01*
X184672311Y-183550471D02*
X184672311Y-183693328D01*
X184672311Y-182764757D02*
X184743740Y-182836185D01*
X184743740Y-182836185D02*
X184672311Y-182907614D01*
X184672311Y-182907614D02*
X184600883Y-182836185D01*
X184600883Y-182836185D02*
X184672311Y-182764757D01*
X184672311Y-182764757D02*
X184672311Y-182907614D01*
D10*
D11*
X197002200Y-191507200D02*
X197002200Y-194507200D01*
D10*
D11*
X261002200Y-191507200D02*
X261002200Y-198007200D01*
D14*
%TO.P,RV10,1,1*%
%TO.N,GND*%
X153500000Y-134550000D03*
D15*
%TO.P,RV10,2,2*%
%TO.N,PWM*%
X156000000Y-134550000D03*
%TO.P,RV10,3,3*%
%TO.N,Net-(J4-Pad5)*%
X158500000Y-134550000D03*
D16*
%TO.P,RV10,MP*%
%TO.N,N/C*%
X160400000Y-127550000D03*
X151600000Y-127550000D03*
%TD*%
D17*
%TO.P,J10,1,1*%
%TO.N,unconnected-(J10-Pad1)*%
X130450000Y-61250000D03*
D18*
%TO.P,J10,2,2*%
%TO.N,GND*%
X134000000Y-58050000D03*
D17*
%TO.P,J10,4,4*%
%TO.N,unconnected-(J10-Pad4)*%
X137550000Y-61200000D03*
D18*
%TO.P,J10,5,5*%
%TO.N,HARD_SYNC_IN*%
X134000000Y-66150000D03*
%TD*%
D14*
%TO.P,RV6,1,1*%
%TO.N,-12V*%
X153500000Y-114550000D03*
D15*
%TO.P,RV6,2,2*%
%TO.N,Net-(R41-Pad2)*%
X156000000Y-114550000D03*
%TO.P,RV6,3,3*%
%TO.N,+12V*%
X158500000Y-114550000D03*
D16*
%TO.P,RV6,MP*%
%TO.N,N/C*%
X151600000Y-107550000D03*
X160400000Y-107550000D03*
%TD*%
D17*
%TO.P,J2,1,1*%
%TO.N,unconnected-(J2-Pad1)*%
X144450000Y-61250000D03*
D18*
%TO.P,J2,2,2*%
%TO.N,GND*%
X148000000Y-58050000D03*
D17*
%TO.P,J2,4,4*%
%TO.N,unconnected-(J2-Pad4)*%
X151550000Y-61200000D03*
D18*
%TO.P,J2,5,5*%
%TO.N,Net-(J2-Pad5)*%
X148000000Y-66150000D03*
%TD*%
D17*
%TO.P,J8,1,1*%
%TO.N,unconnected-(J8-Pad1)*%
X196450000Y-106250000D03*
D18*
%TO.P,J8,2,2*%
%TO.N,GND*%
X200000000Y-103050000D03*
D17*
%TO.P,J8,4,4*%
%TO.N,unconnected-(J8-Pad4)*%
X203550000Y-106200000D03*
D18*
%TO.P,J8,5,5*%
%TO.N,PULSE*%
X200000000Y-111150000D03*
%TD*%
D17*
%TO.P,J9,1,1*%
%TO.N,unconnected-(J9-Pad1)*%
X196450000Y-76250000D03*
D18*
%TO.P,J9,2,2*%
%TO.N,GND*%
X200000000Y-73050000D03*
D17*
%TO.P,J9,4,4*%
%TO.N,unconnected-(J9-Pad4)*%
X203550000Y-76200000D03*
D18*
%TO.P,J9,5,5*%
%TO.N,TRI*%
X200000000Y-81150000D03*
%TD*%
D17*
%TO.P,J3,1,1*%
%TO.N,unconnected-(J3-Pad1)*%
X130450000Y-46250000D03*
D18*
%TO.P,J3,2,2*%
%TO.N,GND*%
X134000000Y-43050000D03*
D17*
%TO.P,J3,4,4*%
%TO.N,unconnected-(J3-Pad4)*%
X137550000Y-46200000D03*
D18*
%TO.P,J3,5,5*%
%TO.N,Net-(J3-Pad5)*%
X134000000Y-51150000D03*
%TD*%
D14*
%TO.P,RV9,1,1*%
%TO.N,-12V*%
X132500000Y-114550000D03*
D15*
%TO.P,RV9,2,2*%
%TO.N,Net-(R43-Pad2)*%
X135000000Y-114550000D03*
%TO.P,RV9,3,3*%
%TO.N,+12V*%
X137500000Y-114550000D03*
D16*
%TO.P,RV9,MP*%
%TO.N,N/C*%
X130600000Y-107550000D03*
X139400000Y-107550000D03*
%TD*%
D17*
%TO.P,J5,1,1*%
%TO.N,unconnected-(J5-Pad1)*%
X130450000Y-76250000D03*
D18*
%TO.P,J5,2,2*%
%TO.N,GND*%
X134000000Y-73050000D03*
D17*
%TO.P,J5,4,4*%
%TO.N,unconnected-(J5-Pad4)*%
X137550000Y-76200000D03*
D18*
%TO.P,J5,5,5*%
%TO.N,Net-(C16-Pad1)*%
X134000000Y-81150000D03*
%TD*%
D14*
%TO.P,RV8,1,1*%
%TO.N,-12V*%
X195500000Y-134550000D03*
D15*
%TO.P,RV8,2,2*%
%TO.N,PW*%
X198000000Y-134550000D03*
%TO.P,RV8,3,3*%
%TO.N,+12V*%
X200500000Y-134550000D03*
D16*
%TO.P,RV8,MP*%
%TO.N,N/C*%
X202400000Y-127550000D03*
X193600000Y-127550000D03*
%TD*%
D14*
%TO.P,RV7,1,1*%
%TO.N,GND*%
X132500000Y-134550000D03*
D15*
%TO.P,RV7,2,2*%
%TO.N,Net-(R42-Pad2)*%
X135000000Y-134550000D03*
%TO.P,RV7,3,3*%
%TO.N,Net-(J2-Pad5)*%
X137500000Y-134550000D03*
D16*
%TO.P,RV7,MP*%
%TO.N,N/C*%
X139400000Y-127550000D03*
X130600000Y-127550000D03*
%TD*%
D17*
%TO.P,J7,1,1*%
%TO.N,unconnected-(J7-Pad1)*%
X196450000Y-61250000D03*
D18*
%TO.P,J7,2,2*%
%TO.N,GND*%
X200000000Y-58050000D03*
D17*
%TO.P,J7,4,4*%
%TO.N,unconnected-(J7-Pad4)*%
X203550000Y-61200000D03*
D18*
%TO.P,J7,5,5*%
%TO.N,SINE*%
X200000000Y-66150000D03*
%TD*%
D17*
%TO.P,J4,1,1*%
%TO.N,unconnected-(J4-Pad1)*%
X144450000Y-76250000D03*
D18*
%TO.P,J4,2,2*%
%TO.N,GND*%
X148000000Y-73050000D03*
D17*
%TO.P,J4,4,4*%
%TO.N,unconnected-(J4-Pad4)*%
X151550000Y-76200000D03*
D18*
%TO.P,J4,5,5*%
%TO.N,Net-(J4-Pad5)*%
X148000000Y-81150000D03*
%TD*%
D17*
%TO.P,J6,1,1*%
%TO.N,unconnected-(J6-Pad1)*%
X196450000Y-91250000D03*
D18*
%TO.P,J6,2,2*%
%TO.N,GND*%
X200000000Y-88050000D03*
D17*
%TO.P,J6,4,4*%
%TO.N,unconnected-(J6-Pad4)*%
X203550000Y-91200000D03*
D18*
%TO.P,J6,5,5*%
%TO.N,RAMP*%
X200000000Y-96150000D03*
%TD*%
D14*
%TO.P,RV11,1,1*%
%TO.N,GND*%
X174500000Y-134550000D03*
D15*
%TO.P,RV11,2,2*%
%TO.N,LIN_FM*%
X177000000Y-134550000D03*
%TO.P,RV11,3,3*%
%TO.N,Net-(C16-Pad2)*%
X179500000Y-134550000D03*
D16*
%TO.P,RV11,MP*%
%TO.N,N/C*%
X172600000Y-127550000D03*
X181400000Y-127550000D03*
%TD*%
D19*
%TO.P,C7,1*%
%TO.N,GND*%
X179010000Y-61012500D03*
%TO.P,C7,2*%
%TO.N,+12V*%
X179010000Y-63087500D03*
%TD*%
D20*
%TO.P,U2,1*%
%TO.N,OP_555*%
X163490000Y-61847500D03*
D21*
%TO.P,U2,2,-*%
X163490000Y-64387500D03*
%TO.P,U2,3,+*%
%TO.N,Net-(C1-Pad1)*%
X163490000Y-66927500D03*
%TO.P,U2,4,V+*%
%TO.N,+12V*%
X163490000Y-69467500D03*
%TO.P,U2,5,+*%
%TO.N,OP_555*%
X163490000Y-72007500D03*
%TO.P,U2,6,-*%
%TO.N,Net-(R11-Pad2)*%
X163490000Y-74547500D03*
%TO.P,U2,7*%
%TO.N,/TRI_SIN*%
X163490000Y-77087500D03*
%TO.P,U2,8*%
%TO.N,Net-(R20-Pad2)*%
X155870000Y-77087500D03*
%TO.P,U2,9,-*%
%TO.N,Net-(R18-Pad2)*%
X155870000Y-74547500D03*
%TO.P,U2,10,+*%
%TO.N,GND*%
X155870000Y-72007500D03*
%TO.P,U2,11,V-*%
%TO.N,-12V*%
X155870000Y-69467500D03*
%TO.P,U2,12,+*%
%TO.N,Net-(R21-Pad2)*%
X155870000Y-66927500D03*
%TO.P,U2,13,-*%
%TO.N,Net-(R20-Pad2)*%
X155870000Y-64387500D03*
%TO.P,U2,14*%
%TO.N,Net-(R22-Pad2)*%
X155870000Y-61847500D03*
%TD*%
D22*
%TO.P,RV1,1,1*%
%TO.N,+12V*%
X200550000Y-119705000D03*
%TO.P,RV1,2,2*%
%TO.N,Net-(R5-Pad2)*%
X200550000Y-117165000D03*
%TO.P,RV1,3,3*%
%TO.N,-12V*%
X200550000Y-114625000D03*
%TD*%
D23*
%TO.P,D2,1,K*%
%TO.N,Net-(D2-Pad1)*%
X145920000Y-90690000D03*
D24*
%TO.P,D2,2,A*%
%TO.N,GND*%
X145920000Y-98310000D03*
%TD*%
D25*
%TO.P,R30,1*%
%TO.N,Net-(Q1-Pad1)*%
X192548000Y-63046000D03*
%TO.P,R30,2*%
%TO.N,Net-(C2-Pad2)*%
X192548000Y-61046000D03*
%TD*%
D20*
%TO.P,U3,1*%
%TO.N,Net-(R28-Pad1)*%
X181800000Y-55875000D03*
D21*
%TO.P,U3,2,-*%
%TO.N,MULTI_IN*%
X181800000Y-58415000D03*
%TO.P,U3,3,+*%
%TO.N,GND*%
X181800000Y-60955000D03*
%TO.P,U3,4,V+*%
%TO.N,+12V*%
X181800000Y-63495000D03*
%TO.P,U3,5,+*%
%TO.N,GND*%
X181800000Y-66035000D03*
%TO.P,U3,6,-*%
%TO.N,Net-(C2-Pad1)*%
X181800000Y-68575000D03*
%TO.P,U3,7*%
%TO.N,Net-(C2-Pad2)*%
X181800000Y-71115000D03*
%TO.P,U3,8*%
%TO.N,Net-(R39-Pad1)*%
X174180000Y-71115000D03*
%TO.P,U3,9,-*%
%TO.N,Net-(R38-Pad1)*%
X174180000Y-68575000D03*
%TO.P,U3,10,+*%
%TO.N,Net-(R37-Pad1)*%
X174180000Y-66035000D03*
%TO.P,U3,11,V-*%
%TO.N,-12V*%
X174180000Y-63495000D03*
%TO.P,U3,12,+*%
%TO.N,GND*%
X174180000Y-60955000D03*
%TO.P,U3,13,-*%
%TO.N,Net-(R33-Pad1)*%
X174180000Y-58415000D03*
%TO.P,U3,14*%
%TO.N,Net-(R36-Pad1)*%
X174180000Y-55875000D03*
%TD*%
D23*
%TO.P,U4,1,GND*%
%TO.N,GND*%
X174110000Y-115130000D03*
D24*
%TO.P,U4,2,TR*%
%TO.N,OP_555*%
X174110000Y-112590000D03*
%TO.P,U4,3,Q*%
%TO.N,OTA_555*%
X174110000Y-110050000D03*
%TO.P,U4,4,R*%
%TO.N,Net-(Q3-Pad3)*%
X174110000Y-107510000D03*
%TO.P,U4,5,CV*%
%TO.N,Net-(C14-Pad2)*%
X181730000Y-107510000D03*
%TO.P,U4,6,THR*%
%TO.N,OP_555*%
X181730000Y-110050000D03*
%TO.P,U4,7,DIS*%
%TO.N,Net-(R37-Pad1)*%
X181730000Y-112590000D03*
%TO.P,U4,8,VCC*%
%TO.N,+12V*%
X181730000Y-115130000D03*
%TD*%
D26*
%TO.P,R15,1*%
%TO.N,SINE*%
X205248000Y-95844000D03*
%TO.P,R15,2*%
%TO.N,Net-(R13-Pad2)*%
X205248000Y-97844000D03*
%TD*%
D22*
%TO.P,RV2,1,1*%
%TO.N,+12V*%
X187160000Y-87995000D03*
%TO.P,RV2,2,2*%
%TO.N,Net-(R9-Pad1)*%
X187160000Y-90535000D03*
%TO.P,RV2,3,3*%
X187160000Y-93075000D03*
%TD*%
D23*
%TO.P,C16,1*%
%TO.N,Net-(C16-Pad1)*%
X144864888Y-115700000D03*
D27*
%TO.P,C16,2*%
%TO.N,Net-(C16-Pad2)*%
X146864888Y-115700000D03*
%TD*%
D25*
%TO.P,R9,1*%
%TO.N,Net-(R9-Pad1)*%
X187200000Y-85100000D03*
%TO.P,R9,2*%
%TO.N,Net-(R9-Pad2)*%
X187200000Y-83100000D03*
%TD*%
D28*
%TO.P,R28,1*%
%TO.N,Net-(R28-Pad1)*%
X189510000Y-59590000D03*
D29*
%TO.P,R28,2*%
%TO.N,MULTI_IN*%
X186970000Y-59590000D03*
%TD*%
D30*
%TO.P,J1,1,Pin_1*%
%TO.N,-12V*%
X171475000Y-43375000D03*
D31*
%TO.P,J1,2,Pin_2*%
X171475000Y-40835000D03*
%TO.P,J1,3,Pin_3*%
%TO.N,GND*%
X168935000Y-43375000D03*
%TO.P,J1,4,Pin_4*%
X168935000Y-40835000D03*
%TO.P,J1,5,Pin_5*%
X166395000Y-43375000D03*
%TO.P,J1,6,Pin_6*%
X166395000Y-40835000D03*
%TO.P,J1,7,Pin_7*%
X163855000Y-43375000D03*
%TO.P,J1,8,Pin_8*%
X163855000Y-40835000D03*
%TO.P,J1,9,Pin_9*%
%TO.N,+12V*%
X161315000Y-43375000D03*
%TO.P,J1,10,Pin_10*%
X161315000Y-40835000D03*
%TD*%
D23*
%TO.P,D1,1,K*%
%TO.N,Net-(D1-Pad1)*%
X192450000Y-47070000D03*
D24*
%TO.P,D1,2,A*%
%TO.N,Net-(C2-Pad2)*%
X192450000Y-54690000D03*
%TD*%
D32*
%TO.P,Q2,1,E*%
%TO.N,Net-(Q1-Pad1)*%
X192510000Y-68270000D03*
D33*
%TO.P,Q2,2,B*%
%TO.N,Net-(Q2-Pad2)*%
X192510000Y-67000000D03*
%TO.P,Q2,3,C*%
%TO.N,OTA_Q*%
X192510000Y-65730000D03*
%TD*%
D25*
%TO.P,R38,1*%
%TO.N,Net-(R38-Pad1)*%
X169610000Y-65950000D03*
%TO.P,R38,2*%
%TO.N,Net-(R36-Pad1)*%
X169610000Y-63950000D03*
%TD*%
D26*
%TO.P,R11,1*%
%TO.N,+12V*%
X175650000Y-74240000D03*
%TO.P,R11,2*%
%TO.N,Net-(R11-Pad2)*%
X175650000Y-76240000D03*
%TD*%
D19*
%TO.P,C10,1*%
%TO.N,-12V*%
X184100000Y-85662500D03*
%TO.P,C10,2*%
%TO.N,GND*%
X184100000Y-87737500D03*
%TD*%
D26*
%TO.P,R5,1*%
%TO.N,Net-(R5-Pad1)*%
X171540000Y-92270000D03*
%TO.P,R5,2*%
%TO.N,Net-(R5-Pad2)*%
X171540000Y-94270000D03*
%TD*%
D22*
%TO.P,RV4,1,1*%
%TO.N,GND*%
X182975000Y-42060000D03*
%TO.P,RV4,2,2*%
%TO.N,Net-(R25-Pad2)*%
X185515000Y-42060000D03*
%TO.P,RV4,3,3*%
%TO.N,Net-(D1-Pad1)*%
X188055000Y-42060000D03*
%TD*%
%TO.P,RV3,1,1*%
%TO.N,Net-(R29-Pad1)*%
X187420000Y-47655000D03*
%TO.P,RV3,2,2*%
%TO.N,Net-(Q2-Pad2)*%
X187420000Y-50195000D03*
%TO.P,RV3,3,3*%
%TO.N,Net-(R28-Pad1)*%
X187420000Y-52735000D03*
%TD*%
D26*
%TO.P,R10,1*%
%TO.N,+12V*%
X177670000Y-74240000D03*
%TO.P,R10,2*%
%TO.N,Net-(R10-Pad2)*%
X177670000Y-76240000D03*
%TD*%
D25*
%TO.P,R27,1*%
%TO.N,LIN_FM*%
X188990000Y-116570000D03*
%TO.P,R27,2*%
%TO.N,Net-(C2-Pad1)*%
X188990000Y-114570000D03*
%TD*%
%TO.P,R39,1*%
%TO.N,Net-(R39-Pad1)*%
X171620000Y-69800000D03*
%TO.P,R39,2*%
%TO.N,Net-(R38-Pad1)*%
X171620000Y-67800000D03*
%TD*%
D32*
%TO.P,Q1,1,E*%
%TO.N,Net-(Q1-Pad1)*%
X187650000Y-65650000D03*
D33*
%TO.P,Q1,2,B*%
%TO.N,GND*%
X187650000Y-66920000D03*
%TO.P,Q1,3,C*%
%TO.N,Net-(C2-Pad1)*%
X187650000Y-68190000D03*
%TD*%
D34*
%TO.P,U1,1*%
%TO.N,OTA_Q*%
X181200000Y-80090000D03*
%TO.P,U1,2,DIODE_BIAS*%
%TO.N,unconnected-(U1-Pad2)*%
X181200000Y-81360000D03*
%TO.P,U1,3,+*%
%TO.N,Net-(R3-Pad1)*%
X181200000Y-82630000D03*
%TO.P,U1,4,-*%
%TO.N,Net-(R1-Pad2)*%
X181200000Y-83900000D03*
%TO.P,U1,5*%
%TO.N,Net-(C1-Pad1)*%
X181200000Y-85170000D03*
%TO.P,U1,6,V-*%
%TO.N,-12V*%
X181200000Y-86440000D03*
%TO.P,U1,7*%
%TO.N,GND*%
X181200000Y-87710000D03*
%TO.P,U1,8*%
%TO.N,unconnected-(U1-Pad8)*%
X181200000Y-88980000D03*
%TO.P,U1,9*%
%TO.N,Net-(R13-Pad2)*%
X176250000Y-88980000D03*
%TO.P,U1,10*%
%TO.N,Net-(R10-Pad2)*%
X176250000Y-87710000D03*
%TO.P,U1,11,V+*%
%TO.N,+12V*%
X176250000Y-86440000D03*
%TO.P,U1,12*%
%TO.N,Net-(R10-Pad2)*%
X176250000Y-85170000D03*
%TO.P,U1,13,-*%
%TO.N,Net-(R5-Pad1)*%
X176250000Y-83900000D03*
%TO.P,U1,14,+*%
%TO.N,GND*%
X176250000Y-82630000D03*
%TO.P,U1,15,DIODE_BIAS*%
%TO.N,unconnected-(U1-Pad15)*%
X176250000Y-81360000D03*
%TO.P,U1,16*%
%TO.N,Net-(R9-Pad2)*%
X176250000Y-80090000D03*
%TD*%
D26*
%TO.P,R4,1*%
%TO.N,Net-(R3-Pad1)*%
X178410000Y-96540000D03*
%TO.P,R4,2*%
%TO.N,OTA_555*%
X178410000Y-98540000D03*
%TD*%
D23*
%TO.P,C3,1*%
%TO.N,+12V*%
X161344888Y-50300000D03*
D27*
%TO.P,C3,2*%
%TO.N,GND*%
X163344888Y-50300000D03*
%TD*%
D32*
%TO.P,Q3,1,E*%
%TO.N,GND*%
X149390000Y-91870000D03*
D33*
%TO.P,Q3,2,B*%
%TO.N,Net-(D2-Pad1)*%
X149390000Y-90600000D03*
%TO.P,Q3,3,C*%
%TO.N,Net-(Q3-Pad3)*%
X149390000Y-89330000D03*
%TD*%
D22*
%TO.P,RV5,1,1*%
%TO.N,-12V*%
X129270000Y-86515000D03*
%TO.P,RV5,2,2*%
%TO.N,Net-(R35-Pad2)*%
X129270000Y-89055000D03*
%TO.P,RV5,3,3*%
%TO.N,+12V*%
X129270000Y-91595000D03*
%TD*%
D25*
%TO.P,R37,1*%
%TO.N,Net-(R37-Pad1)*%
X171620000Y-65950000D03*
%TO.P,R37,2*%
%TO.N,Net-(R36-Pad1)*%
X171620000Y-63950000D03*
%TD*%
D23*
%TO.P,C4,1*%
%TO.N,GND*%
X169444888Y-50400000D03*
D27*
%TO.P,C4,2*%
%TO.N,-12V*%
X171444888Y-50400000D03*
%TD*%
D35*
%TO.N,Net-(C1-Pad1)*%
X183100000Y-88800000D03*
X171400000Y-75347000D03*
X178770000Y-85170000D03*
X182800000Y-85100000D03*
X183900000Y-93900000D03*
X170800000Y-72300000D03*
X183100000Y-91300000D03*
X186300000Y-96300000D03*
X176600000Y-79100000D03*
%TO.N,GND*%
X149300000Y-117200000D03*
X178410000Y-87710000D03*
X184300000Y-97500000D03*
X174500000Y-82600000D03*
X186100000Y-86500000D03*
X149200000Y-122500000D03*
X169500000Y-75347000D03*
X186200000Y-97500000D03*
X192500000Y-87200000D03*
X181200000Y-96500000D03*
X164420000Y-81710000D03*
X178000000Y-93700000D03*
X177800000Y-82700000D03*
X179010000Y-47220000D03*
%TO.N,Net-(C2-Pad2)*%
X189500000Y-70000000D03*
%TO.N,Net-(C13-Pad1)*%
X140600500Y-73900000D03*
X140600000Y-72200000D03*
%TO.N,+12V*%
X180000000Y-97600000D03*
X164360000Y-79250000D03*
X163338000Y-100400000D03*
X182600000Y-95200000D03*
X139100000Y-121000000D03*
X167190000Y-100400000D03*
X176100000Y-97200000D03*
X180100000Y-103100000D03*
X174800000Y-95100000D03*
X163280000Y-86960000D03*
X161600000Y-80700000D03*
%TO.N,-12V*%
X189360000Y-106600000D03*
X168200000Y-52800000D03*
X163900000Y-58490000D03*
X171080000Y-61890000D03*
X185500000Y-85600000D03*
X179300000Y-66200000D03*
X141800000Y-65600000D03*
X185100000Y-100500000D03*
X169000000Y-59300000D03*
X151600000Y-70000000D03*
X163900000Y-53400000D03*
%TO.N,PWM*%
X156000000Y-126100000D03*
%TO.N,MULTI_IN*%
X174768000Y-51870000D03*
X158780000Y-51860000D03*
%TO.N,OTA_Q*%
X191500000Y-71400000D03*
X192900000Y-70000000D03*
X182015332Y-77084668D03*
%TO.N,Net-(Q3-Pad3)*%
X153260000Y-93180000D03*
X160798000Y-93034000D03*
X153255000Y-90565000D03*
X170200000Y-104540000D03*
%TO.N,Net-(R1-Pad2)*%
X183000000Y-83900000D03*
%TO.N,Net-(R3-Pad1)*%
X179734778Y-83200000D03*
X178400000Y-90000000D03*
%TO.N,Net-(R5-Pad1)*%
X172600000Y-86100000D03*
X173000000Y-83900000D03*
%TO.N,Net-(R5-Pad2)*%
X171500000Y-95900000D03*
%TO.N,/TRI_SIN*%
X167743246Y-79643246D03*
%TO.N,Net-(R10-Pad2)*%
X169700000Y-85200000D03*
%TO.N,Net-(R9-Pad2)*%
X177800000Y-80100000D03*
X187200000Y-81900000D03*
%TO.N,Net-(R11-Pad2)*%
X176100000Y-77300000D03*
%TO.N,Net-(R13-Pad2)*%
X174200000Y-90000000D03*
X188200000Y-105480000D03*
X192280000Y-104000000D03*
X183000000Y-101400000D03*
%TO.N,Net-(R21-Pad2)*%
X158766000Y-67110000D03*
X160720000Y-68180000D03*
X165100000Y-68200000D03*
X168300000Y-72400000D03*
%TO.N,Net-(R22-Pad2)*%
X176260000Y-72710000D03*
X159880000Y-63630000D03*
X190100000Y-80400000D03*
X184330000Y-74480000D03*
%TO.N,OP_555*%
X159050000Y-88990000D03*
X161000000Y-90140000D03*
X161580000Y-66420000D03*
X158560000Y-78680000D03*
X167000000Y-90140000D03*
X168200000Y-61840000D03*
%TO.N,Net-(R37-Pad1)*%
X180800000Y-73000000D03*
%TO.N,Net-(C16-Pad1)*%
X143600000Y-95300000D03*
%TO.N,Net-(J2-Pad5)*%
X140500000Y-114900000D03*
%TO.N,Net-(J4-Pad5)*%
X154500000Y-132000000D03*
X154500000Y-129200000D03*
%TO.N,Net-(R35-Pad2)*%
X168200000Y-54560000D03*
%TO.N,Net-(R41-Pad2)*%
X150090000Y-77980000D03*
X152950000Y-65410000D03*
%TO.N,Net-(R43-Pad2)*%
X149910000Y-62540000D03*
%TO.N,Net-(R42-Pad2)*%
X154300000Y-57130000D03*
X141400000Y-117100000D03*
%TD*%
D36*
%TO.N,Net-(C1-Pad1)*%
X170800000Y-72300000D02*
X170800000Y-72270000D01*
X175100000Y-79100000D02*
X171500000Y-75500000D01*
X183900000Y-93900000D02*
X186300000Y-96300000D01*
X181200000Y-85170000D02*
X178770000Y-85170000D01*
X182800000Y-85100000D02*
X182730000Y-85170000D01*
X171400000Y-75400000D02*
X171400000Y-75300000D01*
X176600000Y-79100000D02*
X175100000Y-79100000D01*
X182730000Y-85170000D02*
X181200000Y-85170000D01*
X183100000Y-88800000D02*
X183100000Y-91300000D01*
X165457500Y-66927500D02*
X163490000Y-66927500D01*
X178770000Y-85170000D02*
X178700000Y-85100000D01*
X170800000Y-72270000D02*
X165457500Y-66927500D01*
X171500000Y-75500000D02*
X171400000Y-75400000D01*
D37*
%TO.N,GND*%
X164420000Y-83520000D02*
X165900000Y-85000000D01*
D38*
X174180000Y-60955000D02*
X181800000Y-60955000D01*
D37*
X154000000Y-110900000D02*
X154000000Y-102400000D01*
D36*
X153500000Y-134550000D02*
X152050000Y-134550000D01*
D37*
X156800000Y-90100000D02*
X156800000Y-87100000D01*
X178400000Y-93700000D02*
X178000000Y-93700000D01*
D36*
X134000000Y-43050000D02*
X138450000Y-43050000D01*
X186100000Y-86500000D02*
X184890000Y-87710000D01*
X149200000Y-131700000D02*
X149200000Y-122500000D01*
D37*
X174110000Y-115130000D02*
X174600000Y-115620000D01*
X154000000Y-102400000D02*
X162000000Y-94400000D01*
X155030000Y-91870000D02*
X156800000Y-90100000D01*
X164260000Y-81870000D02*
X164420000Y-81710000D01*
D36*
X152050000Y-134550000D02*
X149200000Y-131700000D01*
X141100000Y-130600000D02*
X134700000Y-130600000D01*
X132500000Y-132800000D02*
X132500000Y-134550000D01*
X148000000Y-52600000D02*
X148000000Y-58050000D01*
D37*
X145920000Y-95340000D02*
X149390000Y-91870000D01*
X184300000Y-87710000D02*
X181200000Y-87710000D01*
X165290000Y-99620051D02*
X165290000Y-106310000D01*
D36*
X138450000Y-43050000D02*
X148000000Y-52600000D01*
X179010000Y-47220000D02*
X179010000Y-46025000D01*
D37*
X149300000Y-115600000D02*
X154000000Y-110900000D01*
X162000000Y-94400000D02*
X162000000Y-84130000D01*
X177800000Y-82700000D02*
X177730000Y-82630000D01*
X186200000Y-97500000D02*
X184300000Y-97500000D01*
X177730000Y-82630000D02*
X176250000Y-82630000D01*
X165900000Y-99010050D02*
X165290000Y-99620051D01*
D36*
X179010000Y-47220000D02*
X179010000Y-61012500D01*
X179010000Y-46025000D02*
X182975000Y-42060000D01*
X192500000Y-87200000D02*
X193350000Y-88050000D01*
D37*
X165900000Y-85000000D02*
X165900000Y-99010050D01*
X174600000Y-134450000D02*
X174500000Y-134550000D01*
X181200000Y-96500000D02*
X178400000Y-93700000D01*
D38*
X169500000Y-75347000D02*
X169500000Y-79300000D01*
D37*
X165290000Y-106310000D02*
X174110000Y-115130000D01*
X176250000Y-82630000D02*
X174530000Y-82630000D01*
D38*
X167090000Y-81710000D02*
X164420000Y-81710000D01*
D37*
X162190000Y-81710000D02*
X164420000Y-81710000D01*
X162000000Y-84130000D02*
X164420000Y-81710000D01*
X181200000Y-87710000D02*
X178410000Y-87710000D01*
X149300000Y-117200000D02*
X149300000Y-115600000D01*
X174530000Y-82630000D02*
X174500000Y-82600000D01*
D38*
X169500000Y-79300000D02*
X167090000Y-81710000D01*
D37*
X145920000Y-98310000D02*
X145920000Y-95340000D01*
X164420000Y-81710000D02*
X164420000Y-83520000D01*
D36*
X134700000Y-130600000D02*
X132500000Y-132800000D01*
D37*
X156800000Y-87100000D02*
X162190000Y-81710000D01*
X149390000Y-91870000D02*
X155030000Y-91870000D01*
D36*
X182125000Y-60955000D02*
X181800000Y-60955000D01*
X184890000Y-87710000D02*
X184300000Y-87710000D01*
X193350000Y-88050000D02*
X200000000Y-88050000D01*
X174600000Y-115620000D02*
X174600000Y-134450000D01*
X149200000Y-122500000D02*
X141100000Y-130600000D01*
X131850000Y-134550000D02*
X132500000Y-134550000D01*
%TO.N,Net-(C2-Pad1)*%
X191130000Y-112430000D02*
X191130000Y-78680000D01*
X187650000Y-75200000D02*
X187650000Y-68190000D01*
X188990000Y-114570000D02*
X191130000Y-112430000D01*
X191130000Y-78680000D02*
X187650000Y-75200000D01*
%TO.N,Net-(C2-Pad2)*%
X189500000Y-64000000D02*
X192454000Y-61046000D01*
X192450000Y-60948000D02*
X192450000Y-54690000D01*
X192454000Y-61046000D02*
X192548000Y-61046000D01*
X192548000Y-61046000D02*
X192450000Y-60948000D01*
X189500000Y-70000000D02*
X189500000Y-64000000D01*
%TO.N,Net-(C13-Pad1)*%
X140600500Y-73900000D02*
X140550000Y-73849500D01*
X140550000Y-72250000D02*
X140600000Y-72200000D01*
X140550000Y-73849500D02*
X140550000Y-72250000D01*
D37*
%TO.N,+12V*%
X175650000Y-74240000D02*
X177670000Y-74240000D01*
X173400000Y-93700000D02*
X174800000Y-95100000D01*
D38*
X163338000Y-133420000D02*
X167148000Y-137230000D01*
D37*
X179022500Y-63100000D02*
X179010000Y-63087500D01*
D39*
X157600000Y-112100000D02*
X158300000Y-112800000D01*
X163050000Y-79250000D02*
X164360000Y-79250000D01*
D37*
X200200000Y-134250000D02*
X200200000Y-120055000D01*
X176250000Y-86440000D02*
X174060000Y-86440000D01*
X167190000Y-100400000D02*
X167201000Y-100400000D01*
X163280000Y-86960000D02*
X163338000Y-87018000D01*
D38*
X161315000Y-50270112D02*
X161344888Y-50300000D01*
D37*
X180100000Y-103100000D02*
X180100000Y-97700000D01*
D39*
X163338000Y-100400000D02*
X160800000Y-100400000D01*
D37*
X168000000Y-73600000D02*
X163867500Y-69467500D01*
X187160000Y-88540000D02*
X182600000Y-93100000D01*
D38*
X163280000Y-100342000D02*
X163338000Y-100400000D01*
D37*
X177670000Y-74240000D02*
X177670000Y-63462000D01*
X181405000Y-63100000D02*
X179022500Y-63100000D01*
X178044500Y-63087500D02*
X179010000Y-63087500D01*
D39*
X154600000Y-121000000D02*
X158500000Y-117100000D01*
X157600000Y-103600000D02*
X157600000Y-112100000D01*
D38*
X200500000Y-136300000D02*
X200500000Y-134550000D01*
X163338000Y-100400000D02*
X163338000Y-133420000D01*
D37*
X170401000Y-97200000D02*
X176100000Y-97200000D01*
X200500000Y-134550000D02*
X200200000Y-134250000D01*
D39*
X163338000Y-87018000D02*
X163338000Y-100284000D01*
D37*
X173400000Y-87100000D02*
X173400000Y-93700000D01*
D36*
X164360000Y-79250000D02*
X164360000Y-79312000D01*
D39*
X158300000Y-112800000D02*
X158300000Y-114118630D01*
D37*
X187160000Y-87995000D02*
X187160000Y-88540000D01*
X180100000Y-97700000D02*
X180000000Y-97600000D01*
X175650000Y-74240000D02*
X174740000Y-74240000D01*
X182600000Y-93100000D02*
X182600000Y-95200000D01*
D38*
X199570000Y-137230000D02*
X200500000Y-136300000D01*
D37*
X174740000Y-74240000D02*
X174100000Y-73600000D01*
D39*
X161315000Y-40835000D02*
X161315000Y-43375000D01*
X139100000Y-121000000D02*
X154600000Y-121000000D01*
D37*
X177670000Y-63462000D02*
X178044500Y-63087500D01*
X167201000Y-100400000D02*
X170401000Y-97200000D01*
X200200000Y-120055000D02*
X200550000Y-119705000D01*
D39*
X160800000Y-100400000D02*
X157600000Y-103600000D01*
D37*
X163338000Y-100284000D02*
X163280000Y-100342000D01*
X158300000Y-114118630D02*
X158184315Y-114234315D01*
X181800000Y-63495000D02*
X181405000Y-63100000D01*
D39*
X161315000Y-43375000D02*
X161315000Y-50270112D01*
X161600000Y-80700000D02*
X163050000Y-79250000D01*
D37*
X174060000Y-86440000D02*
X173400000Y-87100000D01*
X174100000Y-73600000D02*
X168000000Y-73600000D01*
D39*
X158500000Y-117100000D02*
X158500000Y-114550000D01*
D37*
X163867500Y-69467500D02*
X163490000Y-69467500D01*
D38*
X167148000Y-137230000D02*
X199570000Y-137230000D01*
D37*
%TO.N,-12V*%
X179300000Y-73100000D02*
X179300000Y-66200000D01*
X182915332Y-76711875D02*
X182388125Y-76184668D01*
D38*
X128400000Y-67600000D02*
X131900000Y-64100000D01*
X127500000Y-88285000D02*
X129270000Y-86515000D01*
X152000000Y-118500000D02*
X153500000Y-117000000D01*
X132500000Y-114550000D02*
X127500000Y-109550000D01*
D39*
X171475000Y-40835000D02*
X171475000Y-43375000D01*
D38*
X171475000Y-50069888D02*
X171144888Y-50400000D01*
X140300000Y-64100000D02*
X141800000Y-65600000D01*
X154132500Y-69467500D02*
X155870000Y-69467500D01*
D37*
X189360000Y-106600000D02*
X189360000Y-104760000D01*
D38*
X164500000Y-52800000D02*
X163900000Y-53400000D01*
D36*
X171080000Y-61890000D02*
X172072000Y-61890000D01*
D37*
X184100000Y-77900000D02*
X182915332Y-76715332D01*
D36*
X184162500Y-85600000D02*
X184100000Y-85662500D01*
X185500000Y-85600000D02*
X184162500Y-85600000D01*
D38*
X134600000Y-118500000D02*
X152000000Y-118500000D01*
D36*
X183537500Y-85662500D02*
X184100000Y-85662500D01*
X172072000Y-61890000D02*
X173677000Y-63495000D01*
D38*
X153600000Y-70000000D02*
X154132500Y-69467500D01*
D36*
X173677000Y-63495000D02*
X174180000Y-63495000D01*
D39*
X171475000Y-43375000D02*
X171475000Y-50069888D01*
D38*
X168200000Y-52800000D02*
X164500000Y-52800000D01*
D36*
X168190000Y-58490000D02*
X163900000Y-58490000D01*
D37*
X182915332Y-76715332D02*
X182915332Y-76711875D01*
D38*
X127500000Y-109550000D02*
X127500000Y-88285000D01*
X129215000Y-86515000D02*
X128400000Y-85700000D01*
D36*
X169000000Y-59300000D02*
X168190000Y-58490000D01*
D38*
X132500000Y-116400000D02*
X134600000Y-118500000D01*
D36*
X181200000Y-86440000D02*
X182760000Y-86440000D01*
D38*
X132500000Y-114550000D02*
X132500000Y-116400000D01*
X128400000Y-85700000D02*
X128400000Y-67600000D01*
D37*
X189360000Y-104760000D02*
X185100000Y-100500000D01*
D38*
X131900000Y-64100000D02*
X140300000Y-64100000D01*
X153500000Y-117000000D02*
X153500000Y-114550000D01*
D36*
X182760000Y-86440000D02*
X183537500Y-85662500D01*
D37*
X182388125Y-76184668D02*
X182384668Y-76184668D01*
X184100000Y-85662500D02*
X184100000Y-77900000D01*
D38*
X129270000Y-86515000D02*
X129215000Y-86515000D01*
D37*
X182384668Y-76184668D02*
X179300000Y-73100000D01*
D38*
X151600000Y-70000000D02*
X153600000Y-70000000D01*
D37*
%TO.N,SINE*%
X205248000Y-95844000D02*
X205248000Y-68348000D01*
X205248000Y-68348000D02*
X203050000Y-66150000D01*
X203050000Y-66150000D02*
X200000000Y-66150000D01*
D36*
%TO.N,PWM*%
X156000000Y-126100000D02*
X156000000Y-134550000D01*
%TO.N,MULTI_IN*%
X186970000Y-59590000D02*
X185795000Y-58415000D01*
X184895000Y-58893968D02*
X184895000Y-58715000D01*
X174758000Y-51860000D02*
X174768000Y-51870000D01*
X185495000Y-58715000D02*
X185495000Y-58893968D01*
X158780000Y-51860000D02*
X174758000Y-51860000D01*
X184295000Y-57936032D02*
X184295000Y-58115000D01*
X183995000Y-58415000D02*
X182684708Y-58415000D01*
X182684708Y-58415000D02*
X181800000Y-58415000D01*
X184895000Y-58715000D02*
X184895000Y-57936032D01*
X185195000Y-59193968D02*
G75*
G02*
X184895032Y-58893968I0J299968D01*
G01*
X185795000Y-58415000D02*
G75*
G03*
X185495000Y-58715000I0J-300000D01*
G01*
X184295000Y-58115000D02*
G75*
G02*
X183995000Y-58415000I-300000J0D01*
G01*
X184595000Y-57636032D02*
G75*
G03*
X184295032Y-57936032I0J-299968D01*
G01*
X184895000Y-57936032D02*
G75*
G03*
X184595000Y-57636000I-300000J32D01*
G01*
X185495000Y-58893968D02*
G75*
G02*
X185195000Y-59194000I-300000J-32D01*
G01*
%TO.N,LIN_FM*%
X177000000Y-124450000D02*
X177000000Y-134550000D01*
X188990000Y-116570000D02*
X184880000Y-116570000D01*
X184880000Y-116570000D02*
X177000000Y-124450000D01*
%TO.N,Net-(Q1-Pad1)*%
X192548000Y-63046000D02*
X190750000Y-64844000D01*
X190750000Y-67750000D02*
X191270000Y-68270000D01*
X191270000Y-68270000D02*
X192510000Y-68270000D01*
X190750000Y-64844000D02*
X190750000Y-67750000D01*
%TO.N,Net-(Q2-Pad2)*%
X194490000Y-66510000D02*
X194000000Y-67000000D01*
X194490000Y-51034000D02*
X194490000Y-66510000D01*
X194072000Y-50616000D02*
X194490000Y-51034000D01*
X187841000Y-50616000D02*
X194072000Y-50616000D01*
X194000000Y-67000000D02*
X192510000Y-67000000D01*
X187420000Y-50195000D02*
X187841000Y-50616000D01*
%TO.N,OTA_Q*%
X182015332Y-77084668D02*
X181200000Y-77900000D01*
X192530000Y-65630000D02*
X192510000Y-65650000D01*
X191500000Y-71400000D02*
X192900000Y-70000000D01*
X181200000Y-77900000D02*
X181200000Y-80090000D01*
%TO.N,Net-(Q3-Pad3)*%
X152020000Y-89330000D02*
X153255000Y-90565000D01*
X149390000Y-89330000D02*
X152020000Y-89330000D01*
X160798000Y-93034000D02*
X160652000Y-93180000D01*
X153255000Y-90565000D02*
X153290000Y-90600000D01*
X170200000Y-104540000D02*
X173170000Y-107510000D01*
X173170000Y-107510000D02*
X174110000Y-107510000D01*
X160652000Y-93180000D02*
X153260000Y-93180000D01*
%TO.N,Net-(R1-Pad2)*%
X181200000Y-83900000D02*
X183000000Y-83900000D01*
%TO.N,Net-(R3-Pad1)*%
X178410000Y-96540000D02*
X178410000Y-95710000D01*
X179734778Y-83200000D02*
X180304778Y-82630000D01*
X178410000Y-95710000D02*
X177000000Y-94300000D01*
X178400000Y-91600000D02*
X178400000Y-90000000D01*
X180304778Y-82630000D02*
X181200000Y-82630000D01*
X178410000Y-96540000D02*
X178580000Y-96370000D01*
X177000000Y-93000000D02*
X178400000Y-91600000D01*
X177000000Y-94300000D02*
X177000000Y-93000000D01*
%TO.N,OTA_555*%
X175310000Y-108007057D02*
X174607057Y-108710000D01*
X177980000Y-105298629D02*
X175310000Y-107968629D01*
X175310000Y-107968629D02*
X175310000Y-108007057D01*
X174110000Y-109168629D02*
X174110000Y-110050000D01*
X177980000Y-98970000D02*
X177980000Y-105298629D01*
X178410000Y-98540000D02*
X177980000Y-98970000D01*
X174568629Y-108710000D02*
X174110000Y-109168629D01*
X174607057Y-108710000D02*
X174568629Y-108710000D01*
%TO.N,Net-(R5-Pad1)*%
X171540000Y-92270000D02*
X171540000Y-87160000D01*
X172600000Y-86100000D02*
X172600000Y-85900000D01*
X176250000Y-83900000D02*
X173000000Y-83900000D01*
X171540000Y-87160000D02*
X172600000Y-86100000D01*
%TO.N,Net-(R5-Pad2)*%
X171540000Y-94270000D02*
X171540000Y-95860000D01*
X171540000Y-95860000D02*
X171500000Y-95900000D01*
%TO.N,/TRI_SIN*%
X167743246Y-79643246D02*
X165187500Y-77087500D01*
X165187500Y-77087500D02*
X163490000Y-77087500D01*
%TO.N,Net-(R10-Pad2)*%
X178800000Y-76240000D02*
X177670000Y-76240000D01*
X177630000Y-85170000D02*
X178934778Y-83865222D01*
X177270000Y-85170000D02*
X176250000Y-85170000D01*
X176250000Y-85170000D02*
X177630000Y-85170000D01*
X178934778Y-76374778D02*
X178800000Y-76240000D01*
X178934778Y-83865222D02*
X178934778Y-76374778D01*
X177625000Y-85525000D02*
X177270000Y-85170000D01*
X177625000Y-87075000D02*
X177625000Y-85525000D01*
X176250000Y-87710000D02*
X176990000Y-87710000D01*
X169730000Y-85170000D02*
X169700000Y-85200000D01*
X176990000Y-87710000D02*
X177625000Y-87075000D01*
X176250000Y-85170000D02*
X169730000Y-85170000D01*
%TO.N,Net-(R9-Pad1)*%
X188200000Y-85100000D02*
X187200000Y-85100000D01*
X188500000Y-89195000D02*
X188500000Y-85400000D01*
X187160000Y-93075000D02*
X187160000Y-90535000D01*
X187160000Y-90535000D02*
X188500000Y-89195000D01*
X188500000Y-85400000D02*
X188200000Y-85100000D01*
%TO.N,Net-(R9-Pad2)*%
X177790000Y-80090000D02*
X176250000Y-80090000D01*
X177800000Y-80100000D02*
X177790000Y-80090000D01*
X187200000Y-83100000D02*
X187200000Y-81900000D01*
%TO.N,Net-(R11-Pad2)*%
X175640000Y-76250000D02*
X175650000Y-76240000D01*
X163490000Y-74547500D02*
X172477500Y-74547500D01*
X176100000Y-77300000D02*
X176100000Y-76690000D01*
X176100000Y-76690000D02*
X175650000Y-76240000D01*
X173710000Y-76250000D02*
X175640000Y-76250000D01*
X173710000Y-75780000D02*
X173710000Y-76250000D01*
X175630000Y-76260000D02*
X175650000Y-76240000D01*
X172477500Y-74547500D02*
X173710000Y-75780000D01*
%TO.N,Net-(R13-Pad2)*%
X174200000Y-90000000D02*
X174200000Y-89700000D01*
X198480000Y-97800000D02*
X205204000Y-97800000D01*
X192280000Y-104000000D02*
X198480000Y-97800000D01*
X174920000Y-88980000D02*
X176250000Y-88980000D01*
X174200000Y-89700000D02*
X174920000Y-88980000D01*
X187080000Y-105480000D02*
X183000000Y-101400000D01*
X188200000Y-105480000D02*
X187080000Y-105480000D01*
X205204000Y-97800000D02*
X205248000Y-97844000D01*
%TO.N,Net-(R20-Pad2)*%
X156927500Y-64387500D02*
X157750000Y-65210000D01*
X157750000Y-76524000D02*
X157186500Y-77087500D01*
X157186500Y-77087500D02*
X155870000Y-77087500D01*
X157750000Y-65210000D02*
X157750000Y-76524000D01*
X155870000Y-64387500D02*
X156927500Y-64387500D01*
%TO.N,Net-(R21-Pad2)*%
X168300000Y-72100000D02*
X165100000Y-68900000D01*
X168300000Y-72400000D02*
X168300000Y-72100000D01*
X159650000Y-67110000D02*
X160720000Y-68180000D01*
X158766000Y-67110000D02*
X159650000Y-67110000D01*
X165100000Y-68900000D02*
X165100000Y-68200000D01*
%TO.N,Net-(R22-Pad2)*%
X169688000Y-68904000D02*
X169688000Y-69920000D01*
X166441500Y-65657500D02*
X169688000Y-68904000D01*
X190074000Y-80400000D02*
X184330000Y-74656000D01*
X190100000Y-80400000D02*
X190074000Y-80400000D01*
X169688000Y-69920000D02*
X172478000Y-72710000D01*
X172478000Y-72710000D02*
X176260000Y-72710000D01*
X184330000Y-74656000D02*
X184330000Y-74480000D01*
X161907500Y-65657500D02*
X166441500Y-65657500D01*
X159880000Y-63630000D02*
X161907500Y-65657500D01*
%TO.N,Net-(R28-Pad1)*%
X189928632Y-56928632D02*
X189928632Y-57160000D01*
X189510000Y-57810000D02*
X189510000Y-59590000D01*
X184615920Y-54154402D02*
X184615921Y-54154402D01*
X187420000Y-52735000D02*
X186227500Y-53927500D01*
X189510000Y-57578632D02*
X189510000Y-57810000D01*
X186000601Y-55079459D02*
X186000599Y-55079460D01*
X186000599Y-55079460D02*
X185075540Y-54154402D01*
X184615921Y-54614021D02*
X184848639Y-54846739D01*
X186227500Y-54387120D02*
X186460219Y-54619839D01*
X186460220Y-55079458D02*
X186460219Y-55079459D01*
X184280000Y-55875000D02*
X181800000Y-55875000D01*
X187420000Y-52735000D02*
X189510000Y-54825000D01*
X184615921Y-54614020D02*
X184615921Y-54614021D01*
X189510000Y-54825000D02*
X189510000Y-56510000D01*
X184848640Y-55306358D02*
X184848639Y-55306359D01*
X184848639Y-55306359D02*
X184280000Y-55875000D01*
X186227500Y-53927500D02*
G75*
G03*
X186227510Y-54387110I229800J-229800D01*
G01*
X189510000Y-56510000D02*
G75*
G03*
X189719316Y-56719300I209300J0D01*
G01*
X186460219Y-55079459D02*
G75*
G02*
X186000601Y-55079459I-229809J229806D01*
G01*
X184615921Y-54154402D02*
G75*
G03*
X184615932Y-54614009I229779J-229798D01*
G01*
X189719316Y-57369316D02*
G75*
G03*
X189510016Y-57578632I-16J-209284D01*
G01*
X186460219Y-54619839D02*
G75*
G02*
X186460171Y-55079409I-229819J-229761D01*
G01*
X184848639Y-54846739D02*
G75*
G02*
X184848591Y-55306309I-229839J-229761D01*
G01*
X185075540Y-54154402D02*
G75*
G03*
X184615920Y-54154402I-229810J-229811D01*
G01*
X189719316Y-56719316D02*
G75*
G02*
X189928584Y-56928632I-16J-209284D01*
G01*
X189928632Y-57160000D02*
G75*
G02*
X189719316Y-57369332I-209332J0D01*
G01*
%TO.N,OP_555*%
X167000000Y-98900000D02*
X166300000Y-99600000D01*
X161680000Y-70710000D02*
X161580000Y-70610000D01*
X158560000Y-78680000D02*
X160930000Y-76310000D01*
X166300000Y-104780000D02*
X174110000Y-112590000D01*
X166300000Y-99600000D02*
X166300000Y-104780000D01*
X161000000Y-90140000D02*
X160200000Y-90140000D01*
X177056000Y-112590000D02*
X174110000Y-112590000D01*
X163490000Y-72007500D02*
X162977500Y-72007500D01*
X161580000Y-70610000D02*
X161580000Y-66420000D01*
X168192500Y-61847500D02*
X168200000Y-61840000D01*
X160930000Y-73820000D02*
X162742500Y-72007500D01*
X162977500Y-72007500D02*
X161680000Y-70710000D01*
X179596000Y-110050000D02*
X177056000Y-112590000D01*
X181730000Y-110050000D02*
X179596000Y-110050000D01*
X167000000Y-90140000D02*
X167000000Y-98900000D01*
X160930000Y-76310000D02*
X160930000Y-73820000D01*
X162742500Y-72007500D02*
X163490000Y-72007500D01*
X163490000Y-61847500D02*
X168192500Y-61847500D01*
X160200000Y-90140000D02*
X159050000Y-88990000D01*
%TO.N,Net-(R36-Pad1)*%
X169610000Y-63950000D02*
X169560000Y-63900000D01*
X169610000Y-63950000D02*
X171620000Y-63950000D01*
X169560000Y-63900000D02*
X169560000Y-59888000D01*
X173573000Y-55875000D02*
X174180000Y-55875000D01*
X169560000Y-59888000D02*
X173573000Y-55875000D01*
%TO.N,Net-(R37-Pad1)*%
X190320000Y-103320000D02*
X190320000Y-107880000D01*
X174095000Y-65950000D02*
X174180000Y-66035000D01*
X189340000Y-102340000D02*
X190320000Y-103320000D01*
X180800000Y-73000000D02*
X189340000Y-81540000D01*
X185610000Y-112590000D02*
X181730000Y-112590000D01*
X189340000Y-81540000D02*
X189340000Y-102340000D01*
X190320000Y-107880000D02*
X185610000Y-112590000D01*
X171620000Y-65950000D02*
X174095000Y-65950000D01*
%TO.N,Net-(R38-Pad1)*%
X169610000Y-66540000D02*
X170870000Y-67800000D01*
X171620000Y-67800000D02*
X171708000Y-67888000D01*
X169610000Y-65950000D02*
X169610000Y-66540000D01*
X170870000Y-67800000D02*
X171620000Y-67800000D01*
X173785000Y-68970000D02*
X174180000Y-68575000D01*
X173493000Y-67888000D02*
X174180000Y-68575000D01*
X171708000Y-67888000D02*
X173493000Y-67888000D01*
%TO.N,Net-(R39-Pad1)*%
X171620000Y-69820000D02*
X172915000Y-71115000D01*
X171620000Y-69800000D02*
X171620000Y-69820000D01*
X172915000Y-71115000D02*
X174180000Y-71115000D01*
%TO.N,Net-(C16-Pad1)*%
X143600000Y-98700000D02*
X143600000Y-95300000D01*
X144864888Y-115700000D02*
X144864888Y-99964888D01*
X144864888Y-99964888D02*
X143600000Y-98700000D01*
D37*
%TO.N,Net-(C16-Pad2)*%
X179000000Y-134050000D02*
X179500000Y-134550000D01*
D36*
%TO.N,Net-(J2-Pad5)*%
X137300000Y-88400000D02*
X141400000Y-84300000D01*
X140500000Y-114900000D02*
X137300000Y-111700000D01*
X137300000Y-111700000D02*
X137300000Y-88400000D01*
X141400000Y-72750000D02*
X148000000Y-66150000D01*
X141400000Y-84300000D02*
X141400000Y-72750000D01*
%TO.N,Net-(J4-Pad5)*%
X154500000Y-132000000D02*
X154500000Y-129200000D01*
%TO.N,Net-(R35-Pad2)*%
X131120000Y-79280000D02*
X131120000Y-87205000D01*
X131120000Y-87205000D02*
X129270000Y-89055000D01*
X168200000Y-54560000D02*
X154640000Y-54560000D01*
X137410000Y-71790000D02*
X137410000Y-72990000D01*
X154640000Y-54560000D02*
X137410000Y-71790000D01*
X137410000Y-72990000D02*
X131120000Y-79280000D01*
%TO.N,Net-(R41-Pad2)*%
X150109950Y-77960050D02*
X150109950Y-74190050D01*
X150450000Y-68950000D02*
X152950000Y-66450000D01*
X150090000Y-77980000D02*
X150109950Y-77960050D01*
X152950000Y-66450000D02*
X152950000Y-65410000D01*
X150109950Y-74190050D02*
X150450000Y-73850000D01*
X150450000Y-73850000D02*
X150450000Y-68950000D01*
%TO.N,Net-(R43-Pad2)*%
X139000000Y-72038629D02*
X148498629Y-62540000D01*
X139000000Y-83590000D02*
X139000000Y-72038629D01*
X135000000Y-114550000D02*
X135000000Y-87590000D01*
X135000000Y-87590000D02*
X139000000Y-83590000D01*
X148498629Y-62540000D02*
X149910000Y-62540000D01*
%TO.N,Net-(R42-Pad2)*%
X142800000Y-74329899D02*
X142800000Y-85340000D01*
X142800000Y-92700000D02*
X142800000Y-85300000D01*
X151400000Y-65729899D02*
X142800000Y-74329899D01*
X153970000Y-61870000D02*
X151400000Y-64440000D01*
X151400000Y-64440000D02*
X151400000Y-65729899D01*
X153970000Y-57460000D02*
X153970000Y-61870000D01*
X141400000Y-94100000D02*
X142800000Y-92700000D01*
X141400000Y-117100000D02*
X141400000Y-94100000D01*
X154300000Y-57130000D02*
X153970000Y-57460000D01*
%TD*%
%TA.AperFunction,Conductor*%
%TO.N,GND*%
G36*
X165462793Y-80808192D02*
G01*
X165509298Y-80861837D01*
X165520682Y-80916064D01*
X165490574Y-82955971D01*
X165469569Y-83023790D01*
X165415233Y-83069486D01*
X165364617Y-83080112D01*
X163400522Y-83080565D01*
X163332397Y-83060579D01*
X163285891Y-83006934D01*
X163274493Y-82954904D01*
X163268999Y-80914998D01*
X163288818Y-80846824D01*
X163342348Y-80800187D01*
X163394968Y-80788659D01*
X165394670Y-80788205D01*
X165462793Y-80808192D01*
G37*
%TD.AperFunction*%
%TD*%
M02*
