M48
; DRILL file {KiCad 8.0.3} date 2024-12-05T20:13:57+0000
; FORMAT={-:-/ absolute / inch / decimal}
; #@! TF.CreationDate,2024-12-05T20:13:57+00:00
; #@! TF.GenerationSoftware,Kicad,Pcbnew,8.0.3
; #@! TF.FileFunction,Plated,1,2,PTH
FMAT,2
INCH
; #@! TA.AperFunction,Plated,PTH,ViaDrill
T1C0.0157
; #@! TA.AperFunction,Plated,PTH,ComponentDrill
T2C0.0276
; #@! TA.AperFunction,Plated,PTH,ComponentDrill
T3C0.0295
; #@! TA.AperFunction,Plated,PTH,ComponentDrill
T4C0.0315
; #@! TA.AperFunction,Plated,PTH,ComponentDrill
T5C0.0394
; #@! TA.AperFunction,Plated,PTH,ComponentDrill
T6C0.0709
%
G90
G05
T1
X5.4764Y-4.7638
X5.5315Y-4.5236
X5.5354Y-2.8425
X5.5355Y-2.9094
X5.5669Y-4.6102
X5.5827Y-2.5827
X5.6535Y-3.752
X5.874Y-4.8228
X5.878Y-4.6142
X5.902Y-2.4622
X5.9091Y-3.0701
X5.9685Y-2.7559
X6.0217Y-2.5752
X6.0337Y-3.5656
X6.0339Y-3.6685
X6.0748Y-2.2492
X6.0827Y-5.0866
X6.0827Y-5.1969
X6.1417Y-4.9646
X6.2425Y-3.0976
X6.2506Y-2.6421
X6.2512Y-2.0417
X6.2618Y-3.5035
X6.2945Y-2.5051
X6.3276Y-2.6843
X6.3306Y-3.6628
X6.3386Y-3.5488
X6.3614Y-2.615
X6.3622Y-3.1772
X6.4283Y-3.4236
X6.4306Y-3.9528
X6.4528Y-2.1024
X6.4528Y-2.3028
X6.4709Y-3.1201
X6.4732Y-3.2169
X6.5Y-2.685
X6.5748Y-3.5488
X6.5823Y-3.9528
X6.6041Y-3.1356
X6.622Y-2.0787
X6.622Y-2.148
X6.622Y-2.4346
X6.626Y-2.8504
X6.6535Y-2.3346
X6.6732Y-2.9664
X6.6811Y-3.3543
X6.7008Y-4.1157
X6.7244Y-2.8465
X6.7354Y-2.4366
X6.748Y-2.9664
X6.752Y-3.7756
X6.7953Y-3.3898
X6.811Y-3.3031
X6.8583Y-3.5433
X6.8701Y-3.252
X6.8806Y-2.0421
X6.8819Y-3.7441
X6.9331Y-3.0433
X6.9331Y-3.8268
X6.9394Y-2.8626
X6.9528Y-3.1142
X7.0Y-3.1535
X7.0Y-3.2559
X7.0079Y-3.689
X7.0236Y-3.5433
X7.024Y-3.4531
X7.0382Y-3.3531
X7.0476Y-1.8591
X7.0591Y-2.6063
X7.0762Y-3.2756
X7.0866Y-3.8425
X7.0906Y-4.0591
X7.1181Y-2.874
X7.1339Y-3.7992
X7.166Y-3.0348
X7.189Y-3.748
X7.1969Y-3.3504
X7.2047Y-3.3031
X7.2047Y-3.9921
X7.2087Y-3.4961
X7.2087Y-3.5945
X7.2402Y-3.6969
X7.2559Y-3.8386
X7.2571Y-2.9323
X7.2874Y-3.9567
X7.3031Y-3.3701
X7.3268Y-3.4055
X7.3307Y-3.8386
X7.3346Y-3.7913
X7.3701Y-3.2244
X7.4094Y-4.1528
X7.4551Y-4.1969
X7.4606Y-2.7559
X7.4843Y-3.1654
X7.5394Y-2.811
X7.5701Y-4.0945
X7.5787Y-3.4331
X7.5945Y-2.7559
T2
X7.361Y-2.3461
X7.461Y-2.3461
T3
X5.8815Y-3.5169
X5.8815Y-3.5669
X5.8815Y-3.6169
X7.3878Y-2.5846
X7.3878Y-2.6346
X7.3878Y-2.6846
X7.5791Y-2.5878
X7.5791Y-2.6378
X7.5791Y-2.6878
T4
X5.0894Y-3.4061
X5.0894Y-3.5061
X5.0894Y-3.6061
X5.7033Y-4.5551
X5.7449Y-3.5705
X5.7449Y-3.8705
X5.7821Y-4.5551
X6.1366Y-2.4349
X6.1366Y-2.5349
X6.1366Y-2.6349
X6.1366Y-2.7349
X6.1366Y-2.8349
X6.1366Y-2.9349
X6.1366Y-3.0349
X6.3522Y-1.9803
X6.4309Y-1.9803
X6.4366Y-2.4349
X6.4366Y-2.5349
X6.4366Y-2.6349
X6.4366Y-2.7349
X6.4366Y-2.8349
X6.4366Y-2.9349
X6.4366Y-3.0349
X6.6711Y-1.9843
X6.7498Y-1.9843
X6.8547Y-4.2327
X6.8547Y-4.3327
X6.8547Y-4.4327
X6.8547Y-4.5327
X6.8575Y-2.1998
X6.8575Y-2.2998
X6.8575Y-2.3998
X6.8575Y-2.4998
X6.8575Y-2.5998
X6.8575Y-2.6998
X6.8575Y-2.7998
X7.1547Y-4.2327
X7.1547Y-4.3327
X7.1547Y-4.4327
X7.1547Y-4.5327
X7.1575Y-2.1998
X7.1575Y-2.2998
X7.1575Y-2.3998
X7.1575Y-2.4998
X7.1575Y-2.5998
X7.1575Y-2.6998
X7.1575Y-2.7998
X7.2037Y-1.6559
X7.3037Y-1.6559
X7.3685Y-3.4644
X7.3685Y-3.5644
X7.3685Y-3.6644
X7.3787Y-1.8762
X7.3787Y-1.9762
X7.3787Y-2.0762
X7.4037Y-1.6559
X7.5768Y-1.8531
X7.5768Y-2.1531
X7.8957Y-4.5128
X7.8957Y-4.6128
X7.8957Y-4.7128
T5
X5.2165Y-4.5098
X5.2165Y-5.2972
X5.315Y-4.5098
X5.315Y-5.2972
X5.4134Y-4.5098
X5.4134Y-5.2972
X6.0433Y-4.5098
X6.0433Y-5.2972
X6.1417Y-4.5098
X6.1417Y-5.2972
X6.2402Y-4.5098
X6.2402Y-5.2972
X6.351Y-1.6077
X6.351Y-1.7077
X6.451Y-1.6077
X6.451Y-1.7077
X6.551Y-1.6077
X6.551Y-1.7077
X6.651Y-1.6077
X6.651Y-1.7077
X6.751Y-1.6077
X6.751Y-1.7077
X6.8701Y-5.2972
X6.9685Y-5.2972
X7.0669Y-5.2972
X7.6969Y-5.2972
X7.7953Y-5.2972
X7.8937Y-5.2972
T5
G00X5.1358Y-1.8504
M15
G01X5.1358Y-1.7913
M16
G05
G00X5.1358Y-2.4409
M15
G01X5.1358Y-2.3819
M16
G05
G00X5.1358Y-3.0315
M15
G01X5.1358Y-2.9724
M16
G05
G00X5.2461Y-1.6949
M15
G01X5.3051Y-1.6949
M16
G05
G00X5.2461Y-2.0138
M15
G01X5.3051Y-2.0138
M16
G05
G00X5.2461Y-2.2854
M15
G01X5.3051Y-2.2854
M16
G05
G00X5.2461Y-2.6043
M15
G01X5.3051Y-2.6043
M16
G05
G00X5.2461Y-2.876
M15
G01X5.3051Y-2.876
M16
G05
G00X5.2461Y-3.1949
M15
G01X5.3051Y-3.1949
M16
G05
G00X5.4154Y-1.7894
M15
G01X5.4154Y-1.8484
M16
G05
G00X5.4154Y-2.3799
M15
G01X5.4154Y-2.439
M16
G05
G00X5.4154Y-2.9705
M15
G01X5.4154Y-3.0295
M16
G05
G00X5.687Y-2.4409
M15
G01X5.687Y-2.3819
M16
G05
G00X5.687Y-3.0315
M15
G01X5.687Y-2.9724
M16
G05
G00X5.7972Y-2.2854
M15
G01X5.8563Y-2.2854
M16
G05
G00X5.7972Y-2.6043
M15
G01X5.8563Y-2.6043
M16
G05
G00X5.7972Y-2.876
M15
G01X5.8563Y-2.876
M16
G05
G00X5.7972Y-3.1949
M15
G01X5.8563Y-3.1949
M16
G05
G00X5.9665Y-2.3799
M15
G01X5.9665Y-2.439
M16
G05
G00X5.9665Y-2.9705
M15
G01X5.9665Y-3.0295
M16
G05
G00X7.7343Y-2.4409
M15
G01X7.7343Y-2.3819
M16
G05
G00X7.7343Y-3.0315
M15
G01X7.7343Y-2.9724
M16
G05
G00X7.7343Y-3.622
M15
G01X7.7343Y-3.563
M16
G05
G00X7.7343Y-4.2126
M15
G01X7.7343Y-4.1535
M16
G05
G00X7.8445Y-2.2854
M15
G01X7.9035Y-2.2854
M16
G05
G00X7.8445Y-2.6043
M15
G01X7.9035Y-2.6043
M16
G05
G00X7.8445Y-2.876
M15
G01X7.9035Y-2.876
M16
G05
G00X7.8445Y-3.1949
M15
G01X7.9035Y-3.1949
M16
G05
G00X7.8445Y-3.4665
M15
G01X7.9035Y-3.4665
M16
G05
G00X7.8445Y-3.7854
M15
G01X7.9035Y-3.7854
M16
G05
G00X7.8445Y-4.0571
M15
G01X7.9035Y-4.0571
M16
G05
G00X7.8445Y-4.376
M15
G01X7.9035Y-4.376
M16
G05
G00X8.0138Y-2.3799
M15
G01X8.0138Y-2.439
M16
G05
G00X8.0138Y-2.9705
M15
G01X8.0138Y-3.0295
M16
G05
G00X8.0138Y-3.561
M15
G01X8.0138Y-3.6201
M16
G05
G00X8.0138Y-4.1516
M15
G01X8.0138Y-4.2106
M16
G05
T6
G00X5.1417Y-4.2402
M15
G01X5.1417Y-4.2283
M16
G05
G00X5.1417Y-5.0276
M15
G01X5.1417Y-5.0157
M16
G05
G00X5.4882Y-4.2402
M15
G01X5.4882Y-4.2283
M16
G05
G00X5.4882Y-5.0276
M15
G01X5.4882Y-5.0157
M16
G05
G00X5.9685Y-4.2402
M15
G01X5.9685Y-4.2283
M16
G05
G00X5.9685Y-5.0276
M15
G01X5.9685Y-5.0157
M16
G05
G00X6.315Y-4.2402
M15
G01X6.315Y-4.2283
M16
G05
G00X6.315Y-5.0276
M15
G01X6.315Y-5.0157
M16
G05
G00X6.7953Y-5.0276
M15
G01X6.7953Y-5.0157
M16
G05
G00X7.1417Y-5.0276
M15
G01X7.1417Y-5.0157
M16
G05
G00X7.622Y-5.0276
M15
G01X7.622Y-5.0157
M16
G05
G00X7.9685Y-5.0276
M15
G01X7.9685Y-5.0157
M16
G05
M30
